M48
; DRILL file {KiCad 7.0.5-0} date 2023 July 20, Thursday 10:36:23
; FORMAT={-:-/ absolute / inch / decimal}
; #@! TF.CreationDate,2023-07-20T10:36:23-05:00
; #@! TF.GenerationSoftware,Kicad,Pcbnew,7.0.5-0
; #@! TF.FileFunction,Plated,1,2,PTH
FMAT,2
INCH
; #@! TA.AperFunction,Plated,PTH,ViaDrill
T1C0.0157
; #@! TA.AperFunction,Plated,PTH,ComponentDrill
T2C0.0236
%
G90
G05
T1
X5.4646Y-3.5157
X5.4646Y-3.7126
X5.502Y-3.5531
X5.5217Y-3.75
X5.6004Y-3.622
X5.6988Y-3.6614
X5.748Y-3.6614
X5.7776Y-3.7106
X5.8169Y-3.5827
X5.8169Y-3.7106
X5.8268Y-3.5335
X5.9163Y-3.5906
X5.9163Y-3.6693
X5.9298Y-3.4899
X5.9557Y-3.6299
X5.995Y-3.5906
X5.995Y-3.6693
X6.0137Y-3.4016
X6.0501Y-3.4016
X6.058Y-3.5039
X6.0895Y-3.4094
X6.1082Y-3.685
X6.1289Y-3.4094
X6.1368Y-3.8346
X6.2205Y-3.6063
X6.31Y-3.4803
X6.31Y-3.748
T2
G00X6.4131Y-3.4441
M15
G01X6.3698Y-3.4441
M16
G05
G00X6.4131Y-3.7843
M15
G01X6.3698Y-3.7843
M16
G05
G00X6.5679Y-3.4441
M15
G01X6.5442Y-3.4441
M16
G05
G00X6.5679Y-3.7843
M15
G01X6.5442Y-3.7843
M16
G05
T0
M30
