%TF.GenerationSoftware,KiCad,Pcbnew,7.0.5-0*%
%TF.CreationDate,2023-07-07T09:12:39-05:00*%
%TF.ProjectId,DCSDv2_CP2102N,44435344-7632-45f4-9350-323130324e2e,rev?*%
%TF.SameCoordinates,Original*%
%TF.FileFunction,Legend,Top*%
%TF.FilePolarity,Positive*%
%FSLAX46Y46*%
G04 Gerber Fmt 4.6, Leading zero omitted, Abs format (unit mm)*
G04 Created by KiCad (PCBNEW 7.0.5-0) date 2023-07-07 09:12:39*
%MOMM*%
%LPD*%
G01*
G04 APERTURE LIST*
G04 Aperture macros list*
%AMRoundRect*
0 Rectangle with rounded corners*
0 $1 Rounding radius*
0 $2 $3 $4 $5 $6 $7 $8 $9 X,Y pos of 4 corners*
0 Add a 4 corners polygon primitive as box body*
4,1,4,$2,$3,$4,$5,$6,$7,$8,$9,$2,$3,0*
0 Add four circle primitives for the rounded corners*
1,1,$1+$1,$2,$3*
1,1,$1+$1,$4,$5*
1,1,$1+$1,$6,$7*
1,1,$1+$1,$8,$9*
0 Add four rect primitives between the rounded corners*
20,1,$1+$1,$2,$3,$4,$5,0*
20,1,$1+$1,$4,$5,$6,$7,0*
20,1,$1+$1,$6,$7,$8,$9,0*
20,1,$1+$1,$8,$9,$2,$3,0*%
%AMFreePoly0*
4,1,19,0.500000,-0.750000,0.000000,-0.750000,0.000000,-0.744911,-0.071157,-0.744911,-0.207708,-0.704816,-0.327430,-0.627875,-0.420627,-0.520320,-0.479746,-0.390866,-0.500000,-0.250000,-0.500000,0.250000,-0.479746,0.390866,-0.420627,0.520320,-0.327430,0.627875,-0.207708,0.704816,-0.071157,0.744911,0.000000,0.744911,0.000000,0.750000,0.500000,0.750000,0.500000,-0.750000,0.500000,-0.750000,
$1*%
%AMFreePoly1*
4,1,19,0.000000,0.744911,0.071157,0.744911,0.207708,0.704816,0.327430,0.627875,0.420627,0.520320,0.479746,0.390866,0.500000,0.250000,0.500000,-0.250000,0.479746,-0.390866,0.420627,-0.520320,0.327430,-0.627875,0.207708,-0.704816,0.071157,-0.744911,0.000000,-0.744911,0.000000,-0.750000,-0.500000,-0.750000,-0.500000,0.750000,0.000000,0.750000,0.000000,0.744911,0.000000,0.744911,
$1*%
G04 Aperture macros list end*
%ADD10C,0.150000*%
%ADD11C,0.100000*%
%ADD12C,0.120000*%
%ADD13RoundRect,0.135000X0.185000X-0.135000X0.185000X0.135000X-0.185000X0.135000X-0.185000X-0.135000X0*%
%ADD14FreePoly0,0.000000*%
%ADD15FreePoly1,0.000000*%
%ADD16RoundRect,0.218750X0.218750X0.256250X-0.218750X0.256250X-0.218750X-0.256250X0.218750X-0.256250X0*%
%ADD17RoundRect,0.062500X-0.062500X0.337500X-0.062500X-0.337500X0.062500X-0.337500X0.062500X0.337500X0*%
%ADD18RoundRect,0.062500X-0.337500X0.062500X-0.337500X-0.062500X0.337500X-0.062500X0.337500X0.062500X0*%
%ADD19R,3.350000X3.350000*%
%ADD20RoundRect,0.140000X0.170000X-0.140000X0.170000X0.140000X-0.170000X0.140000X-0.170000X-0.140000X0*%
%ADD21RoundRect,0.135000X0.135000X0.185000X-0.135000X0.185000X-0.135000X-0.185000X0.135000X-0.185000X0*%
%ADD22C,0.650000*%
%ADD23R,1.450000X0.600000*%
%ADD24R,1.450000X0.300000*%
%ADD25O,2.100000X1.000000*%
%ADD26O,1.600000X1.000000*%
%ADD27RoundRect,0.135000X-0.135000X-0.185000X0.135000X-0.185000X0.135000X0.185000X-0.135000X0.185000X0*%
%ADD28R,5.000000X1.000000*%
G04 APERTURE END LIST*
D10*
X152408207Y-95669819D02*
X152074874Y-95193628D01*
X151836779Y-95669819D02*
X151836779Y-94669819D01*
X151836779Y-94669819D02*
X152217731Y-94669819D01*
X152217731Y-94669819D02*
X152312969Y-94717438D01*
X152312969Y-94717438D02*
X152360588Y-94765057D01*
X152360588Y-94765057D02*
X152408207Y-94860295D01*
X152408207Y-94860295D02*
X152408207Y-95003152D01*
X152408207Y-95003152D02*
X152360588Y-95098390D01*
X152360588Y-95098390D02*
X152312969Y-95146009D01*
X152312969Y-95146009D02*
X152217731Y-95193628D01*
X152217731Y-95193628D02*
X151836779Y-95193628D01*
X152836779Y-95146009D02*
X153170112Y-95146009D01*
X153312969Y-95669819D02*
X152836779Y-95669819D01*
X152836779Y-95669819D02*
X152836779Y-94669819D01*
X152836779Y-94669819D02*
X153312969Y-94669819D01*
X153693922Y-95622200D02*
X153836779Y-95669819D01*
X153836779Y-95669819D02*
X154074874Y-95669819D01*
X154074874Y-95669819D02*
X154170112Y-95622200D01*
X154170112Y-95622200D02*
X154217731Y-95574580D01*
X154217731Y-95574580D02*
X154265350Y-95479342D01*
X154265350Y-95479342D02*
X154265350Y-95384104D01*
X154265350Y-95384104D02*
X154217731Y-95288866D01*
X154217731Y-95288866D02*
X154170112Y-95241247D01*
X154170112Y-95241247D02*
X154074874Y-95193628D01*
X154074874Y-95193628D02*
X153884398Y-95146009D01*
X153884398Y-95146009D02*
X153789160Y-95098390D01*
X153789160Y-95098390D02*
X153741541Y-95050771D01*
X153741541Y-95050771D02*
X153693922Y-94955533D01*
X153693922Y-94955533D02*
X153693922Y-94860295D01*
X153693922Y-94860295D02*
X153741541Y-94765057D01*
X153741541Y-94765057D02*
X153789160Y-94717438D01*
X153789160Y-94717438D02*
X153884398Y-94669819D01*
X153884398Y-94669819D02*
X154122493Y-94669819D01*
X154122493Y-94669819D02*
X154265350Y-94717438D01*
X154693922Y-95146009D02*
X155027255Y-95146009D01*
X155170112Y-95669819D02*
X154693922Y-95669819D01*
X154693922Y-95669819D02*
X154693922Y-94669819D01*
X154693922Y-94669819D02*
X155170112Y-94669819D01*
X155455827Y-94669819D02*
X156027255Y-94669819D01*
X155741541Y-95669819D02*
X155741541Y-94669819D01*
X134080952Y-102364580D02*
X134033333Y-102412200D01*
X134033333Y-102412200D02*
X133890476Y-102459819D01*
X133890476Y-102459819D02*
X133795238Y-102459819D01*
X133795238Y-102459819D02*
X133652381Y-102412200D01*
X133652381Y-102412200D02*
X133557143Y-102316961D01*
X133557143Y-102316961D02*
X133509524Y-102221723D01*
X133509524Y-102221723D02*
X133461905Y-102031247D01*
X133461905Y-102031247D02*
X133461905Y-101888390D01*
X133461905Y-101888390D02*
X133509524Y-101697914D01*
X133509524Y-101697914D02*
X133557143Y-101602676D01*
X133557143Y-101602676D02*
X133652381Y-101507438D01*
X133652381Y-101507438D02*
X133795238Y-101459819D01*
X133795238Y-101459819D02*
X133890476Y-101459819D01*
X133890476Y-101459819D02*
X134033333Y-101507438D01*
X134033333Y-101507438D02*
X134080952Y-101555057D01*
X134509524Y-102459819D02*
X134509524Y-101459819D01*
X134509524Y-101459819D02*
X134890476Y-101459819D01*
X134890476Y-101459819D02*
X134985714Y-101507438D01*
X134985714Y-101507438D02*
X135033333Y-101555057D01*
X135033333Y-101555057D02*
X135080952Y-101650295D01*
X135080952Y-101650295D02*
X135080952Y-101793152D01*
X135080952Y-101793152D02*
X135033333Y-101888390D01*
X135033333Y-101888390D02*
X134985714Y-101936009D01*
X134985714Y-101936009D02*
X134890476Y-101983628D01*
X134890476Y-101983628D02*
X134509524Y-101983628D01*
X135461905Y-101555057D02*
X135509524Y-101507438D01*
X135509524Y-101507438D02*
X135604762Y-101459819D01*
X135604762Y-101459819D02*
X135842857Y-101459819D01*
X135842857Y-101459819D02*
X135938095Y-101507438D01*
X135938095Y-101507438D02*
X135985714Y-101555057D01*
X135985714Y-101555057D02*
X136033333Y-101650295D01*
X136033333Y-101650295D02*
X136033333Y-101745533D01*
X136033333Y-101745533D02*
X135985714Y-101888390D01*
X135985714Y-101888390D02*
X135414286Y-102459819D01*
X135414286Y-102459819D02*
X136033333Y-102459819D01*
X136985714Y-102459819D02*
X136414286Y-102459819D01*
X136700000Y-102459819D02*
X136700000Y-101459819D01*
X136700000Y-101459819D02*
X136604762Y-101602676D01*
X136604762Y-101602676D02*
X136509524Y-101697914D01*
X136509524Y-101697914D02*
X136414286Y-101745533D01*
X137604762Y-101459819D02*
X137700000Y-101459819D01*
X137700000Y-101459819D02*
X137795238Y-101507438D01*
X137795238Y-101507438D02*
X137842857Y-101555057D01*
X137842857Y-101555057D02*
X137890476Y-101650295D01*
X137890476Y-101650295D02*
X137938095Y-101840771D01*
X137938095Y-101840771D02*
X137938095Y-102078866D01*
X137938095Y-102078866D02*
X137890476Y-102269342D01*
X137890476Y-102269342D02*
X137842857Y-102364580D01*
X137842857Y-102364580D02*
X137795238Y-102412200D01*
X137795238Y-102412200D02*
X137700000Y-102459819D01*
X137700000Y-102459819D02*
X137604762Y-102459819D01*
X137604762Y-102459819D02*
X137509524Y-102412200D01*
X137509524Y-102412200D02*
X137461905Y-102364580D01*
X137461905Y-102364580D02*
X137414286Y-102269342D01*
X137414286Y-102269342D02*
X137366667Y-102078866D01*
X137366667Y-102078866D02*
X137366667Y-101840771D01*
X137366667Y-101840771D02*
X137414286Y-101650295D01*
X137414286Y-101650295D02*
X137461905Y-101555057D01*
X137461905Y-101555057D02*
X137509524Y-101507438D01*
X137509524Y-101507438D02*
X137604762Y-101459819D01*
X138319048Y-101555057D02*
X138366667Y-101507438D01*
X138366667Y-101507438D02*
X138461905Y-101459819D01*
X138461905Y-101459819D02*
X138700000Y-101459819D01*
X138700000Y-101459819D02*
X138795238Y-101507438D01*
X138795238Y-101507438D02*
X138842857Y-101555057D01*
X138842857Y-101555057D02*
X138890476Y-101650295D01*
X138890476Y-101650295D02*
X138890476Y-101745533D01*
X138890476Y-101745533D02*
X138842857Y-101888390D01*
X138842857Y-101888390D02*
X138271429Y-102459819D01*
X138271429Y-102459819D02*
X138890476Y-102459819D01*
X139319048Y-102459819D02*
X139319048Y-101459819D01*
X139319048Y-101459819D02*
X139890476Y-102459819D01*
X139890476Y-102459819D02*
X139890476Y-101459819D01*
X141128572Y-102459819D02*
X141128572Y-101459819D01*
X141128572Y-101459819D02*
X141366667Y-101459819D01*
X141366667Y-101459819D02*
X141509524Y-101507438D01*
X141509524Y-101507438D02*
X141604762Y-101602676D01*
X141604762Y-101602676D02*
X141652381Y-101697914D01*
X141652381Y-101697914D02*
X141700000Y-101888390D01*
X141700000Y-101888390D02*
X141700000Y-102031247D01*
X141700000Y-102031247D02*
X141652381Y-102221723D01*
X141652381Y-102221723D02*
X141604762Y-102316961D01*
X141604762Y-102316961D02*
X141509524Y-102412200D01*
X141509524Y-102412200D02*
X141366667Y-102459819D01*
X141366667Y-102459819D02*
X141128572Y-102459819D01*
X142700000Y-102364580D02*
X142652381Y-102412200D01*
X142652381Y-102412200D02*
X142509524Y-102459819D01*
X142509524Y-102459819D02*
X142414286Y-102459819D01*
X142414286Y-102459819D02*
X142271429Y-102412200D01*
X142271429Y-102412200D02*
X142176191Y-102316961D01*
X142176191Y-102316961D02*
X142128572Y-102221723D01*
X142128572Y-102221723D02*
X142080953Y-102031247D01*
X142080953Y-102031247D02*
X142080953Y-101888390D01*
X142080953Y-101888390D02*
X142128572Y-101697914D01*
X142128572Y-101697914D02*
X142176191Y-101602676D01*
X142176191Y-101602676D02*
X142271429Y-101507438D01*
X142271429Y-101507438D02*
X142414286Y-101459819D01*
X142414286Y-101459819D02*
X142509524Y-101459819D01*
X142509524Y-101459819D02*
X142652381Y-101507438D01*
X142652381Y-101507438D02*
X142700000Y-101555057D01*
X144652382Y-101793152D02*
X143890477Y-102078866D01*
X143890477Y-102078866D02*
X144652382Y-102364580D01*
X145128572Y-102078866D02*
X145890477Y-102078866D01*
X146366667Y-101793152D02*
X147128572Y-102078866D01*
X147128572Y-102078866D02*
X146366667Y-102364580D01*
X148366667Y-101459819D02*
X148366667Y-102269342D01*
X148366667Y-102269342D02*
X148414286Y-102364580D01*
X148414286Y-102364580D02*
X148461905Y-102412200D01*
X148461905Y-102412200D02*
X148557143Y-102459819D01*
X148557143Y-102459819D02*
X148747619Y-102459819D01*
X148747619Y-102459819D02*
X148842857Y-102412200D01*
X148842857Y-102412200D02*
X148890476Y-102364580D01*
X148890476Y-102364580D02*
X148938095Y-102269342D01*
X148938095Y-102269342D02*
X148938095Y-101459819D01*
X149366667Y-102412200D02*
X149509524Y-102459819D01*
X149509524Y-102459819D02*
X149747619Y-102459819D01*
X149747619Y-102459819D02*
X149842857Y-102412200D01*
X149842857Y-102412200D02*
X149890476Y-102364580D01*
X149890476Y-102364580D02*
X149938095Y-102269342D01*
X149938095Y-102269342D02*
X149938095Y-102174104D01*
X149938095Y-102174104D02*
X149890476Y-102078866D01*
X149890476Y-102078866D02*
X149842857Y-102031247D01*
X149842857Y-102031247D02*
X149747619Y-101983628D01*
X149747619Y-101983628D02*
X149557143Y-101936009D01*
X149557143Y-101936009D02*
X149461905Y-101888390D01*
X149461905Y-101888390D02*
X149414286Y-101840771D01*
X149414286Y-101840771D02*
X149366667Y-101745533D01*
X149366667Y-101745533D02*
X149366667Y-101650295D01*
X149366667Y-101650295D02*
X149414286Y-101555057D01*
X149414286Y-101555057D02*
X149461905Y-101507438D01*
X149461905Y-101507438D02*
X149557143Y-101459819D01*
X149557143Y-101459819D02*
X149795238Y-101459819D01*
X149795238Y-101459819D02*
X149938095Y-101507438D01*
X150700000Y-101936009D02*
X150842857Y-101983628D01*
X150842857Y-101983628D02*
X150890476Y-102031247D01*
X150890476Y-102031247D02*
X150938095Y-102126485D01*
X150938095Y-102126485D02*
X150938095Y-102269342D01*
X150938095Y-102269342D02*
X150890476Y-102364580D01*
X150890476Y-102364580D02*
X150842857Y-102412200D01*
X150842857Y-102412200D02*
X150747619Y-102459819D01*
X150747619Y-102459819D02*
X150366667Y-102459819D01*
X150366667Y-102459819D02*
X150366667Y-101459819D01*
X150366667Y-101459819D02*
X150700000Y-101459819D01*
X150700000Y-101459819D02*
X150795238Y-101507438D01*
X150795238Y-101507438D02*
X150842857Y-101555057D01*
X150842857Y-101555057D02*
X150890476Y-101650295D01*
X150890476Y-101650295D02*
X150890476Y-101745533D01*
X150890476Y-101745533D02*
X150842857Y-101840771D01*
X150842857Y-101840771D02*
X150795238Y-101888390D01*
X150795238Y-101888390D02*
X150700000Y-101936009D01*
X150700000Y-101936009D02*
X150366667Y-101936009D01*
X141485714Y-103403152D02*
X141723809Y-104069819D01*
X141723809Y-104069819D02*
X141961904Y-103403152D01*
X142866666Y-104069819D02*
X142295238Y-104069819D01*
X142580952Y-104069819D02*
X142580952Y-103069819D01*
X142580952Y-103069819D02*
X142485714Y-103212676D01*
X142485714Y-103212676D02*
X142390476Y-103307914D01*
X142390476Y-103307914D02*
X142295238Y-103355533D01*
X154108207Y-88774580D02*
X154060588Y-88822200D01*
X154060588Y-88822200D02*
X153917731Y-88869819D01*
X153917731Y-88869819D02*
X153822493Y-88869819D01*
X153822493Y-88869819D02*
X153679636Y-88822200D01*
X153679636Y-88822200D02*
X153584398Y-88726961D01*
X153584398Y-88726961D02*
X153536779Y-88631723D01*
X153536779Y-88631723D02*
X153489160Y-88441247D01*
X153489160Y-88441247D02*
X153489160Y-88298390D01*
X153489160Y-88298390D02*
X153536779Y-88107914D01*
X153536779Y-88107914D02*
X153584398Y-88012676D01*
X153584398Y-88012676D02*
X153679636Y-87917438D01*
X153679636Y-87917438D02*
X153822493Y-87869819D01*
X153822493Y-87869819D02*
X153917731Y-87869819D01*
X153917731Y-87869819D02*
X154060588Y-87917438D01*
X154060588Y-87917438D02*
X154108207Y-87965057D01*
X155012969Y-88869819D02*
X154536779Y-88869819D01*
X154536779Y-88869819D02*
X154536779Y-87869819D01*
X155346303Y-88869819D02*
X155346303Y-87869819D01*
X155917731Y-88869819D02*
X155489160Y-88298390D01*
X155917731Y-87869819D02*
X155346303Y-88441247D01*
X133882057Y-95929887D02*
X134524914Y-95929887D01*
X134524914Y-95929887D02*
X134653485Y-95972744D01*
X134653485Y-95972744D02*
X134739200Y-96058458D01*
X134739200Y-96058458D02*
X134782057Y-96187030D01*
X134782057Y-96187030D02*
X134782057Y-96272744D01*
X134782057Y-95072744D02*
X134782057Y-95501316D01*
X134782057Y-95501316D02*
X133882057Y-95501316D01*
X134696342Y-94258459D02*
X134739200Y-94301316D01*
X134739200Y-94301316D02*
X134782057Y-94429888D01*
X134782057Y-94429888D02*
X134782057Y-94515602D01*
X134782057Y-94515602D02*
X134739200Y-94644173D01*
X134739200Y-94644173D02*
X134653485Y-94729888D01*
X134653485Y-94729888D02*
X134567771Y-94772745D01*
X134567771Y-94772745D02*
X134396342Y-94815602D01*
X134396342Y-94815602D02*
X134267771Y-94815602D01*
X134267771Y-94815602D02*
X134096342Y-94772745D01*
X134096342Y-94772745D02*
X134010628Y-94729888D01*
X134010628Y-94729888D02*
X133924914Y-94644173D01*
X133924914Y-94644173D02*
X133882057Y-94515602D01*
X133882057Y-94515602D02*
X133882057Y-94429888D01*
X133882057Y-94429888D02*
X133924914Y-94301316D01*
X133924914Y-94301316D02*
X133967771Y-94258459D01*
X133882057Y-93615602D02*
X134524914Y-93615602D01*
X134524914Y-93615602D02*
X134653485Y-93658459D01*
X134653485Y-93658459D02*
X134739200Y-93744173D01*
X134739200Y-93744173D02*
X134782057Y-93872745D01*
X134782057Y-93872745D02*
X134782057Y-93958459D01*
X134782057Y-92758459D02*
X134782057Y-93187031D01*
X134782057Y-93187031D02*
X133882057Y-93187031D01*
X134696342Y-91944174D02*
X134739200Y-91987031D01*
X134739200Y-91987031D02*
X134782057Y-92115603D01*
X134782057Y-92115603D02*
X134782057Y-92201317D01*
X134782057Y-92201317D02*
X134739200Y-92329888D01*
X134739200Y-92329888D02*
X134653485Y-92415603D01*
X134653485Y-92415603D02*
X134567771Y-92458460D01*
X134567771Y-92458460D02*
X134396342Y-92501317D01*
X134396342Y-92501317D02*
X134267771Y-92501317D01*
X134267771Y-92501317D02*
X134096342Y-92458460D01*
X134096342Y-92458460D02*
X134010628Y-92415603D01*
X134010628Y-92415603D02*
X133924914Y-92329888D01*
X133924914Y-92329888D02*
X133882057Y-92201317D01*
X133882057Y-92201317D02*
X133882057Y-92115603D01*
X133882057Y-92115603D02*
X133924914Y-91987031D01*
X133924914Y-91987031D02*
X133967771Y-91944174D01*
X133882057Y-91301317D02*
X134524914Y-91301317D01*
X134524914Y-91301317D02*
X134653485Y-91344174D01*
X134653485Y-91344174D02*
X134739200Y-91429888D01*
X134739200Y-91429888D02*
X134782057Y-91558460D01*
X134782057Y-91558460D02*
X134782057Y-91644174D01*
X134782057Y-90444174D02*
X134782057Y-90872746D01*
X134782057Y-90872746D02*
X133882057Y-90872746D01*
X134696342Y-89629889D02*
X134739200Y-89672746D01*
X134739200Y-89672746D02*
X134782057Y-89801318D01*
X134782057Y-89801318D02*
X134782057Y-89887032D01*
X134782057Y-89887032D02*
X134739200Y-90015603D01*
X134739200Y-90015603D02*
X134653485Y-90101318D01*
X134653485Y-90101318D02*
X134567771Y-90144175D01*
X134567771Y-90144175D02*
X134396342Y-90187032D01*
X134396342Y-90187032D02*
X134267771Y-90187032D01*
X134267771Y-90187032D02*
X134096342Y-90144175D01*
X134096342Y-90144175D02*
X134010628Y-90101318D01*
X134010628Y-90101318D02*
X133924914Y-90015603D01*
X133924914Y-90015603D02*
X133882057Y-89887032D01*
X133882057Y-89887032D02*
X133882057Y-89801318D01*
X133882057Y-89801318D02*
X133924914Y-89672746D01*
X133924914Y-89672746D02*
X133967771Y-89629889D01*
X133882057Y-88987032D02*
X134524914Y-88987032D01*
X134524914Y-88987032D02*
X134653485Y-89029889D01*
X134653485Y-89029889D02*
X134739200Y-89115603D01*
X134739200Y-89115603D02*
X134782057Y-89244175D01*
X134782057Y-89244175D02*
X134782057Y-89329889D01*
X134782057Y-88129889D02*
X134782057Y-88558461D01*
X134782057Y-88558461D02*
X133882057Y-88558461D01*
X134696342Y-87315604D02*
X134739200Y-87358461D01*
X134739200Y-87358461D02*
X134782057Y-87487033D01*
X134782057Y-87487033D02*
X134782057Y-87572747D01*
X134782057Y-87572747D02*
X134739200Y-87701318D01*
X134739200Y-87701318D02*
X134653485Y-87787033D01*
X134653485Y-87787033D02*
X134567771Y-87829890D01*
X134567771Y-87829890D02*
X134396342Y-87872747D01*
X134396342Y-87872747D02*
X134267771Y-87872747D01*
X134267771Y-87872747D02*
X134096342Y-87829890D01*
X134096342Y-87829890D02*
X134010628Y-87787033D01*
X134010628Y-87787033D02*
X133924914Y-87701318D01*
X133924914Y-87701318D02*
X133882057Y-87572747D01*
X133882057Y-87572747D02*
X133882057Y-87487033D01*
X133882057Y-87487033D02*
X133924914Y-87358461D01*
X133924914Y-87358461D02*
X133967771Y-87315604D01*
D11*
%TO.C,U2*%
X161032342Y-88056265D02*
X161079961Y-88103884D01*
X161079961Y-88103884D02*
X161127580Y-88199122D01*
X161127580Y-88199122D02*
X161127580Y-88437217D01*
X161127580Y-88437217D02*
X161079961Y-88532455D01*
X161079961Y-88532455D02*
X161032342Y-88580074D01*
X161032342Y-88580074D02*
X160937104Y-88627693D01*
X160937104Y-88627693D02*
X160841866Y-88627693D01*
X160841866Y-88627693D02*
X160699009Y-88580074D01*
X160699009Y-88580074D02*
X160127580Y-88008646D01*
X160127580Y-88008646D02*
X160127580Y-88627693D01*
D10*
X161130180Y-86279636D02*
X160892085Y-86279636D01*
X160987323Y-86041541D02*
X160892085Y-86279636D01*
X160892085Y-86279636D02*
X160987323Y-86517731D01*
X160701609Y-86136779D02*
X160892085Y-86279636D01*
X160892085Y-86279636D02*
X160701609Y-86422493D01*
D11*
X160127580Y-96127693D02*
X160127580Y-95556265D01*
X160127580Y-95841979D02*
X161127580Y-95841979D01*
X161127580Y-95841979D02*
X160984723Y-95746741D01*
X160984723Y-95746741D02*
X160889485Y-95651503D01*
X160889485Y-95651503D02*
X160841866Y-95556265D01*
X161127580Y-96746741D02*
X161127580Y-96841979D01*
X161127580Y-96841979D02*
X161079961Y-96937217D01*
X161079961Y-96937217D02*
X161032342Y-96984836D01*
X161032342Y-96984836D02*
X160937104Y-97032455D01*
X160937104Y-97032455D02*
X160746628Y-97080074D01*
X160746628Y-97080074D02*
X160508533Y-97080074D01*
X160508533Y-97080074D02*
X160318057Y-97032455D01*
X160318057Y-97032455D02*
X160222819Y-96984836D01*
X160222819Y-96984836D02*
X160175200Y-96937217D01*
X160175200Y-96937217D02*
X160127580Y-96841979D01*
X160127580Y-96841979D02*
X160127580Y-96746741D01*
X160127580Y-96746741D02*
X160175200Y-96651503D01*
X160175200Y-96651503D02*
X160222819Y-96603884D01*
X160222819Y-96603884D02*
X160318057Y-96556265D01*
X160318057Y-96556265D02*
X160508533Y-96508646D01*
X160508533Y-96508646D02*
X160746628Y-96508646D01*
X160746628Y-96508646D02*
X160937104Y-96556265D01*
X160937104Y-96556265D02*
X161032342Y-96603884D01*
X161032342Y-96603884D02*
X161079961Y-96651503D01*
X161079961Y-96651503D02*
X161127580Y-96746741D01*
D12*
%TO.C,R3*%
X143820000Y-90353641D02*
X143820000Y-90046359D01*
X144580000Y-90353641D02*
X144580000Y-90046359D01*
%TO.C,JP2*%
X156250000Y-95500000D02*
X156250000Y-94900000D01*
X156950000Y-94200000D02*
X158350000Y-94200000D01*
X158350000Y-96200000D02*
X156950000Y-96200000D01*
X159050000Y-94900000D02*
X159050000Y-95500000D01*
X156950000Y-94200000D02*
G75*
G03*
X156250000Y-94900000I-1J-699999D01*
G01*
X156250000Y-95500000D02*
G75*
G03*
X156950000Y-96200000I699999J-1D01*
G01*
X159050000Y-94900000D02*
G75*
G03*
X158350000Y-94200000I-700000J0D01*
G01*
X158350000Y-96200000D02*
G75*
G03*
X159050000Y-95500000I0J700000D01*
G01*
%TO.C,D2*%
X148085000Y-97345000D02*
X148085000Y-95875000D01*
X148085000Y-95875000D02*
X145800000Y-95875000D01*
X145800000Y-97345000D02*
X148085000Y-97345000D01*
%TO.C,D1*%
X148085000Y-99135000D02*
X148085000Y-97665000D01*
X148085000Y-97665000D02*
X145800000Y-97665000D01*
X145800000Y-99135000D02*
X148085000Y-99135000D01*
%TO.C,U1*%
X145490000Y-89690000D02*
X146215000Y-89690000D01*
X150710000Y-90415000D02*
X150710000Y-89690000D01*
X145490000Y-90415000D02*
X145490000Y-89690000D01*
X150710000Y-94185000D02*
X150710000Y-94910000D01*
X145490000Y-94185000D02*
X145490000Y-94910000D01*
X150710000Y-94910000D02*
X149985000Y-94910000D01*
X145490000Y-94910000D02*
X146215000Y-94910000D01*
%TO.C,C2*%
X143440000Y-88027836D02*
X143440000Y-87812164D01*
X144160000Y-88027836D02*
X144160000Y-87812164D01*
%TO.C,R6*%
X144213641Y-96960000D02*
X143906359Y-96960000D01*
X144213641Y-96200000D02*
X143906359Y-96200000D01*
%TO.C,P1*%
X135900000Y-87100000D02*
X133900000Y-87100000D01*
X132000000Y-87100000D02*
X130100000Y-87100000D01*
X130100000Y-87100000D02*
X130100000Y-96500000D01*
X135900000Y-96500000D02*
X133900000Y-96500000D01*
X132000000Y-96500000D02*
X130100000Y-96500000D01*
%TO.C,C1*%
X144440000Y-88027836D02*
X144440000Y-87812164D01*
X145160000Y-88027836D02*
X145160000Y-87812164D01*
%TO.C,JP1*%
X156250000Y-88700000D02*
X156250000Y-88100000D01*
X156950000Y-87400000D02*
X158350000Y-87400000D01*
X158350000Y-89400000D02*
X156950000Y-89400000D01*
X159050000Y-88100000D02*
X159050000Y-88700000D01*
X156950000Y-87400000D02*
G75*
G03*
X156250000Y-88100000I-1J-699999D01*
G01*
X156250000Y-88700000D02*
G75*
G03*
X156950000Y-89400000I699999J-1D01*
G01*
X159050000Y-88100000D02*
G75*
G03*
X158350000Y-87400000I-700000J0D01*
G01*
X158350000Y-89400000D02*
G75*
G03*
X159050000Y-88700000I0J700000D01*
G01*
%TO.C,R5*%
X144213641Y-98760000D02*
X143906359Y-98760000D01*
X144213641Y-98000000D02*
X143906359Y-98000000D01*
%TO.C,R4*%
X143820000Y-92353641D02*
X143820000Y-92046359D01*
X144580000Y-92353641D02*
X144580000Y-92046359D01*
%TO.C,C4*%
X146440000Y-87827836D02*
X146440000Y-87612164D01*
X147160000Y-87827836D02*
X147160000Y-87612164D01*
%TO.C,C3*%
X145440000Y-87827836D02*
X145440000Y-87612164D01*
X146160000Y-87827836D02*
X146160000Y-87612164D01*
%TO.C,R1*%
X140646359Y-90220000D02*
X140953641Y-90220000D01*
X140646359Y-90980000D02*
X140953641Y-90980000D01*
%TO.C,R2*%
X140646359Y-93220000D02*
X140953641Y-93220000D01*
X140646359Y-93980000D02*
X140953641Y-93980000D01*
%TO.C,U2*%
X167000000Y-86300000D02*
X167000000Y-97300000D01*
D11*
X161500000Y-85800000D02*
X166500000Y-85800000D01*
X166500000Y-85800000D02*
X166500000Y-84800000D01*
X166500000Y-84800000D02*
X161500000Y-84800000D01*
X161500000Y-84800000D02*
X161500000Y-85800000D01*
X166500000Y-97800000D02*
X161500000Y-97800000D01*
X161500000Y-97800000D02*
X161500000Y-98800000D01*
X161500000Y-98800000D02*
X166500000Y-98800000D01*
X166500000Y-98800000D02*
X166500000Y-97800000D01*
%TD*%
%LPC*%
D13*
%TO.C,R3*%
X144200000Y-90710000D03*
X144200000Y-89690000D03*
%TD*%
D14*
%TO.C,JP2*%
X157000000Y-95200000D03*
D15*
X158300000Y-95200000D03*
%TD*%
D16*
%TO.C,D2*%
X147387500Y-96610000D03*
X145812500Y-96610000D03*
%TD*%
%TO.C,D1*%
X147387500Y-98400000D03*
X145812500Y-98400000D03*
%TD*%
D17*
%TO.C,U1*%
X149600000Y-89850000D03*
X149100000Y-89850000D03*
X148600000Y-89850000D03*
X148100000Y-89850000D03*
X147600000Y-89850000D03*
X147100000Y-89850000D03*
X146600000Y-89850000D03*
D18*
X145650000Y-90800000D03*
X145650000Y-91300000D03*
X145650000Y-91800000D03*
X145650000Y-92300000D03*
X145650000Y-92800000D03*
X145650000Y-93300000D03*
X145650000Y-93800000D03*
D17*
X146600000Y-94750000D03*
X147100000Y-94750000D03*
X147600000Y-94750000D03*
X148100000Y-94750000D03*
X148600000Y-94750000D03*
X149100000Y-94750000D03*
X149600000Y-94750000D03*
D18*
X150550000Y-93800000D03*
X150550000Y-93300000D03*
X150550000Y-92800000D03*
X150550000Y-92300000D03*
X150550000Y-91800000D03*
X150550000Y-91300000D03*
X150550000Y-90800000D03*
D19*
X148100000Y-92300000D03*
%TD*%
D20*
%TO.C,C2*%
X143800000Y-88400000D03*
X143800000Y-87440000D03*
%TD*%
D21*
%TO.C,R6*%
X144570000Y-96580000D03*
X143550000Y-96580000D03*
%TD*%
D22*
%TO.C,P1*%
X136600000Y-88910000D03*
X136600000Y-94690000D03*
D23*
X138045000Y-88550000D03*
X138045000Y-89350000D03*
D24*
X138045000Y-90550000D03*
X138045000Y-91550000D03*
X138045000Y-92050000D03*
X138045000Y-93050000D03*
D23*
X138045000Y-94250000D03*
X138045000Y-95050000D03*
X138045000Y-95050000D03*
X138045000Y-94250000D03*
D24*
X138045000Y-93550000D03*
X138045000Y-92550000D03*
X138045000Y-91050000D03*
X138045000Y-90050000D03*
D23*
X138045000Y-89350000D03*
X138045000Y-88550000D03*
D25*
X137130000Y-87480000D03*
D26*
X132950000Y-87480000D03*
D25*
X137130000Y-96120000D03*
D26*
X132950000Y-96120000D03*
%TD*%
D20*
%TO.C,C1*%
X144800000Y-88400000D03*
X144800000Y-87440000D03*
%TD*%
D14*
%TO.C,JP1*%
X157000000Y-88400000D03*
D15*
X158300000Y-88400000D03*
%TD*%
D21*
%TO.C,R5*%
X144570000Y-98380000D03*
X143550000Y-98380000D03*
%TD*%
D13*
%TO.C,R4*%
X144200000Y-92710000D03*
X144200000Y-91690000D03*
%TD*%
D20*
%TO.C,C4*%
X146800000Y-88200000D03*
X146800000Y-87240000D03*
%TD*%
%TO.C,C3*%
X145800000Y-88200000D03*
X145800000Y-87240000D03*
%TD*%
D27*
%TO.C,R1*%
X140290000Y-90600000D03*
X141310000Y-90600000D03*
%TD*%
%TO.C,R2*%
X140290000Y-93600000D03*
X141310000Y-93600000D03*
%TD*%
D28*
%TO.C,U2*%
X164000000Y-88300000D03*
X164000000Y-90300000D03*
X164000000Y-92300000D03*
X164000000Y-94300000D03*
X164000000Y-96300000D03*
X164000000Y-85300000D03*
X164000000Y-98300000D03*
%TD*%
%LPD*%
M02*
