%TF.GenerationSoftware,KiCad,Pcbnew,7.0.5-0*%
%TF.CreationDate,2023-07-20T10:36:23-05:00*%
%TF.ProjectId,DCSDv2_CP2102N,44435344-7632-45f4-9350-323130324e2e,rev?*%
%TF.SameCoordinates,Original*%
%TF.FileFunction,Legend,Top*%
%TF.FilePolarity,Positive*%
%FSLAX46Y46*%
G04 Gerber Fmt 4.6, Leading zero omitted, Abs format (unit mm)*
G04 Created by KiCad (PCBNEW 7.0.5-0) date 2023-07-20 10:36:23*
%MOMM*%
%LPD*%
G01*
G04 APERTURE LIST*
%ADD10C,0.150000*%
%ADD11C,0.100000*%
%ADD12C,0.120000*%
%ADD13R,5.000000X1.000000*%
%ADD14C,0.650000*%
%ADD15O,1.600000X1.000000*%
%ADD16O,2.100000X1.000000*%
G04 APERTURE END LIST*
D10*
X143380952Y-100914580D02*
X143333333Y-100962200D01*
X143333333Y-100962200D02*
X143190476Y-101009819D01*
X143190476Y-101009819D02*
X143095238Y-101009819D01*
X143095238Y-101009819D02*
X142952381Y-100962200D01*
X142952381Y-100962200D02*
X142857143Y-100866961D01*
X142857143Y-100866961D02*
X142809524Y-100771723D01*
X142809524Y-100771723D02*
X142761905Y-100581247D01*
X142761905Y-100581247D02*
X142761905Y-100438390D01*
X142761905Y-100438390D02*
X142809524Y-100247914D01*
X142809524Y-100247914D02*
X142857143Y-100152676D01*
X142857143Y-100152676D02*
X142952381Y-100057438D01*
X142952381Y-100057438D02*
X143095238Y-100009819D01*
X143095238Y-100009819D02*
X143190476Y-100009819D01*
X143190476Y-100009819D02*
X143333333Y-100057438D01*
X143333333Y-100057438D02*
X143380952Y-100105057D01*
X143809524Y-101009819D02*
X143809524Y-100009819D01*
X143809524Y-100009819D02*
X144190476Y-100009819D01*
X144190476Y-100009819D02*
X144285714Y-100057438D01*
X144285714Y-100057438D02*
X144333333Y-100105057D01*
X144333333Y-100105057D02*
X144380952Y-100200295D01*
X144380952Y-100200295D02*
X144380952Y-100343152D01*
X144380952Y-100343152D02*
X144333333Y-100438390D01*
X144333333Y-100438390D02*
X144285714Y-100486009D01*
X144285714Y-100486009D02*
X144190476Y-100533628D01*
X144190476Y-100533628D02*
X143809524Y-100533628D01*
X144761905Y-100105057D02*
X144809524Y-100057438D01*
X144809524Y-100057438D02*
X144904762Y-100009819D01*
X144904762Y-100009819D02*
X145142857Y-100009819D01*
X145142857Y-100009819D02*
X145238095Y-100057438D01*
X145238095Y-100057438D02*
X145285714Y-100105057D01*
X145285714Y-100105057D02*
X145333333Y-100200295D01*
X145333333Y-100200295D02*
X145333333Y-100295533D01*
X145333333Y-100295533D02*
X145285714Y-100438390D01*
X145285714Y-100438390D02*
X144714286Y-101009819D01*
X144714286Y-101009819D02*
X145333333Y-101009819D01*
X146285714Y-101009819D02*
X145714286Y-101009819D01*
X146000000Y-101009819D02*
X146000000Y-100009819D01*
X146000000Y-100009819D02*
X145904762Y-100152676D01*
X145904762Y-100152676D02*
X145809524Y-100247914D01*
X145809524Y-100247914D02*
X145714286Y-100295533D01*
X146904762Y-100009819D02*
X147000000Y-100009819D01*
X147000000Y-100009819D02*
X147095238Y-100057438D01*
X147095238Y-100057438D02*
X147142857Y-100105057D01*
X147142857Y-100105057D02*
X147190476Y-100200295D01*
X147190476Y-100200295D02*
X147238095Y-100390771D01*
X147238095Y-100390771D02*
X147238095Y-100628866D01*
X147238095Y-100628866D02*
X147190476Y-100819342D01*
X147190476Y-100819342D02*
X147142857Y-100914580D01*
X147142857Y-100914580D02*
X147095238Y-100962200D01*
X147095238Y-100962200D02*
X147000000Y-101009819D01*
X147000000Y-101009819D02*
X146904762Y-101009819D01*
X146904762Y-101009819D02*
X146809524Y-100962200D01*
X146809524Y-100962200D02*
X146761905Y-100914580D01*
X146761905Y-100914580D02*
X146714286Y-100819342D01*
X146714286Y-100819342D02*
X146666667Y-100628866D01*
X146666667Y-100628866D02*
X146666667Y-100390771D01*
X146666667Y-100390771D02*
X146714286Y-100200295D01*
X146714286Y-100200295D02*
X146761905Y-100105057D01*
X146761905Y-100105057D02*
X146809524Y-100057438D01*
X146809524Y-100057438D02*
X146904762Y-100009819D01*
X147619048Y-100105057D02*
X147666667Y-100057438D01*
X147666667Y-100057438D02*
X147761905Y-100009819D01*
X147761905Y-100009819D02*
X148000000Y-100009819D01*
X148000000Y-100009819D02*
X148095238Y-100057438D01*
X148095238Y-100057438D02*
X148142857Y-100105057D01*
X148142857Y-100105057D02*
X148190476Y-100200295D01*
X148190476Y-100200295D02*
X148190476Y-100295533D01*
X148190476Y-100295533D02*
X148142857Y-100438390D01*
X148142857Y-100438390D02*
X147571429Y-101009819D01*
X147571429Y-101009819D02*
X148190476Y-101009819D01*
X148619048Y-101009819D02*
X148619048Y-100009819D01*
X148619048Y-100009819D02*
X149190476Y-101009819D01*
X149190476Y-101009819D02*
X149190476Y-100009819D01*
X150428572Y-101009819D02*
X150428572Y-100009819D01*
X150428572Y-100009819D02*
X150666667Y-100009819D01*
X150666667Y-100009819D02*
X150809524Y-100057438D01*
X150809524Y-100057438D02*
X150904762Y-100152676D01*
X150904762Y-100152676D02*
X150952381Y-100247914D01*
X150952381Y-100247914D02*
X151000000Y-100438390D01*
X151000000Y-100438390D02*
X151000000Y-100581247D01*
X151000000Y-100581247D02*
X150952381Y-100771723D01*
X150952381Y-100771723D02*
X150904762Y-100866961D01*
X150904762Y-100866961D02*
X150809524Y-100962200D01*
X150809524Y-100962200D02*
X150666667Y-101009819D01*
X150666667Y-101009819D02*
X150428572Y-101009819D01*
X152000000Y-100914580D02*
X151952381Y-100962200D01*
X151952381Y-100962200D02*
X151809524Y-101009819D01*
X151809524Y-101009819D02*
X151714286Y-101009819D01*
X151714286Y-101009819D02*
X151571429Y-100962200D01*
X151571429Y-100962200D02*
X151476191Y-100866961D01*
X151476191Y-100866961D02*
X151428572Y-100771723D01*
X151428572Y-100771723D02*
X151380953Y-100581247D01*
X151380953Y-100581247D02*
X151380953Y-100438390D01*
X151380953Y-100438390D02*
X151428572Y-100247914D01*
X151428572Y-100247914D02*
X151476191Y-100152676D01*
X151476191Y-100152676D02*
X151571429Y-100057438D01*
X151571429Y-100057438D02*
X151714286Y-100009819D01*
X151714286Y-100009819D02*
X151809524Y-100009819D01*
X151809524Y-100009819D02*
X151952381Y-100057438D01*
X151952381Y-100057438D02*
X152000000Y-100105057D01*
X153952382Y-100343152D02*
X153190477Y-100628866D01*
X153190477Y-100628866D02*
X153952382Y-100914580D01*
X154428572Y-100628866D02*
X155190477Y-100628866D01*
X155666667Y-100343152D02*
X156428572Y-100628866D01*
X156428572Y-100628866D02*
X155666667Y-100914580D01*
X157666667Y-100009819D02*
X157666667Y-100819342D01*
X157666667Y-100819342D02*
X157714286Y-100914580D01*
X157714286Y-100914580D02*
X157761905Y-100962200D01*
X157761905Y-100962200D02*
X157857143Y-101009819D01*
X157857143Y-101009819D02*
X158047619Y-101009819D01*
X158047619Y-101009819D02*
X158142857Y-100962200D01*
X158142857Y-100962200D02*
X158190476Y-100914580D01*
X158190476Y-100914580D02*
X158238095Y-100819342D01*
X158238095Y-100819342D02*
X158238095Y-100009819D01*
X158666667Y-100962200D02*
X158809524Y-101009819D01*
X158809524Y-101009819D02*
X159047619Y-101009819D01*
X159047619Y-101009819D02*
X159142857Y-100962200D01*
X159142857Y-100962200D02*
X159190476Y-100914580D01*
X159190476Y-100914580D02*
X159238095Y-100819342D01*
X159238095Y-100819342D02*
X159238095Y-100724104D01*
X159238095Y-100724104D02*
X159190476Y-100628866D01*
X159190476Y-100628866D02*
X159142857Y-100581247D01*
X159142857Y-100581247D02*
X159047619Y-100533628D01*
X159047619Y-100533628D02*
X158857143Y-100486009D01*
X158857143Y-100486009D02*
X158761905Y-100438390D01*
X158761905Y-100438390D02*
X158714286Y-100390771D01*
X158714286Y-100390771D02*
X158666667Y-100295533D01*
X158666667Y-100295533D02*
X158666667Y-100200295D01*
X158666667Y-100200295D02*
X158714286Y-100105057D01*
X158714286Y-100105057D02*
X158761905Y-100057438D01*
X158761905Y-100057438D02*
X158857143Y-100009819D01*
X158857143Y-100009819D02*
X159095238Y-100009819D01*
X159095238Y-100009819D02*
X159238095Y-100057438D01*
X160000000Y-100486009D02*
X160142857Y-100533628D01*
X160142857Y-100533628D02*
X160190476Y-100581247D01*
X160190476Y-100581247D02*
X160238095Y-100676485D01*
X160238095Y-100676485D02*
X160238095Y-100819342D01*
X160238095Y-100819342D02*
X160190476Y-100914580D01*
X160190476Y-100914580D02*
X160142857Y-100962200D01*
X160142857Y-100962200D02*
X160047619Y-101009819D01*
X160047619Y-101009819D02*
X159666667Y-101009819D01*
X159666667Y-101009819D02*
X159666667Y-100009819D01*
X159666667Y-100009819D02*
X160000000Y-100009819D01*
X160000000Y-100009819D02*
X160095238Y-100057438D01*
X160095238Y-100057438D02*
X160142857Y-100105057D01*
X160142857Y-100105057D02*
X160190476Y-100200295D01*
X160190476Y-100200295D02*
X160190476Y-100295533D01*
X160190476Y-100295533D02*
X160142857Y-100390771D01*
X160142857Y-100390771D02*
X160095238Y-100438390D01*
X160095238Y-100438390D02*
X160000000Y-100486009D01*
X160000000Y-100486009D02*
X159666667Y-100486009D01*
X150071429Y-101953152D02*
X150309524Y-102619819D01*
X150309524Y-102619819D02*
X150547619Y-101953152D01*
X151452381Y-102619819D02*
X150880953Y-102619819D01*
X151166667Y-102619819D02*
X151166667Y-101619819D01*
X151166667Y-101619819D02*
X151071429Y-101762676D01*
X151071429Y-101762676D02*
X150976191Y-101857914D01*
X150976191Y-101857914D02*
X150880953Y-101905533D01*
X151880953Y-102524580D02*
X151928572Y-102572200D01*
X151928572Y-102572200D02*
X151880953Y-102619819D01*
X151880953Y-102619819D02*
X151833334Y-102572200D01*
X151833334Y-102572200D02*
X151880953Y-102524580D01*
X151880953Y-102524580D02*
X151880953Y-102619819D01*
X152880952Y-102619819D02*
X152309524Y-102619819D01*
X152595238Y-102619819D02*
X152595238Y-101619819D01*
X152595238Y-101619819D02*
X152500000Y-101762676D01*
X152500000Y-101762676D02*
X152404762Y-101857914D01*
X152404762Y-101857914D02*
X152309524Y-101905533D01*
D11*
%TO.C,U2*%
X138441467Y-95543734D02*
X138393848Y-95496115D01*
X138393848Y-95496115D02*
X138346229Y-95400877D01*
X138346229Y-95400877D02*
X138346229Y-95162782D01*
X138346229Y-95162782D02*
X138393848Y-95067544D01*
X138393848Y-95067544D02*
X138441467Y-95019925D01*
X138441467Y-95019925D02*
X138536705Y-94972306D01*
X138536705Y-94972306D02*
X138631943Y-94972306D01*
X138631943Y-94972306D02*
X138774800Y-95019925D01*
X138774800Y-95019925D02*
X139346229Y-95591353D01*
X139346229Y-95591353D02*
X139346229Y-94972306D01*
D10*
X138343629Y-97320363D02*
X138581724Y-97320363D01*
X138486486Y-97558458D02*
X138581724Y-97320363D01*
X138581724Y-97320363D02*
X138486486Y-97082268D01*
X138772200Y-97463220D02*
X138581724Y-97320363D01*
X138581724Y-97320363D02*
X138772200Y-97177506D01*
D11*
X139346229Y-87472306D02*
X139346229Y-88043734D01*
X139346229Y-87758020D02*
X138346229Y-87758020D01*
X138346229Y-87758020D02*
X138489086Y-87853258D01*
X138489086Y-87853258D02*
X138584324Y-87948496D01*
X138584324Y-87948496D02*
X138631943Y-88043734D01*
X138346229Y-86853258D02*
X138346229Y-86758020D01*
X138346229Y-86758020D02*
X138393848Y-86662782D01*
X138393848Y-86662782D02*
X138441467Y-86615163D01*
X138441467Y-86615163D02*
X138536705Y-86567544D01*
X138536705Y-86567544D02*
X138727181Y-86519925D01*
X138727181Y-86519925D02*
X138965276Y-86519925D01*
X138965276Y-86519925D02*
X139155752Y-86567544D01*
X139155752Y-86567544D02*
X139250990Y-86615163D01*
X139250990Y-86615163D02*
X139298610Y-86662782D01*
X139298610Y-86662782D02*
X139346229Y-86758020D01*
X139346229Y-86758020D02*
X139346229Y-86853258D01*
X139346229Y-86853258D02*
X139298610Y-86948496D01*
X139298610Y-86948496D02*
X139250990Y-86996115D01*
X139250990Y-86996115D02*
X139155752Y-87043734D01*
X139155752Y-87043734D02*
X138965276Y-87091353D01*
X138965276Y-87091353D02*
X138727181Y-87091353D01*
X138727181Y-87091353D02*
X138536705Y-87043734D01*
X138536705Y-87043734D02*
X138441467Y-86996115D01*
X138441467Y-86996115D02*
X138393848Y-86948496D01*
X138393848Y-86948496D02*
X138346229Y-86853258D01*
D12*
X132473810Y-97300000D02*
X132473810Y-86300000D01*
D11*
X137973810Y-97800000D02*
X132973810Y-97800000D01*
X132973810Y-97800000D02*
X132973810Y-98800000D01*
X132973810Y-98800000D02*
X137973810Y-98800000D01*
X137973810Y-98800000D02*
X137973810Y-97800000D01*
X132973810Y-85800000D02*
X137973810Y-85800000D01*
X137973810Y-85800000D02*
X137973810Y-84800000D01*
X137973810Y-84800000D02*
X132973810Y-84800000D01*
X132973810Y-84800000D02*
X132973810Y-85800000D01*
%TD*%
%LPC*%
D13*
%TO.C,U2*%
X135473810Y-95300000D03*
X135473810Y-93300000D03*
X135473810Y-91300000D03*
X135473810Y-89300000D03*
X135473810Y-87300000D03*
X135473810Y-98300000D03*
X135473810Y-85300000D03*
%TD*%
D14*
%TO.C,P1*%
X162873810Y-88910000D03*
X162873810Y-94690000D03*
D15*
X166523810Y-87480000D03*
D16*
X162343810Y-87480000D03*
D15*
X166523810Y-96120000D03*
D16*
X162343810Y-96120000D03*
%TD*%
%LPD*%
M02*
