M48
; DRILL file {KiCad 7.0.5-0} date 2023 July 07, Friday 09:12:39
; FORMAT={-:-/ absolute / inch / decimal}
; #@! TF.CreationDate,2023-07-07T09:12:39-05:00
; #@! TF.GenerationSoftware,Kicad,Pcbnew,7.0.5-0
; #@! TF.FileFunction,Plated,1,2,PTH
FMAT,2
INCH
; #@! TA.AperFunction,Plated,PTH,ViaDrill
T1C0.0157
; #@! TA.AperFunction,Plated,PTH,ComponentDrill
T2C0.0236
%
G90
G05
T1
X5.4803Y-3.4803
X5.4803Y-3.748
X5.5404Y-3.5333
X5.5436Y-3.717
X5.6535Y-3.8346
X5.6614Y-3.4094
X5.6821Y-3.685
X5.7008Y-3.4094
X5.7323Y-3.5039
X5.7402Y-3.4016
X5.7766Y-3.4016
X5.7953Y-3.5906
X5.7953Y-3.6693
X5.8346Y-3.6299
X5.8576Y-3.496
X5.874Y-3.5906
X5.874Y-3.6693
X6.2756Y-3.596
X6.3228Y-3.5197
X6.3228Y-3.7087
X6.3386Y-3.748
X6.3404Y-3.6735
T2
G00X5.2461Y-3.4441
M15
G01X5.2224Y-3.4441
M16
G05
G00X5.2461Y-3.7843
M15
G01X5.2224Y-3.7843
M16
G05
G00X5.4205Y-3.4441
M15
G01X5.3772Y-3.4441
M16
G05
G00X5.4205Y-3.7843
M15
G01X5.3772Y-3.7843
M16
G05
T0
M30
