%TF.GenerationSoftware,KiCad,Pcbnew,7.0.5-0*%
%TF.CreationDate,2023-07-07T09:12:39-05:00*%
%TF.ProjectId,DCSDv2_CP2102N,44435344-7632-45f4-9350-323130324e2e,rev?*%
%TF.SameCoordinates,Original*%
%TF.FileFunction,Paste,Top*%
%TF.FilePolarity,Positive*%
%FSLAX46Y46*%
G04 Gerber Fmt 4.6, Leading zero omitted, Abs format (unit mm)*
G04 Created by KiCad (PCBNEW 7.0.5-0) date 2023-07-07 09:12:39*
%MOMM*%
%LPD*%
G01*
G04 APERTURE LIST*
G04 Aperture macros list*
%AMRoundRect*
0 Rectangle with rounded corners*
0 $1 Rounding radius*
0 $2 $3 $4 $5 $6 $7 $8 $9 X,Y pos of 4 corners*
0 Add a 4 corners polygon primitive as box body*
4,1,4,$2,$3,$4,$5,$6,$7,$8,$9,$2,$3,0*
0 Add four circle primitives for the rounded corners*
1,1,$1+$1,$2,$3*
1,1,$1+$1,$4,$5*
1,1,$1+$1,$6,$7*
1,1,$1+$1,$8,$9*
0 Add four rect primitives between the rounded corners*
20,1,$1+$1,$2,$3,$4,$5,0*
20,1,$1+$1,$4,$5,$6,$7,0*
20,1,$1+$1,$6,$7,$8,$9,0*
20,1,$1+$1,$8,$9,$2,$3,0*%
G04 Aperture macros list end*
%ADD10RoundRect,0.135000X0.185000X-0.135000X0.185000X0.135000X-0.185000X0.135000X-0.185000X-0.135000X0*%
%ADD11RoundRect,0.218750X0.218750X0.256250X-0.218750X0.256250X-0.218750X-0.256250X0.218750X-0.256250X0*%
%ADD12RoundRect,0.225000X-0.225000X0.225000X-0.225000X-0.225000X0.225000X-0.225000X0.225000X0.225000X0*%
%ADD13RoundRect,0.062500X-0.062500X0.337500X-0.062500X-0.337500X0.062500X-0.337500X0.062500X0.337500X0*%
%ADD14RoundRect,0.062500X-0.337500X0.062500X-0.337500X-0.062500X0.337500X-0.062500X0.337500X0.062500X0*%
%ADD15RoundRect,0.140000X0.170000X-0.140000X0.170000X0.140000X-0.170000X0.140000X-0.170000X-0.140000X0*%
%ADD16RoundRect,0.135000X0.135000X0.185000X-0.135000X0.185000X-0.135000X-0.185000X0.135000X-0.185000X0*%
%ADD17R,1.450000X0.600000*%
%ADD18R,1.450000X0.300000*%
%ADD19RoundRect,0.135000X-0.135000X-0.185000X0.135000X-0.185000X0.135000X0.185000X-0.135000X0.185000X0*%
%ADD20R,5.000000X1.000000*%
G04 APERTURE END LIST*
D10*
%TO.C,R3*%
X144200000Y-90710000D03*
X144200000Y-89690000D03*
%TD*%
D11*
%TO.C,D2*%
X147387500Y-96610000D03*
X145812500Y-96610000D03*
%TD*%
%TO.C,D1*%
X147387500Y-98400000D03*
X145812500Y-98400000D03*
%TD*%
D12*
%TO.C,U1*%
X149220000Y-91180000D03*
X148100000Y-91180000D03*
X146980000Y-91180000D03*
X149220000Y-92300000D03*
X148100000Y-92300000D03*
X146980000Y-92300000D03*
X149220000Y-93420000D03*
X148100000Y-93420000D03*
X146980000Y-93420000D03*
D13*
X149600000Y-89850000D03*
X149100000Y-89850000D03*
X148600000Y-89850000D03*
X148100000Y-89850000D03*
X147600000Y-89850000D03*
X147100000Y-89850000D03*
X146600000Y-89850000D03*
D14*
X145650000Y-90800000D03*
X145650000Y-91300000D03*
X145650000Y-91800000D03*
X145650000Y-92300000D03*
X145650000Y-92800000D03*
X145650000Y-93300000D03*
X145650000Y-93800000D03*
D13*
X146600000Y-94750000D03*
X147100000Y-94750000D03*
X147600000Y-94750000D03*
X148100000Y-94750000D03*
X148600000Y-94750000D03*
X149100000Y-94750000D03*
X149600000Y-94750000D03*
D14*
X150550000Y-93800000D03*
X150550000Y-93300000D03*
X150550000Y-92800000D03*
X150550000Y-92300000D03*
X150550000Y-91800000D03*
X150550000Y-91300000D03*
X150550000Y-90800000D03*
%TD*%
D15*
%TO.C,C2*%
X143800000Y-88400000D03*
X143800000Y-87440000D03*
%TD*%
D16*
%TO.C,R6*%
X144570000Y-96580000D03*
X143550000Y-96580000D03*
%TD*%
D17*
%TO.C,P1*%
X138045000Y-88550000D03*
X138045000Y-89350000D03*
D18*
X138045000Y-90550000D03*
X138045000Y-91550000D03*
X138045000Y-92050000D03*
X138045000Y-93050000D03*
D17*
X138045000Y-94250000D03*
X138045000Y-95050000D03*
X138045000Y-95050000D03*
X138045000Y-94250000D03*
D18*
X138045000Y-93550000D03*
X138045000Y-92550000D03*
X138045000Y-91050000D03*
X138045000Y-90050000D03*
D17*
X138045000Y-89350000D03*
X138045000Y-88550000D03*
%TD*%
D15*
%TO.C,C1*%
X144800000Y-88400000D03*
X144800000Y-87440000D03*
%TD*%
D16*
%TO.C,R5*%
X144570000Y-98380000D03*
X143550000Y-98380000D03*
%TD*%
D10*
%TO.C,R4*%
X144200000Y-92710000D03*
X144200000Y-91690000D03*
%TD*%
D15*
%TO.C,C4*%
X146800000Y-88200000D03*
X146800000Y-87240000D03*
%TD*%
%TO.C,C3*%
X145800000Y-88200000D03*
X145800000Y-87240000D03*
%TD*%
D19*
%TO.C,R1*%
X140290000Y-90600000D03*
X141310000Y-90600000D03*
%TD*%
%TO.C,R2*%
X140290000Y-93600000D03*
X141310000Y-93600000D03*
%TD*%
D20*
%TO.C,U2*%
X164000000Y-88300000D03*
X164000000Y-90300000D03*
X164000000Y-92300000D03*
X164000000Y-94300000D03*
X164000000Y-96300000D03*
X164000000Y-85300000D03*
X164000000Y-98300000D03*
%TD*%
M02*
