%TF.GenerationSoftware,KiCad,Pcbnew,7.0.5-0*%
%TF.CreationDate,2023-07-20T10:36:23-05:00*%
%TF.ProjectId,DCSDv2_CP2102N,44435344-7632-45f4-9350-323130324e2e,rev?*%
%TF.SameCoordinates,Original*%
%TF.FileFunction,Copper,L1,Top*%
%TF.FilePolarity,Positive*%
%FSLAX46Y46*%
G04 Gerber Fmt 4.6, Leading zero omitted, Abs format (unit mm)*
G04 Created by KiCad (PCBNEW 7.0.5-0) date 2023-07-20 10:36:23*
%MOMM*%
%LPD*%
G01*
G04 APERTURE LIST*
%TA.AperFunction,SMDPad,CuDef*%
%ADD10R,5.000000X1.000000*%
%TD*%
%TA.AperFunction,ComponentPad*%
%ADD11O,1.600000X1.000000*%
%TD*%
%TA.AperFunction,ComponentPad*%
%ADD12O,2.100000X1.000000*%
%TD*%
%TA.AperFunction,ViaPad*%
%ADD13C,0.800000*%
%TD*%
%TA.AperFunction,Conductor*%
%ADD14C,0.250000*%
%TD*%
%TA.AperFunction,Conductor*%
%ADD15C,0.200000*%
%TD*%
G04 APERTURE END LIST*
D10*
%TO.P,U2,2,SCK*%
%TO.N,/DC_SCK*%
X135473810Y-95300000D03*
%TO.P,U2,4,RX*%
%TO.N,/DC_TX*%
X135473810Y-93300000D03*
%TO.P,U2,6,RTS*%
%TO.N,/DC_CTS*%
X135473810Y-91300000D03*
%TO.P,U2,8,GND*%
%TO.N,GND*%
X135473810Y-89300000D03*
%TO.P,U2,10,3.3V*%
%TO.N,unconnected-(U2-3.3V-Pad10)*%
X135473810Y-87300000D03*
%TO.P,U2,SHIELD*%
%TO.N,N/C*%
X135473810Y-98300000D03*
X135473810Y-85300000D03*
%TD*%
D11*
%TO.P,P1,S1,SHIELD*%
%TO.N,unconnected-(P1-SHIELD-PadS1)*%
X166523810Y-87480000D03*
D12*
X162343810Y-87480000D03*
D11*
X166523810Y-96120000D03*
D12*
X162343810Y-96120000D03*
%TD*%
D13*
%TO.N,GND*%
X152748310Y-86400000D03*
X160273810Y-88400000D03*
X153673810Y-86400000D03*
X155149310Y-93600000D03*
X152273810Y-91200000D03*
X155673810Y-86600000D03*
X138800000Y-89300000D03*
X154673810Y-86600000D03*
X150617410Y-88642404D03*
X138800000Y-94300000D03*
X150273810Y-91200000D03*
X160273810Y-95200000D03*
X150273810Y-93200000D03*
X158000000Y-91600000D03*
X152273810Y-93200000D03*
X151273810Y-92200000D03*
%TO.N,+3.3V*%
X153873810Y-89000000D03*
X155873810Y-97400000D03*
%TO.N,/CP2102N_RESET*%
X147750000Y-91000000D03*
X147750000Y-94250000D03*
%TO.N,/CP2102N_SCK*%
X148000000Y-89750000D03*
X146750000Y-94250000D03*
%TO.N,/DC_CTS*%
X144750000Y-93000000D03*
%TO.N,/DC_RTS*%
X139750000Y-90250000D03*
X146000000Y-92999500D03*
%TO.N,/DC_TX*%
X142250000Y-92000000D03*
%TO.N,/DC_SCK*%
X140250000Y-95250000D03*
%TD*%
D14*
%TO.N,GND*%
X138800000Y-89300000D02*
X135473810Y-89300000D01*
%TO.N,+3.3V*%
X154773810Y-90100000D02*
X153673810Y-89000000D01*
X155873810Y-97400000D02*
X155873810Y-92755634D01*
X155873792Y-92755634D02*
G75*
G03*
X154773810Y-90100000I-3755592J34D01*
G01*
D15*
%TO.N,/CP2102N_RESET*%
X147750000Y-91025125D02*
X147750000Y-91000000D01*
X147750000Y-91100500D02*
X147750000Y-91201000D01*
X147750000Y-91075375D02*
X147750000Y-91100500D01*
X147750000Y-91025125D02*
X147750000Y-91075375D01*
X147750000Y-91201000D02*
X147750000Y-94250000D01*
%TO.N,/CP2102N_SCK*%
X146750000Y-91883883D02*
X146750000Y-94250000D01*
X148000000Y-89750000D02*
X147375000Y-90375000D01*
X147375005Y-90375005D02*
G75*
G03*
X146750000Y-91883883I1508895J-1508895D01*
G01*
%TO.N,/DC_CTS*%
X141847918Y-91300000D02*
X135473810Y-91300000D01*
X144750000Y-93000000D02*
X143900000Y-92150000D01*
X143899995Y-92150005D02*
G75*
G03*
X141847918Y-91300000I-2052095J-2052095D01*
G01*
%TO.N,/DC_RTS*%
X139750000Y-90250000D02*
X141500250Y-90250000D01*
X146000000Y-92999500D02*
X144488113Y-91487613D01*
X144488093Y-91487633D02*
G75*
G03*
X141500250Y-90250000I-2987893J-2987867D01*
G01*
D14*
%TO.N,/DC_TX*%
X135654935Y-93118875D02*
X135836060Y-92937750D01*
D15*
X140030761Y-93300000D02*
X135729959Y-93300000D01*
X142250000Y-92000000D02*
X141600000Y-92650000D01*
X140030761Y-93299983D02*
G75*
G03*
X141599999Y-92649999I39J2219183D01*
G01*
D14*
X135654956Y-93118896D02*
G75*
G03*
X135729959Y-93300000I75044J-75004D01*
G01*
D15*
%TO.N,/DC_SCK*%
X140250000Y-95250000D02*
X140225000Y-95275000D01*
X140164644Y-95300000D02*
X135473810Y-95300000D01*
X140164644Y-95300018D02*
G75*
G03*
X140225000Y-95275000I-44J85418D01*
G01*
%TD*%
%TA.AperFunction,Conductor*%
%TO.N,/CP2102N_RESET*%
G36*
X147847058Y-93463427D02*
G01*
X147850475Y-93471205D01*
X147853871Y-93551396D01*
X147853872Y-93551404D01*
X147864920Y-93627314D01*
X147864922Y-93627325D01*
X147882300Y-93691072D01*
X147882306Y-93691091D01*
X147905162Y-93745989D01*
X147905163Y-93745992D01*
X147905165Y-93745995D01*
X147932663Y-93795389D01*
X147963948Y-93842578D01*
X147963964Y-93842601D01*
X147963980Y-93842624D01*
X147974942Y-93858095D01*
X147998172Y-93890879D01*
X148034404Y-93943491D01*
X148034555Y-93943723D01*
X148071939Y-94003925D01*
X148072138Y-94004270D01*
X148106029Y-94068159D01*
X148106878Y-94077074D01*
X148104126Y-94081752D01*
X147758433Y-94441230D01*
X147750229Y-94444818D01*
X147741890Y-94441553D01*
X147741567Y-94441230D01*
X147395873Y-94081752D01*
X147392608Y-94073413D01*
X147393969Y-94068162D01*
X147427867Y-94004256D01*
X147428059Y-94003925D01*
X147465443Y-93943723D01*
X147465571Y-93943526D01*
X147501827Y-93890879D01*
X147536051Y-93842578D01*
X147567336Y-93795389D01*
X147594834Y-93745995D01*
X147617697Y-93691078D01*
X147635078Y-93627318D01*
X147646128Y-93551398D01*
X147649525Y-93471204D01*
X147653299Y-93463084D01*
X147661215Y-93460000D01*
X147838785Y-93460000D01*
X147847058Y-93463427D01*
G37*
%TD.AperFunction*%
%TD*%
%TA.AperFunction,Conductor*%
%TO.N,+3.3V*%
G36*
X153830895Y-88813192D02*
G01*
X153831774Y-88813665D01*
X154092043Y-88968548D01*
X154259988Y-89068491D01*
X154265345Y-89075666D01*
X154265466Y-89080896D01*
X154257257Y-89120908D01*
X154257229Y-89121036D01*
X154247152Y-89165126D01*
X154238188Y-89206108D01*
X154238187Y-89206115D01*
X154231729Y-89244617D01*
X154229175Y-89280621D01*
X154229112Y-89281506D01*
X154231682Y-89317572D01*
X154231685Y-89317589D01*
X154240788Y-89353669D01*
X154240792Y-89353680D01*
X154257786Y-89390610D01*
X154257788Y-89390615D01*
X154271268Y-89410443D01*
X154284010Y-89429186D01*
X154313415Y-89461976D01*
X154316388Y-89470421D01*
X154312978Y-89478059D01*
X154151975Y-89639062D01*
X154143702Y-89642489D01*
X154135777Y-89639395D01*
X154109804Y-89615473D01*
X154077075Y-89585328D01*
X154077068Y-89585322D01*
X154077061Y-89585316D01*
X154015822Y-89538433D01*
X154015814Y-89538427D01*
X153959138Y-89502907D01*
X153924788Y-89485113D01*
X153905836Y-89475296D01*
X153854732Y-89452151D01*
X153854705Y-89452139D01*
X153804757Y-89430075D01*
X153804553Y-89429980D01*
X153754620Y-89405582D01*
X153754216Y-89405364D01*
X153703083Y-89375208D01*
X153702600Y-89374890D01*
X153648989Y-89335509D01*
X153648526Y-89335130D01*
X153597439Y-89288720D01*
X153593619Y-89280621D01*
X153594770Y-89274972D01*
X153815270Y-88818636D01*
X153821955Y-88812678D01*
X153830895Y-88813192D01*
G37*
%TD.AperFunction*%
%TD*%
%TA.AperFunction,Conductor*%
%TO.N,/DC_SCK*%
G36*
X135699260Y-94854036D02*
G01*
X135782829Y-94898971D01*
X135783232Y-94899209D01*
X135859383Y-94948382D01*
X135859667Y-94948577D01*
X135925570Y-94996862D01*
X135925647Y-94996919D01*
X135985642Y-95043034D01*
X135985666Y-95043051D01*
X135985668Y-95043053D01*
X136043993Y-95085610D01*
X136044016Y-95085626D01*
X136105070Y-95123354D01*
X136105082Y-95123361D01*
X136173212Y-95154951D01*
X136173218Y-95154954D01*
X136219299Y-95168945D01*
X136252803Y-95179118D01*
X136348210Y-95194564D01*
X136452661Y-95199475D01*
X136460763Y-95203287D01*
X136463810Y-95211162D01*
X136463810Y-95388837D01*
X136460383Y-95397110D01*
X136452660Y-95400524D01*
X136366356Y-95404581D01*
X136348210Y-95405435D01*
X136348206Y-95405435D01*
X136348203Y-95405436D01*
X136252809Y-95420880D01*
X136252803Y-95420881D01*
X136252799Y-95420881D01*
X136252795Y-95420883D01*
X136173218Y-95445044D01*
X136173212Y-95445047D01*
X136105082Y-95476637D01*
X136105070Y-95476644D01*
X136044016Y-95514372D01*
X136043993Y-95514388D01*
X135985667Y-95556945D01*
X135985668Y-95556946D01*
X135985611Y-95556987D01*
X135925678Y-95603055D01*
X135925570Y-95603136D01*
X135859667Y-95651421D01*
X135859383Y-95651616D01*
X135783232Y-95700789D01*
X135782829Y-95701027D01*
X135699260Y-95745963D01*
X135690350Y-95746863D01*
X135685609Y-95744091D01*
X135640713Y-95700917D01*
X135232578Y-95308432D01*
X135228991Y-95300229D01*
X135232256Y-95291890D01*
X135232579Y-95291567D01*
X135324379Y-95203287D01*
X135685611Y-94855907D01*
X135693948Y-94852643D01*
X135699260Y-94854036D01*
G37*
%TD.AperFunction*%
%TD*%
%TA.AperFunction,Conductor*%
%TO.N,/DC_CTS*%
G36*
X135699260Y-90854036D02*
G01*
X135782829Y-90898971D01*
X135783232Y-90899209D01*
X135859383Y-90948382D01*
X135859667Y-90948577D01*
X135925570Y-90996862D01*
X135925647Y-90996919D01*
X135985642Y-91043034D01*
X135985666Y-91043051D01*
X135985668Y-91043053D01*
X136043993Y-91085610D01*
X136044016Y-91085626D01*
X136105070Y-91123354D01*
X136105082Y-91123361D01*
X136173212Y-91154951D01*
X136173218Y-91154954D01*
X136219299Y-91168945D01*
X136252803Y-91179118D01*
X136348210Y-91194564D01*
X136452661Y-91199475D01*
X136460763Y-91203287D01*
X136463810Y-91211162D01*
X136463810Y-91388837D01*
X136460383Y-91397110D01*
X136452660Y-91400524D01*
X136366356Y-91404581D01*
X136348210Y-91405435D01*
X136348206Y-91405435D01*
X136348203Y-91405436D01*
X136252809Y-91420880D01*
X136252803Y-91420881D01*
X136252799Y-91420881D01*
X136252795Y-91420883D01*
X136173218Y-91445044D01*
X136173212Y-91445047D01*
X136105082Y-91476637D01*
X136105070Y-91476644D01*
X136044016Y-91514372D01*
X136043993Y-91514388D01*
X135985667Y-91556945D01*
X135985668Y-91556946D01*
X135985611Y-91556987D01*
X135925678Y-91603055D01*
X135925570Y-91603136D01*
X135859667Y-91651421D01*
X135859383Y-91651616D01*
X135783232Y-91700789D01*
X135782829Y-91701027D01*
X135699260Y-91745963D01*
X135690350Y-91746863D01*
X135685609Y-91744091D01*
X135640713Y-91700917D01*
X135232578Y-91308432D01*
X135228991Y-91300229D01*
X135232256Y-91291890D01*
X135232579Y-91291567D01*
X135324379Y-91203287D01*
X135685611Y-90855907D01*
X135693948Y-90852643D01*
X135699260Y-90854036D01*
G37*
%TD.AperFunction*%
%TD*%
%TA.AperFunction,Conductor*%
%TO.N,/DC_CTS*%
G36*
X144270353Y-92378262D02*
G01*
X144319401Y-92423321D01*
X144329462Y-92432565D01*
X144390959Y-92478435D01*
X144448334Y-92511230D01*
X144470471Y-92520353D01*
X144503330Y-92533895D01*
X144503331Y-92533895D01*
X144503333Y-92533896D01*
X144557703Y-92549379D01*
X144613192Y-92560625D01*
X144671547Y-92570579D01*
X144734408Y-92582168D01*
X144734628Y-92582214D01*
X144767088Y-92589804D01*
X144803653Y-92598354D01*
X144804009Y-92598449D01*
X144873170Y-92619668D01*
X144880073Y-92625370D01*
X144881435Y-92630624D01*
X144891183Y-93129256D01*
X144887918Y-93137595D01*
X144879714Y-93141183D01*
X144879256Y-93141183D01*
X144380624Y-93131435D01*
X144372420Y-93127847D01*
X144369669Y-93123170D01*
X144348449Y-93054009D01*
X144348354Y-93053653D01*
X144332217Y-92984638D01*
X144332168Y-92984408D01*
X144320579Y-92921547D01*
X144310625Y-92863192D01*
X144299379Y-92807703D01*
X144283896Y-92753333D01*
X144261230Y-92698334D01*
X144228435Y-92640959D01*
X144182565Y-92579462D01*
X144165259Y-92560625D01*
X144128262Y-92520353D01*
X144125188Y-92511943D01*
X144128604Y-92504166D01*
X144254166Y-92378604D01*
X144262438Y-92375178D01*
X144270353Y-92378262D01*
G37*
%TD.AperFunction*%
%TD*%
%TA.AperFunction,Conductor*%
%TO.N,/DC_CTS*%
G36*
X135699260Y-90854036D02*
G01*
X135782829Y-90898971D01*
X135783232Y-90899209D01*
X135859383Y-90948382D01*
X135859667Y-90948577D01*
X135925570Y-90996862D01*
X135925647Y-90996919D01*
X135985642Y-91043034D01*
X135985666Y-91043051D01*
X135985668Y-91043053D01*
X136043993Y-91085610D01*
X136044016Y-91085626D01*
X136105070Y-91123354D01*
X136105082Y-91123361D01*
X136173212Y-91154951D01*
X136173218Y-91154954D01*
X136219299Y-91168945D01*
X136252803Y-91179118D01*
X136348210Y-91194564D01*
X136452661Y-91199475D01*
X136460763Y-91203287D01*
X136463810Y-91211162D01*
X136463810Y-91388837D01*
X136460383Y-91397110D01*
X136452660Y-91400524D01*
X136366356Y-91404581D01*
X136348210Y-91405435D01*
X136348206Y-91405435D01*
X136348203Y-91405436D01*
X136252809Y-91420880D01*
X136252803Y-91420881D01*
X136252799Y-91420881D01*
X136252795Y-91420883D01*
X136173218Y-91445044D01*
X136173212Y-91445047D01*
X136105082Y-91476637D01*
X136105070Y-91476644D01*
X136044016Y-91514372D01*
X136043993Y-91514388D01*
X135985667Y-91556945D01*
X135985668Y-91556946D01*
X135985611Y-91556987D01*
X135925678Y-91603055D01*
X135925570Y-91603136D01*
X135859667Y-91651421D01*
X135859383Y-91651616D01*
X135783232Y-91700789D01*
X135782829Y-91701027D01*
X135699260Y-91745963D01*
X135690350Y-91746863D01*
X135685609Y-91744091D01*
X135640713Y-91700917D01*
X135232578Y-91308432D01*
X135228991Y-91300229D01*
X135232256Y-91291890D01*
X135232579Y-91291567D01*
X135324379Y-91203287D01*
X135685611Y-90855907D01*
X135693948Y-90852643D01*
X135699260Y-90854036D01*
G37*
%TD.AperFunction*%
%TD*%
%TA.AperFunction,Conductor*%
%TO.N,/DC_TX*%
G36*
X142387595Y-91862081D02*
G01*
X142391183Y-91870285D01*
X142391183Y-91870743D01*
X142381435Y-92369375D01*
X142377847Y-92377579D01*
X142373169Y-92380331D01*
X142304036Y-92401541D01*
X142303652Y-92401644D01*
X142234638Y-92417781D01*
X142234367Y-92417838D01*
X142171523Y-92429424D01*
X142113221Y-92439368D01*
X142113188Y-92439374D01*
X142057710Y-92450617D01*
X142057699Y-92450620D01*
X142003330Y-92466102D01*
X141948337Y-92488766D01*
X141948334Y-92488767D01*
X141890960Y-92521562D01*
X141829465Y-92567430D01*
X141829459Y-92567435D01*
X141770353Y-92621736D01*
X141761943Y-92624810D01*
X141754165Y-92621393D01*
X141628604Y-92495832D01*
X141625177Y-92487559D01*
X141628259Y-92479647D01*
X141682565Y-92420536D01*
X141728435Y-92359039D01*
X141761230Y-92301665D01*
X141783896Y-92246665D01*
X141799379Y-92192295D01*
X141810625Y-92136806D01*
X141820579Y-92078452D01*
X141832170Y-92015582D01*
X141832217Y-92015360D01*
X141848354Y-91946345D01*
X141848447Y-91945996D01*
X141869669Y-91876828D01*
X141875370Y-91869926D01*
X141880622Y-91868564D01*
X142379257Y-91858816D01*
X142387595Y-91862081D01*
G37*
%TD.AperFunction*%
%TD*%
%TA.AperFunction,Conductor*%
%TO.N,GND*%
G36*
X164875234Y-78800566D02*
G01*
X165046724Y-78808495D01*
X165246337Y-78818301D01*
X165251858Y-78818820D01*
X165437368Y-78844698D01*
X165623610Y-78872325D01*
X165628659Y-78873292D01*
X165813397Y-78916742D01*
X165993959Y-78961971D01*
X165998568Y-78963318D01*
X166169944Y-79020757D01*
X166178970Y-79023783D01*
X166180086Y-79024170D01*
X166354102Y-79086433D01*
X166358230Y-79088081D01*
X166532724Y-79165129D01*
X166534127Y-79165770D01*
X166700708Y-79244558D01*
X166704370Y-79246441D01*
X166871224Y-79339378D01*
X166872901Y-79340347D01*
X167030692Y-79434923D01*
X167033857Y-79436953D01*
X167191578Y-79544995D01*
X167193473Y-79546346D01*
X167341076Y-79655815D01*
X167343741Y-79657907D01*
X167490929Y-79780131D01*
X167492909Y-79781849D01*
X167614127Y-79891714D01*
X167629009Y-79905203D01*
X167631214Y-79907302D01*
X167766517Y-80042606D01*
X167768615Y-80044810D01*
X167891918Y-80180854D01*
X167893677Y-80182882D01*
X167942409Y-80241567D01*
X168015927Y-80330101D01*
X168018013Y-80332758D01*
X168127421Y-80480279D01*
X168128772Y-80482174D01*
X168236883Y-80639998D01*
X168238913Y-80643163D01*
X168333382Y-80800775D01*
X168334368Y-80802480D01*
X168427392Y-80969491D01*
X168429275Y-80973153D01*
X168507964Y-81139524D01*
X168508634Y-81140990D01*
X168585748Y-81315637D01*
X168587407Y-81319794D01*
X168649557Y-81493493D01*
X168649934Y-81494580D01*
X168710502Y-81675295D01*
X168711859Y-81679935D01*
X168756968Y-81860024D01*
X168800522Y-82045206D01*
X168801498Y-82050305D01*
X168828980Y-82235562D01*
X168854992Y-82422041D01*
X168855512Y-82427567D01*
X168865161Y-82623962D01*
X168873244Y-82798791D01*
X168873310Y-82801655D01*
X168873310Y-100798560D01*
X168873244Y-100801424D01*
X168865331Y-100972575D01*
X168855507Y-101172541D01*
X168854987Y-101178067D01*
X168829148Y-101363297D01*
X168801480Y-101549815D01*
X168800504Y-101554914D01*
X168757142Y-101739280D01*
X168711827Y-101920192D01*
X168710470Y-101924832D01*
X168650098Y-102104958D01*
X168649688Y-102106142D01*
X168587368Y-102280315D01*
X168585709Y-102284473D01*
X168508779Y-102458702D01*
X168508109Y-102460168D01*
X168429211Y-102626981D01*
X168427328Y-102630643D01*
X168334537Y-102797236D01*
X168333552Y-102798941D01*
X168238823Y-102956986D01*
X168236793Y-102960151D01*
X168128935Y-103117604D01*
X168127584Y-103119499D01*
X168017911Y-103267377D01*
X168015810Y-103270053D01*
X167893828Y-103416950D01*
X167892068Y-103418978D01*
X167768465Y-103555354D01*
X167766366Y-103557558D01*
X167631368Y-103692556D01*
X167629164Y-103694655D01*
X167492772Y-103818273D01*
X167490744Y-103820032D01*
X167343879Y-103941989D01*
X167341203Y-103944090D01*
X167193265Y-104053807D01*
X167191370Y-104055158D01*
X167034011Y-104162953D01*
X167030846Y-104164983D01*
X166872646Y-104259804D01*
X166870941Y-104260789D01*
X166704505Y-104353493D01*
X166700843Y-104355376D01*
X166533784Y-104434390D01*
X166532318Y-104435060D01*
X166358368Y-104511866D01*
X166354211Y-104513525D01*
X166179655Y-104575983D01*
X166178470Y-104576394D01*
X165998723Y-104636639D01*
X165994083Y-104637996D01*
X165812619Y-104683450D01*
X165628813Y-104726682D01*
X165623713Y-104727658D01*
X165482150Y-104748658D01*
X165463955Y-104750000D01*
X135283665Y-104750000D01*
X135265470Y-104748658D01*
X135123970Y-104727668D01*
X135118880Y-104726694D01*
X135054475Y-104711546D01*
X134934643Y-104683361D01*
X134753592Y-104638011D01*
X134748952Y-104636654D01*
X134569006Y-104576342D01*
X134567822Y-104575932D01*
X134393446Y-104513540D01*
X134389288Y-104511881D01*
X134215218Y-104435021D01*
X134213753Y-104434351D01*
X134046778Y-104355378D01*
X134043116Y-104353495D01*
X133876669Y-104260785D01*
X133874964Y-104259800D01*
X133716769Y-104164981D01*
X133713604Y-104162951D01*
X133556290Y-104055188D01*
X133554395Y-104053837D01*
X133406370Y-103944055D01*
X133403694Y-103941954D01*
X133256930Y-103820084D01*
X133254902Y-103818324D01*
X133118391Y-103694598D01*
X133116187Y-103692499D01*
X132981309Y-103557621D01*
X132979220Y-103555428D01*
X132855429Y-103418845D01*
X132853747Y-103416907D01*
X132731870Y-103270136D01*
X132729777Y-103267471D01*
X132619932Y-103119361D01*
X132618581Y-103117466D01*
X132510881Y-102960244D01*
X132508865Y-102957102D01*
X132413944Y-102798737D01*
X132412985Y-102797078D01*
X132320338Y-102630744D01*
X132318455Y-102627082D01*
X132239362Y-102459856D01*
X132238719Y-102458450D01*
X132168756Y-102300000D01*
X143668163Y-102300000D01*
X143688644Y-102442456D01*
X143696733Y-102460168D01*
X143748433Y-102573373D01*
X143842682Y-102682143D01*
X143963757Y-102759953D01*
X143963760Y-102759954D01*
X143963759Y-102759954D01*
X144070917Y-102791417D01*
X144096539Y-102798941D01*
X144101846Y-102800499D01*
X144101848Y-102800500D01*
X144101849Y-102800500D01*
X144245772Y-102800500D01*
X144245772Y-102800499D01*
X144383863Y-102759953D01*
X144504938Y-102682143D01*
X144599187Y-102573373D01*
X144658975Y-102442457D01*
X144679457Y-102300000D01*
X144658975Y-102157543D01*
X144599187Y-102026627D01*
X144504938Y-101917857D01*
X144383863Y-101840047D01*
X144383861Y-101840046D01*
X144383859Y-101840045D01*
X144383860Y-101840045D01*
X144245773Y-101799500D01*
X144245771Y-101799500D01*
X144101849Y-101799500D01*
X144101846Y-101799500D01*
X143963759Y-101840045D01*
X143842683Y-101917856D01*
X143842682Y-101917856D01*
X143842682Y-101917857D01*
X143830100Y-101932376D01*
X143748433Y-102026626D01*
X143748432Y-102026628D01*
X143688644Y-102157543D01*
X143668163Y-102300000D01*
X132168756Y-102300000D01*
X132161948Y-102284581D01*
X132160302Y-102280458D01*
X132097726Y-102105568D01*
X132097407Y-102104647D01*
X132037172Y-101924928D01*
X132035825Y-101920325D01*
X131990325Y-101738676D01*
X131947125Y-101555003D01*
X131946154Y-101549926D01*
X131946138Y-101549815D01*
X131918314Y-101362250D01*
X131892636Y-101178169D01*
X131892117Y-101172652D01*
X131882118Y-100969103D01*
X131874376Y-100801642D01*
X131874310Y-100798778D01*
X131874310Y-99424500D01*
X131893995Y-99357461D01*
X131946799Y-99311706D01*
X131998310Y-99300500D01*
X132849050Y-99300500D01*
X132849193Y-99300528D01*
X132849194Y-99300524D01*
X132873807Y-99300539D01*
X132873810Y-99300541D01*
X132874193Y-99300383D01*
X132874310Y-99300099D01*
X132874351Y-99300000D01*
X132874350Y-99299997D01*
X132874393Y-99275889D01*
X132874310Y-99275467D01*
X132874310Y-99224499D01*
X132893995Y-99157460D01*
X132946799Y-99111705D01*
X132998305Y-99100499D01*
X138018674Y-99100499D01*
X138018689Y-99100497D01*
X138018692Y-99100497D01*
X138043797Y-99097586D01*
X138043798Y-99097585D01*
X138043801Y-99097585D01*
X138146575Y-99052206D01*
X138226016Y-98972765D01*
X138271395Y-98869991D01*
X138274310Y-98844865D01*
X138274309Y-97755136D01*
X138274307Y-97755117D01*
X138271396Y-97730012D01*
X138271395Y-97730010D01*
X138271395Y-97730009D01*
X138226016Y-97627235D01*
X138146575Y-97547794D01*
X138074308Y-97515885D01*
X138043802Y-97502415D01*
X138018678Y-97499500D01*
X132998310Y-97499500D01*
X132931271Y-97479815D01*
X132885516Y-97427011D01*
X132874310Y-97375500D01*
X132874310Y-96224499D01*
X132893995Y-96157460D01*
X132946799Y-96111705D01*
X132998305Y-96100499D01*
X138018674Y-96100499D01*
X138018689Y-96100497D01*
X138018692Y-96100497D01*
X138043797Y-96097586D01*
X138043798Y-96097585D01*
X138043801Y-96097585D01*
X138146575Y-96052206D01*
X138226016Y-95972765D01*
X138271395Y-95869991D01*
X138274310Y-95844865D01*
X138274310Y-95824499D01*
X138293995Y-95757461D01*
X138346799Y-95711706D01*
X138398310Y-95700500D01*
X139407467Y-95700500D01*
X139434852Y-95703561D01*
X139444321Y-95705706D01*
X139514295Y-95708360D01*
X139519844Y-95708820D01*
X139565834Y-95714738D01*
X139572205Y-95715899D01*
X139602985Y-95723198D01*
X139609389Y-95725088D01*
X139631672Y-95732998D01*
X139634300Y-95733931D01*
X139639633Y-95736107D01*
X139668520Y-95749496D01*
X139671793Y-95751133D01*
X139712320Y-95772927D01*
X139765680Y-95802760D01*
X139768880Y-95804499D01*
X139831476Y-95837562D01*
X139832777Y-95838227D01*
X139835066Y-95839399D01*
X139839043Y-95841365D01*
X139842404Y-95842972D01*
X139842682Y-95843105D01*
X139914730Y-95876387D01*
X139914744Y-95876393D01*
X139919717Y-95878584D01*
X139924922Y-95880767D01*
X139926804Y-95881519D01*
X139929648Y-95882657D01*
X139993348Y-95906915D01*
X139999447Y-95909665D01*
X139999772Y-95909788D01*
X139999775Y-95909790D01*
X139999778Y-95909790D01*
X139999813Y-95909804D01*
X140003487Y-95910836D01*
X140004386Y-95911119D01*
X140004393Y-95911122D01*
X140073400Y-95928531D01*
X140075114Y-95928755D01*
X140081899Y-95930031D01*
X140164944Y-95950500D01*
X140335056Y-95950500D01*
X140500225Y-95909790D01*
X140579692Y-95868081D01*
X140650849Y-95830736D01*
X140650850Y-95830734D01*
X140650852Y-95830734D01*
X140778183Y-95717929D01*
X140874818Y-95577930D01*
X140935140Y-95418872D01*
X140955645Y-95250000D01*
X140935140Y-95081128D01*
X140874818Y-94922070D01*
X140855665Y-94894323D01*
X140818627Y-94840664D01*
X140778183Y-94782071D01*
X140655443Y-94673333D01*
X140650849Y-94669263D01*
X140500226Y-94590210D01*
X140335056Y-94549500D01*
X140164944Y-94549500D01*
X139999776Y-94590209D01*
X139854076Y-94666678D01*
X139852503Y-94667443D01*
X139851783Y-94667850D01*
X139850133Y-94668748D01*
X139849152Y-94669262D01*
X139848575Y-94669660D01*
X139843895Y-94673333D01*
X139791735Y-94709490D01*
X139788512Y-94711788D01*
X139784785Y-94714521D01*
X139781289Y-94717164D01*
X139722397Y-94763074D01*
X139718523Y-94766172D01*
X139667731Y-94808425D01*
X139629811Y-94839694D01*
X139627403Y-94841582D01*
X139603649Y-94859275D01*
X139598769Y-94862562D01*
X139586251Y-94870157D01*
X139579151Y-94873857D01*
X139576170Y-94875175D01*
X139570811Y-94877542D01*
X139562709Y-94880465D01*
X139559102Y-94881489D01*
X139547808Y-94884697D01*
X139540031Y-94886376D01*
X139508151Y-94891139D01*
X139501654Y-94891762D01*
X139490861Y-94892227D01*
X139442763Y-94894298D01*
X139442702Y-94894301D01*
X139442261Y-94894320D01*
X139442201Y-94894323D01*
X139442199Y-94894323D01*
X139433951Y-94896250D01*
X139405750Y-94899500D01*
X138398309Y-94899500D01*
X138331270Y-94879815D01*
X138285515Y-94827011D01*
X138274309Y-94775500D01*
X138274309Y-94755143D01*
X138274309Y-94755136D01*
X138272890Y-94742896D01*
X138271396Y-94730012D01*
X138271395Y-94730010D01*
X138271395Y-94730009D01*
X138226016Y-94627235D01*
X138146575Y-94547794D01*
X138128389Y-94539764D01*
X138043802Y-94502415D01*
X138018678Y-94499500D01*
X132998310Y-94499500D01*
X132931271Y-94479815D01*
X132885516Y-94427011D01*
X132874310Y-94375500D01*
X132874310Y-94224499D01*
X132893995Y-94157460D01*
X132946799Y-94111705D01*
X132998305Y-94100499D01*
X138018674Y-94100499D01*
X138018689Y-94100497D01*
X138018692Y-94100497D01*
X138043797Y-94097586D01*
X138043798Y-94097585D01*
X138043801Y-94097585D01*
X138146575Y-94052206D01*
X138226016Y-93972765D01*
X138271395Y-93869991D01*
X138274310Y-93844865D01*
X138274310Y-93824500D01*
X138293995Y-93757461D01*
X138346799Y-93711706D01*
X138398310Y-93700500D01*
X140064585Y-93700500D01*
X140064994Y-93700483D01*
X140177876Y-93700486D01*
X140470269Y-93667545D01*
X140757136Y-93602074D01*
X141034868Y-93504894D01*
X141299973Y-93377229D01*
X141549116Y-93220683D01*
X141779165Y-93037226D01*
X141855534Y-92960857D01*
X141855550Y-92960843D01*
X141947456Y-92868936D01*
X141969457Y-92851440D01*
X141977036Y-92846708D01*
X142022309Y-92805113D01*
X142027173Y-92801083D01*
X142055696Y-92779808D01*
X142061974Y-92775695D01*
X142079436Y-92765713D01*
X142086574Y-92762221D01*
X142100441Y-92756506D01*
X142107067Y-92754206D01*
X142127688Y-92748334D01*
X142132338Y-92747204D01*
X142168289Y-92739917D01*
X142170162Y-92739567D01*
X142224903Y-92730231D01*
X142291633Y-92717929D01*
X142295379Y-92717190D01*
X142299192Y-92716388D01*
X142302530Y-92715647D01*
X142375616Y-92698557D01*
X142377248Y-92698147D01*
X142380353Y-92697369D01*
X142380378Y-92697362D01*
X142380411Y-92697354D01*
X142385810Y-92695906D01*
X142391040Y-92694403D01*
X142462774Y-92672395D01*
X142470334Y-92669066D01*
X142490629Y-92662154D01*
X142500225Y-92659790D01*
X142650852Y-92580734D01*
X142778183Y-92467929D01*
X142874818Y-92327930D01*
X142935140Y-92168872D01*
X142937968Y-92145577D01*
X142965589Y-92081401D01*
X143023522Y-92042344D01*
X143093375Y-92040808D01*
X143121037Y-92051993D01*
X143171366Y-92079809D01*
X143175788Y-92082253D01*
X143181679Y-92085955D01*
X143404789Y-92244261D01*
X143410212Y-92248585D01*
X143615619Y-92432148D01*
X143618134Y-92434527D01*
X143881058Y-92697451D01*
X143898549Y-92719445D01*
X143903289Y-92727034D01*
X143944874Y-92772301D01*
X143948915Y-92777177D01*
X143950889Y-92779823D01*
X143970179Y-92805685D01*
X143974301Y-92811976D01*
X143982772Y-92826795D01*
X143984278Y-92829430D01*
X143987778Y-92836582D01*
X143993485Y-92850433D01*
X143995792Y-92857078D01*
X144001660Y-92877684D01*
X144002796Y-92882352D01*
X144010083Y-92918310D01*
X144010436Y-92920198D01*
X144019773Y-92974935D01*
X144032113Y-93041873D01*
X144032933Y-93046003D01*
X144034049Y-93051240D01*
X144051408Y-93125481D01*
X144052582Y-93130172D01*
X144053991Y-93135454D01*
X144055569Y-93140953D01*
X144077603Y-93212772D01*
X144105134Y-93275311D01*
X144106360Y-93278305D01*
X144125180Y-93327928D01*
X144159208Y-93377225D01*
X144221817Y-93467929D01*
X144287367Y-93526001D01*
X144349150Y-93580736D01*
X144498820Y-93659289D01*
X144499775Y-93659790D01*
X144664944Y-93700500D01*
X144835056Y-93700500D01*
X145000225Y-93659790D01*
X145110191Y-93602075D01*
X145150849Y-93580736D01*
X145150850Y-93580734D01*
X145150852Y-93580734D01*
X145278183Y-93467929D01*
X145278189Y-93467919D01*
X145282403Y-93463165D01*
X145341591Y-93426036D01*
X145411456Y-93426802D01*
X145468035Y-93463160D01*
X145471815Y-93467427D01*
X145471816Y-93467428D01*
X145471817Y-93467429D01*
X145514106Y-93504894D01*
X145599150Y-93580236D01*
X145749773Y-93659289D01*
X145749775Y-93659290D01*
X145914944Y-93700000D01*
X146037299Y-93700000D01*
X146104338Y-93719685D01*
X146150093Y-93772489D01*
X146160037Y-93841647D01*
X146146839Y-93882111D01*
X146128867Y-93915989D01*
X146125234Y-93921971D01*
X146125179Y-93922076D01*
X146123333Y-93926943D01*
X146098240Y-93991514D01*
X146098233Y-93991538D01*
X146097768Y-93993327D01*
X146095732Y-93999717D01*
X146064861Y-94081122D01*
X146064859Y-94081130D01*
X146044355Y-94250000D01*
X146064859Y-94418869D01*
X146064860Y-94418874D01*
X146125182Y-94577931D01*
X146133658Y-94590210D01*
X146221817Y-94717929D01*
X146309043Y-94795204D01*
X146349150Y-94830736D01*
X146470263Y-94894301D01*
X146499775Y-94909790D01*
X146664944Y-94950500D01*
X146835056Y-94950500D01*
X147000225Y-94909790D01*
X147130183Y-94841582D01*
X147150845Y-94830738D01*
X147150846Y-94830736D01*
X147150852Y-94830734D01*
X147167773Y-94815742D01*
X147231004Y-94786022D01*
X147300267Y-94795204D01*
X147332224Y-94815741D01*
X147349148Y-94830734D01*
X147349150Y-94830735D01*
X147349154Y-94830738D01*
X147470263Y-94894301D01*
X147499775Y-94909790D01*
X147664944Y-94950500D01*
X147835056Y-94950500D01*
X148000225Y-94909790D01*
X148079692Y-94868081D01*
X148150849Y-94830736D01*
X148150850Y-94830734D01*
X148150852Y-94830734D01*
X148278183Y-94717929D01*
X148374818Y-94577930D01*
X148435140Y-94418872D01*
X148455645Y-94250000D01*
X148435140Y-94081128D01*
X148374818Y-93922070D01*
X148374816Y-93922068D01*
X148374816Y-93922066D01*
X148374777Y-93921993D01*
X148371124Y-93915979D01*
X148340753Y-93858724D01*
X148338142Y-93854007D01*
X148338124Y-93853974D01*
X148335331Y-93849131D01*
X148335327Y-93849125D01*
X148335313Y-93849100D01*
X148332793Y-93844892D01*
X148320130Y-93824500D01*
X148293229Y-93781179D01*
X148291485Y-93778436D01*
X148289360Y-93775171D01*
X148287142Y-93771859D01*
X148248621Y-93715923D01*
X148216536Y-93670641D01*
X148215461Y-93669073D01*
X148214448Y-93667545D01*
X148195146Y-93638432D01*
X148192655Y-93634339D01*
X148182243Y-93615635D01*
X148179173Y-93609299D01*
X148173413Y-93595464D01*
X148170833Y-93587939D01*
X148168869Y-93580736D01*
X148165550Y-93568563D01*
X148164015Y-93561196D01*
X148158892Y-93525992D01*
X148158302Y-93519706D01*
X148155701Y-93458276D01*
X148155675Y-93457665D01*
X148153741Y-93449371D01*
X148150500Y-93421207D01*
X148150500Y-91838798D01*
X148153651Y-91811021D01*
X148155703Y-91802096D01*
X148158308Y-91738803D01*
X148158867Y-91732662D01*
X148160633Y-91720185D01*
X148164170Y-91695183D01*
X148165626Y-91687996D01*
X148171302Y-91666591D01*
X148173771Y-91659195D01*
X148180004Y-91643816D01*
X148182975Y-91637523D01*
X148193657Y-91617841D01*
X148196114Y-91613705D01*
X148216334Y-91582493D01*
X148217412Y-91580885D01*
X148249189Y-91535147D01*
X148287505Y-91478660D01*
X148289431Y-91475750D01*
X148291423Y-91472664D01*
X148293200Y-91469844D01*
X148333017Y-91405097D01*
X148335551Y-91400822D01*
X148338204Y-91396177D01*
X148340595Y-91391826D01*
X148371217Y-91333901D01*
X148374667Y-91328216D01*
X148374812Y-91327940D01*
X148374813Y-91327937D01*
X148374818Y-91327930D01*
X148375134Y-91327096D01*
X148375549Y-91326105D01*
X148376122Y-91324623D01*
X148376127Y-91324616D01*
X148401827Y-91258278D01*
X148402242Y-91256668D01*
X148404298Y-91250194D01*
X148418409Y-91212988D01*
X148435138Y-91168879D01*
X148435140Y-91168870D01*
X148435857Y-91162966D01*
X148455645Y-91000000D01*
X148435140Y-90831128D01*
X148432120Y-90823166D01*
X148383247Y-90694297D01*
X148374818Y-90672070D01*
X148288298Y-90546725D01*
X148266416Y-90480373D01*
X148283881Y-90412721D01*
X148332722Y-90366491D01*
X148400852Y-90330734D01*
X148528183Y-90217929D01*
X148624818Y-90077930D01*
X148685140Y-89918872D01*
X148705645Y-89750000D01*
X148685140Y-89581128D01*
X148624818Y-89422070D01*
X148528183Y-89282071D01*
X148400852Y-89169266D01*
X148400849Y-89169263D01*
X148250226Y-89090210D01*
X148085056Y-89049500D01*
X147914944Y-89049500D01*
X147749773Y-89090210D01*
X147599150Y-89169263D01*
X147471816Y-89282072D01*
X147375182Y-89422068D01*
X147375182Y-89422069D01*
X147343083Y-89506709D01*
X147340032Y-89513495D01*
X147327608Y-89537215D01*
X147305542Y-89609133D01*
X147303981Y-89614579D01*
X147302543Y-89619975D01*
X147301418Y-89624477D01*
X147284371Y-89697378D01*
X147283678Y-89700490D01*
X147282877Y-89704273D01*
X147282102Y-89708192D01*
X147269768Y-89775090D01*
X147260434Y-89829809D01*
X147260081Y-89831697D01*
X147252797Y-89867642D01*
X147251661Y-89872308D01*
X147245795Y-89892913D01*
X147243484Y-89899567D01*
X147237772Y-89913424D01*
X147234277Y-89920568D01*
X147224309Y-89938009D01*
X147220177Y-89944315D01*
X147212734Y-89954293D01*
X147198920Y-89972813D01*
X147194879Y-89977690D01*
X147153226Y-90023030D01*
X147152874Y-90023414D01*
X147148376Y-90030648D01*
X147130758Y-90052847D01*
X147067835Y-90115771D01*
X147067703Y-90115913D01*
X146991163Y-90192454D01*
X146813686Y-90415004D01*
X146662248Y-90656013D01*
X146662240Y-90656028D01*
X146538738Y-90912482D01*
X146538732Y-90912496D01*
X146444718Y-91181168D01*
X146444716Y-91181177D01*
X146381373Y-91458694D01*
X146349500Y-91741548D01*
X146349500Y-92201303D01*
X146329815Y-92268342D01*
X146277011Y-92314097D01*
X146207853Y-92324041D01*
X146189131Y-92319850D01*
X146163653Y-92312033D01*
X146140920Y-92305059D01*
X146140905Y-92305054D01*
X146140893Y-92305051D01*
X146135484Y-92303500D01*
X146130141Y-92302074D01*
X146125546Y-92300925D01*
X146125545Y-92300924D01*
X146125522Y-92300919D01*
X146072287Y-92288470D01*
X146052455Y-92283833D01*
X146052443Y-92283830D01*
X146052433Y-92283828D01*
X146048916Y-92283049D01*
X146048893Y-92283044D01*
X146048856Y-92283036D01*
X146045141Y-92282260D01*
X146041597Y-92281562D01*
X145974922Y-92269270D01*
X145922180Y-92260274D01*
X145920190Y-92259934D01*
X145918310Y-92259583D01*
X145882352Y-92252296D01*
X145877684Y-92251160D01*
X145857078Y-92245292D01*
X145850433Y-92242985D01*
X145836582Y-92237278D01*
X145829430Y-92233778D01*
X145827972Y-92232945D01*
X145811976Y-92223801D01*
X145805685Y-92219679D01*
X145781048Y-92201303D01*
X145777177Y-92198415D01*
X145772301Y-92194374D01*
X145727084Y-92152835D01*
X145726607Y-92152396D01*
X145726606Y-92152395D01*
X145719359Y-92147888D01*
X145697163Y-92130271D01*
X145226087Y-91659195D01*
X144749022Y-91182129D01*
X144749021Y-91182128D01*
X144747551Y-91180658D01*
X144747020Y-91180167D01*
X144628482Y-91061629D01*
X144628481Y-91061628D01*
X144628474Y-91061621D01*
X144628465Y-91061613D01*
X144628458Y-91061607D01*
X144319042Y-90801973D01*
X144319034Y-90801967D01*
X143988145Y-90570272D01*
X143638317Y-90368295D01*
X143469517Y-90289581D01*
X143272215Y-90197576D01*
X143103705Y-90136242D01*
X142892634Y-90059416D01*
X142892616Y-90059411D01*
X142502465Y-89954866D01*
X142502455Y-89954863D01*
X142502448Y-89954862D01*
X142267456Y-89913424D01*
X142104640Y-89884713D01*
X141702228Y-89849501D01*
X141702229Y-89849501D01*
X141531770Y-89849500D01*
X141531769Y-89849500D01*
X140578370Y-89849500D01*
X140550447Y-89846315D01*
X140547306Y-89845589D01*
X140541725Y-89844299D01*
X140480313Y-89841697D01*
X140474003Y-89841105D01*
X140438820Y-89835984D01*
X140431439Y-89834447D01*
X140412062Y-89829165D01*
X140404535Y-89826584D01*
X140397464Y-89823641D01*
X140390689Y-89820820D01*
X140384370Y-89817758D01*
X140378763Y-89814637D01*
X140365650Y-89807336D01*
X140361550Y-89804841D01*
X140341366Y-89791461D01*
X140330939Y-89784548D01*
X140329380Y-89783479D01*
X140284058Y-89751365D01*
X140227964Y-89712735D01*
X140227931Y-89712712D01*
X140224225Y-89710239D01*
X140219802Y-89707379D01*
X140155127Y-89667218D01*
X140153054Y-89665976D01*
X140150886Y-89664678D01*
X140150867Y-89664667D01*
X140146024Y-89661874D01*
X140143188Y-89660305D01*
X140141250Y-89659232D01*
X140075005Y-89624092D01*
X140074999Y-89624089D01*
X140050527Y-89614579D01*
X140038872Y-89610049D01*
X140032519Y-89607159D01*
X140027608Y-89604581D01*
X140000225Y-89590210D01*
X140000222Y-89590209D01*
X139835056Y-89549500D01*
X139664944Y-89549500D01*
X139499773Y-89590210D01*
X139349150Y-89669263D01*
X139221816Y-89782072D01*
X139125182Y-89922068D01*
X139064860Y-90081125D01*
X139064859Y-90081130D01*
X139044355Y-90250000D01*
X139064859Y-90418869D01*
X139064860Y-90418874D01*
X139125182Y-90577931D01*
X139212934Y-90705060D01*
X139234817Y-90771414D01*
X139217352Y-90839066D01*
X139166084Y-90886536D01*
X139110884Y-90899500D01*
X138398309Y-90899500D01*
X138331270Y-90879815D01*
X138285515Y-90827011D01*
X138274309Y-90775500D01*
X138274309Y-90755143D01*
X138274309Y-90755136D01*
X138274307Y-90755117D01*
X138271396Y-90730012D01*
X138271395Y-90730010D01*
X138271395Y-90730009D01*
X138226016Y-90627235D01*
X138146575Y-90547794D01*
X138146574Y-90547793D01*
X138083363Y-90519883D01*
X138029986Y-90474797D01*
X138009459Y-90408011D01*
X138028297Y-90340729D01*
X138080521Y-90294313D01*
X138090116Y-90290267D01*
X138215896Y-90243354D01*
X138215903Y-90243350D01*
X138330997Y-90157190D01*
X138331000Y-90157187D01*
X138417160Y-90042093D01*
X138417164Y-90042086D01*
X138467406Y-89907379D01*
X138467408Y-89907372D01*
X138473809Y-89847844D01*
X138473810Y-89847827D01*
X138473810Y-88999999D01*
X153168165Y-88999999D01*
X153188669Y-89168869D01*
X153188670Y-89168874D01*
X153248992Y-89327931D01*
X153345625Y-89467926D01*
X153345628Y-89467930D01*
X153369415Y-89489004D01*
X153386007Y-89506915D01*
X153390994Y-89513495D01*
X153392017Y-89514844D01*
X153446015Y-89563899D01*
X153449335Y-89566763D01*
X153451954Y-89569022D01*
X153458530Y-89574405D01*
X153458546Y-89574417D01*
X153458577Y-89574443D01*
X153464903Y-89579351D01*
X153464913Y-89579358D01*
X153464935Y-89579375D01*
X153524881Y-89623408D01*
X153524899Y-89623421D01*
X153531332Y-89627898D01*
X153531349Y-89627909D01*
X153538191Y-89632414D01*
X153538213Y-89632428D01*
X153538239Y-89632445D01*
X153544642Y-89636437D01*
X153544652Y-89636443D01*
X153544657Y-89636446D01*
X153601512Y-89669978D01*
X153605658Y-89672317D01*
X153606584Y-89672840D01*
X153612255Y-89675900D01*
X153617735Y-89678716D01*
X153672998Y-89705719D01*
X153678538Y-89708299D01*
X153678555Y-89708306D01*
X153678584Y-89708320D01*
X153729885Y-89730980D01*
X153755017Y-89742361D01*
X153771005Y-89749602D01*
X153773912Y-89751012D01*
X153805251Y-89767246D01*
X153809653Y-89769761D01*
X153839001Y-89788154D01*
X153843761Y-89791456D01*
X153878084Y-89817733D01*
X153882382Y-89821344D01*
X153898277Y-89835984D01*
X153928728Y-89864032D01*
X153929364Y-89864616D01*
X153929369Y-89864620D01*
X153929374Y-89864624D01*
X153933636Y-89867278D01*
X153936689Y-89869180D01*
X153958816Y-89886754D01*
X154471845Y-90399783D01*
X154473939Y-90401981D01*
X154678096Y-90627235D01*
X154690355Y-90640760D01*
X154694213Y-90645461D01*
X154730432Y-90694297D01*
X154885258Y-90903059D01*
X154888641Y-90908121D01*
X155053520Y-91183207D01*
X155056389Y-91188576D01*
X155193505Y-91478486D01*
X155195835Y-91484111D01*
X155303880Y-91786079D01*
X155305647Y-91791905D01*
X155318913Y-91844868D01*
X155382943Y-92100499D01*
X155383570Y-92102999D01*
X155384757Y-92108971D01*
X155431811Y-92426202D01*
X155432407Y-92432260D01*
X155448234Y-92754478D01*
X155448309Y-92757520D01*
X155448309Y-92826795D01*
X155448310Y-92826808D01*
X155448310Y-96573307D01*
X155445298Y-96600472D01*
X155443100Y-96610260D01*
X155440822Y-96673401D01*
X155440391Y-96678795D01*
X155435347Y-96719484D01*
X155434209Y-96725889D01*
X155428398Y-96750905D01*
X155426416Y-96757667D01*
X155420094Y-96775434D01*
X155417591Y-96781449D01*
X155408012Y-96801436D01*
X155405761Y-96805700D01*
X155388727Y-96835130D01*
X155387480Y-96837190D01*
X155360408Y-96880035D01*
X155325803Y-96934827D01*
X155323285Y-96938956D01*
X155286059Y-97002247D01*
X155284243Y-97005421D01*
X155282201Y-97009087D01*
X155280145Y-97012907D01*
X155252191Y-97066594D01*
X155249651Y-97070812D01*
X155248685Y-97072653D01*
X155248287Y-97073616D01*
X155246717Y-97077108D01*
X155221675Y-97142660D01*
X155221665Y-97142692D01*
X155221403Y-97143719D01*
X155219306Y-97150343D01*
X155188670Y-97231128D01*
X155188669Y-97231130D01*
X155168165Y-97400000D01*
X155188669Y-97568869D01*
X155188670Y-97568874D01*
X155248992Y-97727931D01*
X155311285Y-97818177D01*
X155345627Y-97867929D01*
X155451315Y-97961560D01*
X155472960Y-97980736D01*
X155623583Y-98059789D01*
X155623585Y-98059790D01*
X155788754Y-98100500D01*
X155958866Y-98100500D01*
X156124035Y-98059790D01*
X156203502Y-98018081D01*
X156274659Y-97980736D01*
X156274660Y-97980734D01*
X156274662Y-97980734D01*
X156401993Y-97867929D01*
X156498628Y-97727930D01*
X156558950Y-97568872D01*
X156579455Y-97400000D01*
X156558950Y-97231128D01*
X156558949Y-97231126D01*
X156558949Y-97231124D01*
X156537147Y-97173639D01*
X156503102Y-97083869D01*
X156501761Y-97079936D01*
X156500902Y-97077110D01*
X156500900Y-97077107D01*
X156500899Y-97077102D01*
X156500401Y-97075882D01*
X156499068Y-97072907D01*
X156497971Y-97070817D01*
X156495417Y-97066575D01*
X156467551Y-97013053D01*
X156466847Y-97011743D01*
X156465747Y-97009692D01*
X156465130Y-97008576D01*
X156463705Y-97005998D01*
X156461707Y-97002497D01*
X156461684Y-97002456D01*
X156424297Y-96938893D01*
X156421703Y-96934649D01*
X156387212Y-96880035D01*
X156360153Y-96837213D01*
X156358918Y-96835173D01*
X156341846Y-96805677D01*
X156339606Y-96801434D01*
X156330025Y-96781444D01*
X156327523Y-96775433D01*
X156321203Y-96757667D01*
X156319228Y-96750924D01*
X156313411Y-96725889D01*
X156312273Y-96719484D01*
X156307227Y-96678783D01*
X156306798Y-96673422D01*
X156304518Y-96610252D01*
X156304459Y-96608720D01*
X156302460Y-96600025D01*
X156299310Y-96572250D01*
X156299310Y-96120003D01*
X160988245Y-96120003D01*
X161008440Y-96299249D01*
X161008441Y-96299254D01*
X161068021Y-96469523D01*
X161141408Y-96586317D01*
X161163994Y-96622262D01*
X161291548Y-96749816D01*
X161373701Y-96801436D01*
X161430602Y-96837190D01*
X161444288Y-96845789D01*
X161614554Y-96905368D01*
X161614555Y-96905368D01*
X161614560Y-96905369D01*
X161705056Y-96915565D01*
X161748850Y-96920499D01*
X161748853Y-96920500D01*
X161748856Y-96920500D01*
X162938767Y-96920500D01*
X162938768Y-96920499D01*
X163005914Y-96912934D01*
X163073059Y-96905369D01*
X163073062Y-96905368D01*
X163073065Y-96905368D01*
X163243332Y-96845789D01*
X163396072Y-96749816D01*
X163523626Y-96622262D01*
X163619599Y-96469522D01*
X163679178Y-96299255D01*
X163687601Y-96224499D01*
X163699375Y-96120003D01*
X165418245Y-96120003D01*
X165438440Y-96299249D01*
X165438441Y-96299254D01*
X165498021Y-96469523D01*
X165571408Y-96586317D01*
X165593994Y-96622262D01*
X165721548Y-96749816D01*
X165803701Y-96801436D01*
X165860602Y-96837190D01*
X165874288Y-96845789D01*
X166044554Y-96905368D01*
X166044555Y-96905368D01*
X166044560Y-96905369D01*
X166135056Y-96915565D01*
X166178850Y-96920499D01*
X166178853Y-96920500D01*
X166178856Y-96920500D01*
X166868767Y-96920500D01*
X166868768Y-96920499D01*
X166935914Y-96912934D01*
X167003059Y-96905369D01*
X167003062Y-96905368D01*
X167003065Y-96905368D01*
X167173332Y-96845789D01*
X167326072Y-96749816D01*
X167453626Y-96622262D01*
X167549599Y-96469522D01*
X167609178Y-96299255D01*
X167617601Y-96224499D01*
X167629375Y-96120003D01*
X167629375Y-96119996D01*
X167609179Y-95940750D01*
X167609178Y-95940745D01*
X167605140Y-95929206D01*
X167549599Y-95770478D01*
X167453626Y-95617738D01*
X167326072Y-95490184D01*
X167326072Y-95490183D01*
X167173333Y-95394211D01*
X167003064Y-95334631D01*
X167003059Y-95334630D01*
X166868770Y-95319500D01*
X166868764Y-95319500D01*
X166178856Y-95319500D01*
X166178849Y-95319500D01*
X166044560Y-95334630D01*
X166044555Y-95334631D01*
X165874286Y-95394211D01*
X165721547Y-95490184D01*
X165593994Y-95617737D01*
X165498021Y-95770476D01*
X165438441Y-95940745D01*
X165438440Y-95940750D01*
X165418245Y-96119996D01*
X165418245Y-96120003D01*
X163699375Y-96120003D01*
X163699375Y-96119996D01*
X163679179Y-95940750D01*
X163679178Y-95940745D01*
X163675140Y-95929206D01*
X163619599Y-95770478D01*
X163523626Y-95617738D01*
X163396072Y-95490184D01*
X163396071Y-95490183D01*
X163243330Y-95394209D01*
X163225036Y-95387808D01*
X163168261Y-95347086D01*
X163142514Y-95282133D01*
X163155971Y-95213571D01*
X163190503Y-95172394D01*
X163284261Y-95100451D01*
X163376508Y-94980233D01*
X163434497Y-94840236D01*
X163454276Y-94690000D01*
X163451805Y-94671234D01*
X163434497Y-94539765D01*
X163434497Y-94539764D01*
X163376508Y-94399767D01*
X163284261Y-94279549D01*
X163164043Y-94187302D01*
X163164039Y-94187300D01*
X163091998Y-94157460D01*
X163024046Y-94129313D01*
X163009981Y-94127461D01*
X162911537Y-94114500D01*
X162911530Y-94114500D01*
X162836090Y-94114500D01*
X162836082Y-94114500D01*
X162723574Y-94129313D01*
X162723573Y-94129313D01*
X162583580Y-94187300D01*
X162463359Y-94279549D01*
X162371110Y-94399770D01*
X162313123Y-94539763D01*
X162313122Y-94539765D01*
X162293344Y-94689999D01*
X162293344Y-94690000D01*
X162313122Y-94840234D01*
X162313123Y-94840236D01*
X162335517Y-94894301D01*
X162371112Y-94980233D01*
X162463359Y-95100451D01*
X162463361Y-95100452D01*
X162463363Y-95100455D01*
X162469106Y-95106198D01*
X162467107Y-95108196D01*
X162500223Y-95153539D01*
X162504385Y-95223285D01*
X162470179Y-95284209D01*
X162408465Y-95316969D01*
X162383538Y-95319500D01*
X161748849Y-95319500D01*
X161614560Y-95334630D01*
X161614555Y-95334631D01*
X161444286Y-95394211D01*
X161291547Y-95490184D01*
X161163994Y-95617737D01*
X161068021Y-95770476D01*
X161008441Y-95940745D01*
X161008440Y-95940750D01*
X160988245Y-96119996D01*
X160988245Y-96120003D01*
X156299310Y-96120003D01*
X156299310Y-92719918D01*
X156299292Y-92719461D01*
X156299292Y-92653567D01*
X156299293Y-92573086D01*
X156267475Y-92209371D01*
X156221281Y-91947378D01*
X156204082Y-91849834D01*
X156204080Y-91849829D01*
X156204078Y-91849813D01*
X156119766Y-91535147D01*
X156109588Y-91497159D01*
X156109581Y-91497138D01*
X155984716Y-91154067D01*
X155984708Y-91154048D01*
X155870031Y-90908121D01*
X155830416Y-90823165D01*
X155733918Y-90656025D01*
X155647865Y-90506974D01*
X155463277Y-90243354D01*
X155438451Y-90207898D01*
X155332079Y-90081128D01*
X155203769Y-89928213D01*
X155099798Y-89824241D01*
X155099785Y-89824227D01*
X155074685Y-89799127D01*
X155029105Y-89753545D01*
X155029083Y-89753525D01*
X154586710Y-89311152D01*
X154553225Y-89249829D01*
X154553511Y-89195830D01*
X154555429Y-89187444D01*
X154556151Y-89184115D01*
X154564730Y-89142307D01*
X154570884Y-89073830D01*
X154570883Y-89073790D01*
X154570939Y-89072111D01*
X154571356Y-89066685D01*
X154579455Y-89000000D01*
X154558950Y-88831128D01*
X154498628Y-88672070D01*
X154401993Y-88532071D01*
X154274662Y-88419266D01*
X154274659Y-88419263D01*
X154124036Y-88340210D01*
X153958866Y-88299500D01*
X153788754Y-88299500D01*
X153623583Y-88340210D01*
X153472960Y-88419263D01*
X153345626Y-88532072D01*
X153248992Y-88672068D01*
X153188670Y-88831125D01*
X153188669Y-88831130D01*
X153168165Y-88999999D01*
X138473810Y-88999999D01*
X138473810Y-88752172D01*
X138473809Y-88752155D01*
X138467408Y-88692627D01*
X138467406Y-88692620D01*
X138417164Y-88557913D01*
X138417160Y-88557906D01*
X138331000Y-88442812D01*
X138330997Y-88442809D01*
X138215903Y-88356649D01*
X138215896Y-88356645D01*
X138090116Y-88309732D01*
X138034182Y-88267860D01*
X138009765Y-88202396D01*
X138024617Y-88134123D01*
X138074022Y-88084718D01*
X138083338Y-88080127D01*
X138146575Y-88052206D01*
X138226016Y-87972765D01*
X138271395Y-87869991D01*
X138274310Y-87844865D01*
X138274310Y-87480003D01*
X160988245Y-87480003D01*
X161008440Y-87659249D01*
X161008441Y-87659254D01*
X161068021Y-87829523D01*
X161158027Y-87972765D01*
X161163994Y-87982262D01*
X161291548Y-88109816D01*
X161444288Y-88205789D01*
X161614554Y-88265368D01*
X161614555Y-88265368D01*
X161614560Y-88265369D01*
X161705056Y-88275565D01*
X161748850Y-88280499D01*
X161748853Y-88280500D01*
X162383538Y-88280500D01*
X162450577Y-88300185D01*
X162496332Y-88352989D01*
X162506276Y-88422147D01*
X162477251Y-88485703D01*
X162468886Y-88493582D01*
X162469106Y-88493802D01*
X162463363Y-88499544D01*
X162463359Y-88499548D01*
X162463359Y-88499549D01*
X162418575Y-88557913D01*
X162371110Y-88619770D01*
X162313123Y-88759763D01*
X162313122Y-88759765D01*
X162293344Y-88909999D01*
X162293344Y-88910000D01*
X162313122Y-89060234D01*
X162313123Y-89060236D01*
X162365830Y-89187483D01*
X162371112Y-89200233D01*
X162463359Y-89320451D01*
X162583577Y-89412698D01*
X162723574Y-89470687D01*
X162836090Y-89485500D01*
X162836097Y-89485500D01*
X162911523Y-89485500D01*
X162911530Y-89485500D01*
X163024046Y-89470687D01*
X163164043Y-89412698D01*
X163284261Y-89320451D01*
X163376508Y-89200233D01*
X163434497Y-89060236D01*
X163454276Y-88910000D01*
X163434497Y-88759764D01*
X163376508Y-88619767D01*
X163284261Y-88499549D01*
X163190503Y-88427605D01*
X163149303Y-88371180D01*
X163145148Y-88301434D01*
X163179361Y-88240513D01*
X163225037Y-88212190D01*
X163243332Y-88205789D01*
X163396072Y-88109816D01*
X163523626Y-87982262D01*
X163619599Y-87829522D01*
X163679178Y-87659255D01*
X163699375Y-87480003D01*
X165418245Y-87480003D01*
X165438440Y-87659249D01*
X165438441Y-87659254D01*
X165498021Y-87829523D01*
X165588027Y-87972765D01*
X165593994Y-87982262D01*
X165721548Y-88109816D01*
X165874288Y-88205789D01*
X166044554Y-88265368D01*
X166044555Y-88265368D01*
X166044560Y-88265369D01*
X166135056Y-88275565D01*
X166178850Y-88280499D01*
X166178853Y-88280500D01*
X166178856Y-88280500D01*
X166868767Y-88280500D01*
X166868768Y-88280499D01*
X166935914Y-88272934D01*
X167003059Y-88265369D01*
X167003062Y-88265368D01*
X167003065Y-88265368D01*
X167173332Y-88205789D01*
X167326072Y-88109816D01*
X167453626Y-87982262D01*
X167549599Y-87829522D01*
X167609178Y-87659255D01*
X167629375Y-87480000D01*
X167609178Y-87300745D01*
X167549599Y-87130478D01*
X167453626Y-86977738D01*
X167326072Y-86850184D01*
X167326071Y-86850183D01*
X167173333Y-86754211D01*
X167003064Y-86694631D01*
X167003059Y-86694630D01*
X166868770Y-86679500D01*
X166868764Y-86679500D01*
X166178856Y-86679500D01*
X166178849Y-86679500D01*
X166044560Y-86694630D01*
X166044555Y-86694631D01*
X165874286Y-86754211D01*
X165721547Y-86850184D01*
X165593994Y-86977737D01*
X165498021Y-87130476D01*
X165438441Y-87300745D01*
X165438440Y-87300750D01*
X165418245Y-87479996D01*
X165418245Y-87480003D01*
X163699375Y-87480003D01*
X163699375Y-87480000D01*
X163679178Y-87300745D01*
X163619599Y-87130478D01*
X163523626Y-86977738D01*
X163396072Y-86850184D01*
X163396071Y-86850184D01*
X163243333Y-86754211D01*
X163073064Y-86694631D01*
X163073059Y-86694630D01*
X162938770Y-86679500D01*
X162938764Y-86679500D01*
X161748856Y-86679500D01*
X161748849Y-86679500D01*
X161614560Y-86694630D01*
X161614555Y-86694631D01*
X161444286Y-86754211D01*
X161291547Y-86850184D01*
X161163994Y-86977737D01*
X161068021Y-87130476D01*
X161008441Y-87300745D01*
X161008440Y-87300750D01*
X160988245Y-87479996D01*
X160988245Y-87480003D01*
X138274310Y-87480003D01*
X138274309Y-86755136D01*
X138274202Y-86754211D01*
X138271396Y-86730012D01*
X138271395Y-86730010D01*
X138271395Y-86730009D01*
X138226016Y-86627235D01*
X138146575Y-86547794D01*
X138074308Y-86515885D01*
X138043802Y-86502415D01*
X138018678Y-86499500D01*
X132998310Y-86499500D01*
X132931271Y-86479815D01*
X132885516Y-86427011D01*
X132874310Y-86375500D01*
X132874310Y-86224499D01*
X132893995Y-86157460D01*
X132946799Y-86111705D01*
X132998305Y-86100499D01*
X138018674Y-86100499D01*
X138018689Y-86100497D01*
X138018692Y-86100497D01*
X138043797Y-86097586D01*
X138043798Y-86097585D01*
X138043801Y-86097585D01*
X138146575Y-86052206D01*
X138226016Y-85972765D01*
X138271395Y-85869991D01*
X138274310Y-85844865D01*
X138274309Y-84755136D01*
X138274307Y-84755117D01*
X138271396Y-84730012D01*
X138271395Y-84730010D01*
X138271395Y-84730009D01*
X138226016Y-84627235D01*
X138146575Y-84547794D01*
X138074308Y-84515885D01*
X138043802Y-84502415D01*
X138018678Y-84499500D01*
X132998310Y-84499500D01*
X132931271Y-84479815D01*
X132885516Y-84427011D01*
X132874310Y-84375500D01*
X132874310Y-84324759D01*
X132874338Y-84324616D01*
X132874334Y-84324616D01*
X132874349Y-84300002D01*
X132874351Y-84300000D01*
X132874272Y-84299808D01*
X132874194Y-84299618D01*
X132874193Y-84299617D01*
X132874191Y-84299616D01*
X132873900Y-84299496D01*
X132873811Y-84299459D01*
X132849256Y-84299459D01*
X132849050Y-84299500D01*
X131998310Y-84299500D01*
X131931271Y-84279815D01*
X131885516Y-84227011D01*
X131874310Y-84175500D01*
X131874309Y-82801439D01*
X131874375Y-82798575D01*
X131882280Y-82627601D01*
X131892106Y-82427567D01*
X131892112Y-82427446D01*
X131892628Y-82421955D01*
X131918481Y-82236622D01*
X131946141Y-82050158D01*
X131947102Y-82045137D01*
X131990501Y-81860616D01*
X132035800Y-81679775D01*
X132037134Y-81675213D01*
X132097545Y-81494972D01*
X132097915Y-81493903D01*
X132160269Y-81319636D01*
X132161897Y-81315557D01*
X132168766Y-81300000D01*
X143668163Y-81300000D01*
X143688644Y-81442456D01*
X143746915Y-81570050D01*
X143748433Y-81573373D01*
X143842682Y-81682143D01*
X143963757Y-81759953D01*
X143963760Y-81759954D01*
X143963759Y-81759954D01*
X144101846Y-81800499D01*
X144101848Y-81800500D01*
X144101849Y-81800500D01*
X144245772Y-81800500D01*
X144245772Y-81800499D01*
X144383863Y-81759953D01*
X144504938Y-81682143D01*
X144599187Y-81573373D01*
X144658975Y-81442457D01*
X144679457Y-81300000D01*
X144658975Y-81157543D01*
X144599187Y-81026627D01*
X144504938Y-80917857D01*
X144383863Y-80840047D01*
X144383861Y-80840046D01*
X144383859Y-80840045D01*
X144383860Y-80840045D01*
X144245773Y-80799500D01*
X144245771Y-80799500D01*
X144101849Y-80799500D01*
X144101846Y-80799500D01*
X143963759Y-80840045D01*
X143842683Y-80917856D01*
X143748433Y-81026626D01*
X143748432Y-81026628D01*
X143688644Y-81157543D01*
X143668163Y-81300000D01*
X132168766Y-81300000D01*
X132238920Y-81141119D01*
X132239477Y-81139899D01*
X132318394Y-80973044D01*
X132320260Y-80969415D01*
X132413172Y-80802607D01*
X132414059Y-80801071D01*
X132508804Y-80642999D01*
X132510761Y-80639948D01*
X132618794Y-80482239D01*
X132620052Y-80480474D01*
X132729683Y-80332655D01*
X132731747Y-80330026D01*
X132853901Y-80182921D01*
X132855584Y-80180983D01*
X132979125Y-80044677D01*
X132981126Y-80042576D01*
X133116401Y-79907301D01*
X133118483Y-79905318D01*
X133254776Y-79781789D01*
X133256708Y-79780112D01*
X133403865Y-79657916D01*
X133406473Y-79655867D01*
X133554222Y-79546289D01*
X133556038Y-79544995D01*
X133713772Y-79436945D01*
X133716874Y-79434955D01*
X133874746Y-79340330D01*
X133876317Y-79339421D01*
X134043287Y-79246420D01*
X134046896Y-79244564D01*
X134213467Y-79165782D01*
X134214832Y-79165158D01*
X134389466Y-79088050D01*
X134393507Y-79086437D01*
X134567576Y-79024154D01*
X134568274Y-79023912D01*
X134749104Y-78963305D01*
X134753700Y-78961961D01*
X134933873Y-78916829D01*
X135119034Y-78873280D01*
X135124065Y-78872317D01*
X135309480Y-78844813D01*
X135495872Y-78818812D01*
X135501348Y-78818297D01*
X135697444Y-78808663D01*
X135872602Y-78800565D01*
X135875458Y-78800500D01*
X164872370Y-78800500D01*
X164875234Y-78800566D01*
G37*
%TD.AperFunction*%
%TD*%
%TA.AperFunction,Conductor*%
%TO.N,/CP2102N_RESET*%
G36*
X147758110Y-90808446D02*
G01*
X147758433Y-90808769D01*
X148104135Y-91168256D01*
X148107400Y-91176595D01*
X148106046Y-91181834D01*
X148071675Y-91246849D01*
X148071486Y-91247180D01*
X148033843Y-91308391D01*
X148033701Y-91308611D01*
X147997322Y-91362243D01*
X147963148Y-91411433D01*
X147931960Y-91459576D01*
X147904628Y-91509936D01*
X147904626Y-91509940D01*
X147881951Y-91565883D01*
X147881946Y-91565899D01*
X147864742Y-91630778D01*
X147853820Y-91707956D01*
X147850462Y-91789531D01*
X147846698Y-91797656D01*
X147838772Y-91800750D01*
X147661228Y-91800750D01*
X147652955Y-91797323D01*
X147649538Y-91789531D01*
X147646178Y-91707956D01*
X147646178Y-91707949D01*
X147635257Y-91630780D01*
X147618051Y-91565894D01*
X147595373Y-91509942D01*
X147568038Y-91459576D01*
X147536860Y-91411448D01*
X147502676Y-91362243D01*
X147466297Y-91308611D01*
X147466155Y-91308391D01*
X147428512Y-91247180D01*
X147428323Y-91246849D01*
X147421349Y-91233657D01*
X147393952Y-91181832D01*
X147393116Y-91172918D01*
X147395862Y-91168259D01*
X147741567Y-90808768D01*
X147749771Y-90805181D01*
X147758110Y-90808446D01*
G37*
%TD.AperFunction*%
%TD*%
%TA.AperFunction,Conductor*%
%TO.N,/DC_SCK*%
G36*
X135699260Y-94854036D02*
G01*
X135782829Y-94898971D01*
X135783232Y-94899209D01*
X135859383Y-94948382D01*
X135859667Y-94948577D01*
X135925570Y-94996862D01*
X135925647Y-94996919D01*
X135985642Y-95043034D01*
X135985666Y-95043051D01*
X135985668Y-95043053D01*
X136043993Y-95085610D01*
X136044016Y-95085626D01*
X136105070Y-95123354D01*
X136105082Y-95123361D01*
X136173212Y-95154951D01*
X136173218Y-95154954D01*
X136219299Y-95168945D01*
X136252803Y-95179118D01*
X136348210Y-95194564D01*
X136452661Y-95199475D01*
X136460763Y-95203287D01*
X136463810Y-95211162D01*
X136463810Y-95388837D01*
X136460383Y-95397110D01*
X136452660Y-95400524D01*
X136366356Y-95404581D01*
X136348210Y-95405435D01*
X136348206Y-95405435D01*
X136348203Y-95405436D01*
X136252809Y-95420880D01*
X136252803Y-95420881D01*
X136252799Y-95420881D01*
X136252795Y-95420883D01*
X136173218Y-95445044D01*
X136173212Y-95445047D01*
X136105082Y-95476637D01*
X136105070Y-95476644D01*
X136044016Y-95514372D01*
X136043993Y-95514388D01*
X135985667Y-95556945D01*
X135985668Y-95556946D01*
X135985611Y-95556987D01*
X135925678Y-95603055D01*
X135925570Y-95603136D01*
X135859667Y-95651421D01*
X135859383Y-95651616D01*
X135783232Y-95700789D01*
X135782829Y-95701027D01*
X135699260Y-95745963D01*
X135690350Y-95746863D01*
X135685609Y-95744091D01*
X135640713Y-95700917D01*
X135232578Y-95308432D01*
X135228991Y-95300229D01*
X135232256Y-95291890D01*
X135232579Y-95291567D01*
X135324379Y-95203287D01*
X135685611Y-94855907D01*
X135693948Y-94852643D01*
X135699260Y-94854036D01*
G37*
%TD.AperFunction*%
%TD*%
%TA.AperFunction,Conductor*%
%TO.N,/DC_RTS*%
G36*
X139931838Y-89893969D02*
G01*
X139935427Y-89895873D01*
X139995728Y-89927860D01*
X139996073Y-89928059D01*
X140056275Y-89965443D01*
X140056490Y-89965582D01*
X140109120Y-90001827D01*
X140157421Y-90036051D01*
X140204610Y-90067336D01*
X140254004Y-90094834D01*
X140254009Y-90094836D01*
X140308907Y-90117692D01*
X140308915Y-90117694D01*
X140308921Y-90117697D01*
X140351478Y-90129298D01*
X140372673Y-90135076D01*
X140372674Y-90135076D01*
X140372681Y-90135078D01*
X140448601Y-90146128D01*
X140528795Y-90149525D01*
X140536916Y-90153299D01*
X140540000Y-90161215D01*
X140540000Y-90338784D01*
X140536573Y-90347057D01*
X140528795Y-90350474D01*
X140454215Y-90353633D01*
X140448601Y-90353871D01*
X140448594Y-90353871D01*
X140448594Y-90353872D01*
X140372684Y-90364920D01*
X140372673Y-90364922D01*
X140308926Y-90382300D01*
X140308907Y-90382306D01*
X140254009Y-90405162D01*
X140254002Y-90405165D01*
X140254004Y-90405165D01*
X140204610Y-90432663D01*
X140204605Y-90432666D01*
X140204602Y-90432668D01*
X140157418Y-90463950D01*
X140157374Y-90463980D01*
X140123435Y-90488028D01*
X140109121Y-90498170D01*
X140056507Y-90534404D01*
X140056275Y-90534555D01*
X139996073Y-90571939D01*
X139995729Y-90572138D01*
X139931840Y-90606029D01*
X139922925Y-90606878D01*
X139918247Y-90604126D01*
X139687582Y-90382306D01*
X139558768Y-90258432D01*
X139555181Y-90250229D01*
X139558446Y-90241890D01*
X139558769Y-90241567D01*
X139650557Y-90153299D01*
X139918248Y-89895872D01*
X139926586Y-89892608D01*
X139931838Y-89893969D01*
G37*
%TD.AperFunction*%
%TD*%
%TA.AperFunction,Conductor*%
%TO.N,/DC_TX*%
G36*
X135699252Y-92854014D02*
G01*
X135784698Y-92899764D01*
X135821651Y-92923343D01*
X135862605Y-92949475D01*
X135862860Y-92949649D01*
X135930242Y-92998114D01*
X135930295Y-92998153D01*
X135991711Y-93044248D01*
X135991734Y-93044264D01*
X136051479Y-93086664D01*
X136051505Y-93086681D01*
X136113674Y-93123954D01*
X136114026Y-93124165D01*
X136114029Y-93124166D01*
X136114036Y-93124170D01*
X136183711Y-93155478D01*
X136183718Y-93155481D01*
X136183719Y-93155481D01*
X136183723Y-93155483D01*
X136265000Y-93179388D01*
X136362267Y-93194639D01*
X136362266Y-93194639D01*
X136362273Y-93194640D01*
X136468791Y-93199491D01*
X136476900Y-93203291D01*
X136479959Y-93211179D01*
X136479959Y-93388820D01*
X136476532Y-93397093D01*
X136468791Y-93400508D01*
X136362268Y-93405359D01*
X136265006Y-93420609D01*
X136183718Y-93444517D01*
X136183711Y-93444520D01*
X136114036Y-93475828D01*
X136114021Y-93475836D01*
X136051505Y-93513317D01*
X136051479Y-93513334D01*
X135991734Y-93555734D01*
X135930297Y-93601843D01*
X135930201Y-93601914D01*
X135862863Y-93650347D01*
X135862594Y-93650530D01*
X135784890Y-93700111D01*
X135784505Y-93700337D01*
X135699254Y-93745984D01*
X135690343Y-93746868D01*
X135685621Y-93744102D01*
X135489759Y-93555751D01*
X135341558Y-93413233D01*
X135341559Y-93413233D01*
X135232579Y-93308432D01*
X135228991Y-93300228D01*
X135232256Y-93291889D01*
X135232546Y-93291598D01*
X135685622Y-92855896D01*
X135693960Y-92852632D01*
X135699252Y-92854014D01*
G37*
%TD.AperFunction*%
%TD*%
%TA.AperFunction,Conductor*%
%TO.N,/CP2102N_SCK*%
G36*
X148137595Y-89612081D02*
G01*
X148141183Y-89620285D01*
X148141183Y-89620743D01*
X148131435Y-90119375D01*
X148127847Y-90127579D01*
X148123169Y-90130331D01*
X148054036Y-90151541D01*
X148053652Y-90151644D01*
X147984638Y-90167781D01*
X147984367Y-90167838D01*
X147921523Y-90179424D01*
X147863221Y-90189368D01*
X147863188Y-90189374D01*
X147807710Y-90200617D01*
X147807699Y-90200620D01*
X147753330Y-90216102D01*
X147698337Y-90238766D01*
X147698334Y-90238767D01*
X147640960Y-90271562D01*
X147579465Y-90317430D01*
X147579459Y-90317435D01*
X147520353Y-90371736D01*
X147511943Y-90374810D01*
X147504165Y-90371393D01*
X147378604Y-90245832D01*
X147375177Y-90237559D01*
X147378259Y-90229647D01*
X147432565Y-90170536D01*
X147478435Y-90109039D01*
X147511230Y-90051665D01*
X147533896Y-89996665D01*
X147549379Y-89942295D01*
X147560625Y-89886806D01*
X147570579Y-89828452D01*
X147582170Y-89765582D01*
X147582217Y-89765360D01*
X147598354Y-89696345D01*
X147598447Y-89695996D01*
X147619669Y-89626828D01*
X147625370Y-89619926D01*
X147630622Y-89618564D01*
X148129257Y-89608816D01*
X148137595Y-89612081D01*
G37*
%TD.AperFunction*%
%TD*%
%TA.AperFunction,Conductor*%
%TO.N,/DC_SCK*%
G36*
X140039633Y-94919110D02*
G01*
X140438758Y-95218219D01*
X140443324Y-95225923D01*
X140441105Y-95234598D01*
X140440823Y-95234959D01*
X140126363Y-95622067D01*
X140118487Y-95626328D01*
X140113118Y-95625624D01*
X140040744Y-95598062D01*
X140040372Y-95597906D01*
X139972641Y-95566618D01*
X139972362Y-95566480D01*
X139913297Y-95535284D01*
X139913174Y-95535217D01*
X139859249Y-95505068D01*
X139849850Y-95500014D01*
X139806881Y-95476908D01*
X139806876Y-95476906D01*
X139806873Y-95476904D01*
X139806874Y-95476904D01*
X139752604Y-95451749D01*
X139752599Y-95451747D01*
X139692824Y-95430531D01*
X139623959Y-95414201D01*
X139623949Y-95414199D01*
X139542427Y-95403708D01*
X139455901Y-95400426D01*
X139447763Y-95396688D01*
X139444644Y-95388734D01*
X139444644Y-95211207D01*
X139448071Y-95202934D01*
X139455840Y-95199518D01*
X139534155Y-95196147D01*
X139608548Y-95185030D01*
X139670934Y-95167311D01*
X139724426Y-95143652D01*
X139772135Y-95114716D01*
X139817175Y-95081165D01*
X139862657Y-95043660D01*
X139911634Y-95002916D01*
X139911779Y-95002800D01*
X139929778Y-94988768D01*
X139967297Y-94959521D01*
X139967492Y-94959378D01*
X140025954Y-94918856D01*
X140034704Y-94916961D01*
X140039633Y-94919110D01*
G37*
%TD.AperFunction*%
%TD*%
%TA.AperFunction,Conductor*%
%TO.N,/CP2102N_SCK*%
G36*
X146847058Y-93463427D02*
G01*
X146850475Y-93471205D01*
X146853871Y-93551396D01*
X146853872Y-93551404D01*
X146864920Y-93627314D01*
X146864922Y-93627325D01*
X146882300Y-93691072D01*
X146882306Y-93691091D01*
X146905162Y-93745989D01*
X146905163Y-93745992D01*
X146905165Y-93745995D01*
X146932663Y-93795389D01*
X146963948Y-93842578D01*
X146963964Y-93842601D01*
X146963980Y-93842624D01*
X146974942Y-93858095D01*
X146998172Y-93890879D01*
X147034404Y-93943491D01*
X147034555Y-93943723D01*
X147071939Y-94003925D01*
X147072138Y-94004270D01*
X147106029Y-94068159D01*
X147106878Y-94077074D01*
X147104126Y-94081752D01*
X146758433Y-94441230D01*
X146750229Y-94444818D01*
X146741890Y-94441553D01*
X146741567Y-94441230D01*
X146395873Y-94081752D01*
X146392608Y-94073413D01*
X146393969Y-94068162D01*
X146427867Y-94004256D01*
X146428059Y-94003925D01*
X146465443Y-93943723D01*
X146465571Y-93943526D01*
X146501827Y-93890879D01*
X146536051Y-93842578D01*
X146567336Y-93795389D01*
X146594834Y-93745995D01*
X146617697Y-93691078D01*
X146635078Y-93627318D01*
X146646128Y-93551398D01*
X146649525Y-93471204D01*
X146653299Y-93463084D01*
X146661215Y-93460000D01*
X146838785Y-93460000D01*
X146847058Y-93463427D01*
G37*
%TD.AperFunction*%
%TD*%
%TA.AperFunction,Conductor*%
%TO.N,+3.3V*%
G36*
X155995798Y-96613427D02*
G01*
X155999217Y-96621278D01*
X156002076Y-96700459D01*
X156002077Y-96700469D01*
X156011468Y-96776216D01*
X156011469Y-96776222D01*
X156026375Y-96840388D01*
X156026377Y-96840395D01*
X156046184Y-96896064D01*
X156070285Y-96946349D01*
X156070287Y-96946352D01*
X156098072Y-96994359D01*
X156098083Y-96994377D01*
X156098090Y-96994388D01*
X156128927Y-97043187D01*
X156128926Y-97043187D01*
X156128928Y-97043189D01*
X156162199Y-97095872D01*
X156162276Y-97095998D01*
X156197330Y-97155595D01*
X156197476Y-97155859D01*
X156229928Y-97218190D01*
X156230709Y-97227111D01*
X156227983Y-97231703D01*
X155882242Y-97591230D01*
X155874038Y-97594818D01*
X155865699Y-97591553D01*
X155865376Y-97591230D01*
X155519636Y-97231703D01*
X155516371Y-97223364D01*
X155517691Y-97218190D01*
X155550144Y-97155859D01*
X155550291Y-97155595D01*
X155585344Y-97095998D01*
X155585394Y-97095914D01*
X155618694Y-97043187D01*
X155649549Y-96994359D01*
X155677334Y-96946352D01*
X155701436Y-96896064D01*
X155721246Y-96840389D01*
X155736152Y-96776222D01*
X155745544Y-96700461D01*
X155748402Y-96621278D01*
X155752126Y-96613134D01*
X155760095Y-96610000D01*
X155987525Y-96610000D01*
X155995798Y-96613427D01*
G37*
%TD.AperFunction*%
%TD*%
%TA.AperFunction,Conductor*%
%TO.N,/DC_RTS*%
G36*
X145520353Y-92377762D02*
G01*
X145569401Y-92422821D01*
X145579462Y-92432065D01*
X145640959Y-92477935D01*
X145698334Y-92510730D01*
X145720471Y-92519853D01*
X145753330Y-92533395D01*
X145753331Y-92533395D01*
X145753333Y-92533396D01*
X145807703Y-92548879D01*
X145863192Y-92560125D01*
X145921547Y-92570079D01*
X145984408Y-92581668D01*
X145984628Y-92581714D01*
X146017088Y-92589304D01*
X146053653Y-92597854D01*
X146054009Y-92597949D01*
X146123170Y-92619168D01*
X146130073Y-92624870D01*
X146131435Y-92630124D01*
X146141183Y-93128756D01*
X146137918Y-93137095D01*
X146129714Y-93140683D01*
X146129256Y-93140683D01*
X145630624Y-93130935D01*
X145622420Y-93127347D01*
X145619669Y-93122670D01*
X145598449Y-93053509D01*
X145598354Y-93053153D01*
X145582217Y-92984138D01*
X145582168Y-92983908D01*
X145570579Y-92921047D01*
X145560625Y-92862692D01*
X145549379Y-92807203D01*
X145533896Y-92752833D01*
X145511230Y-92697834D01*
X145478435Y-92640459D01*
X145432565Y-92578962D01*
X145415259Y-92560125D01*
X145378262Y-92519853D01*
X145375188Y-92511443D01*
X145378604Y-92503666D01*
X145504166Y-92378104D01*
X145512438Y-92374678D01*
X145520353Y-92377762D01*
G37*
%TD.AperFunction*%
%TD*%
%TA.AperFunction,Conductor*%
%TO.N,/DC_TX*%
G36*
X135755481Y-92857173D02*
G01*
X135924447Y-93026139D01*
X135921411Y-93029327D01*
X135918579Y-93032573D01*
X135915980Y-93035786D01*
X135913640Y-93038874D01*
X135911587Y-93041744D01*
X135909850Y-93044306D01*
X135908456Y-93046467D01*
X135907432Y-93048136D01*
X135906807Y-93049221D01*
X135906609Y-93049631D01*
X135361014Y-93431943D01*
X135361013Y-93431943D01*
X135351485Y-93438620D01*
X135342743Y-93440561D01*
X135335189Y-93435752D01*
X135333248Y-93427010D01*
X135335187Y-93422327D01*
X135724098Y-92867315D01*
X135725065Y-92867087D01*
X135726112Y-92866107D01*
X135727342Y-92865353D01*
X135729503Y-92863959D01*
X135732064Y-92862221D01*
X135734935Y-92860169D01*
X135738022Y-92857829D01*
X135739846Y-92856352D01*
X135748431Y-92853810D01*
X135755481Y-92857173D01*
G37*
%TD.AperFunction*%
%TD*%
%TA.AperFunction,Conductor*%
%TO.N,/DC_TX*%
G36*
X135699252Y-92854014D02*
G01*
X135784698Y-92899764D01*
X135821651Y-92923343D01*
X135862605Y-92949475D01*
X135862860Y-92949649D01*
X135930242Y-92998114D01*
X135930295Y-92998153D01*
X135991711Y-93044248D01*
X135991734Y-93044264D01*
X136051479Y-93086664D01*
X136051505Y-93086681D01*
X136113674Y-93123954D01*
X136114026Y-93124165D01*
X136114029Y-93124166D01*
X136114036Y-93124170D01*
X136183711Y-93155478D01*
X136183718Y-93155481D01*
X136183719Y-93155481D01*
X136183723Y-93155483D01*
X136265000Y-93179388D01*
X136362267Y-93194639D01*
X136362266Y-93194639D01*
X136362273Y-93194640D01*
X136468791Y-93199491D01*
X136476900Y-93203291D01*
X136479959Y-93211179D01*
X136479959Y-93388820D01*
X136476532Y-93397093D01*
X136468791Y-93400508D01*
X136362268Y-93405359D01*
X136265006Y-93420609D01*
X136183718Y-93444517D01*
X136183711Y-93444520D01*
X136114036Y-93475828D01*
X136114021Y-93475836D01*
X136051505Y-93513317D01*
X136051479Y-93513334D01*
X135991734Y-93555734D01*
X135930297Y-93601843D01*
X135930201Y-93601914D01*
X135862863Y-93650347D01*
X135862594Y-93650530D01*
X135784890Y-93700111D01*
X135784505Y-93700337D01*
X135699254Y-93745984D01*
X135690343Y-93746868D01*
X135685621Y-93744102D01*
X135489759Y-93555751D01*
X135341558Y-93413233D01*
X135341559Y-93413233D01*
X135232579Y-93308432D01*
X135228991Y-93300228D01*
X135232256Y-93291889D01*
X135232546Y-93291598D01*
X135685622Y-92855896D01*
X135693960Y-92852632D01*
X135699252Y-92854014D01*
G37*
%TD.AperFunction*%
%TD*%
M02*
