%TF.GenerationSoftware,KiCad,Pcbnew,7.0.5-0*%
%TF.CreationDate,2023-07-07T09:12:39-05:00*%
%TF.ProjectId,DCSDv2_CP2102N,44435344-7632-45f4-9350-323130324e2e,rev?*%
%TF.SameCoordinates,Original*%
%TF.FileFunction,Legend,Bot*%
%TF.FilePolarity,Positive*%
%FSLAX46Y46*%
G04 Gerber Fmt 4.6, Leading zero omitted, Abs format (unit mm)*
G04 Created by KiCad (PCBNEW 7.0.5-0) date 2023-07-07 09:12:39*
%MOMM*%
%LPD*%
G01*
G04 APERTURE LIST*
%ADD10C,0.150000*%
%ADD11C,0.100000*%
%ADD12C,0.650000*%
%ADD13O,2.100000X1.000000*%
%ADD14O,1.600000X1.000000*%
%ADD15R,5.000000X1.000000*%
G04 APERTURE END LIST*
D10*
X135296847Y-103109524D02*
X134487323Y-103109524D01*
X134487323Y-103109524D02*
X134392085Y-103157143D01*
X134392085Y-103157143D02*
X134344466Y-103204762D01*
X134344466Y-103204762D02*
X134296847Y-103300000D01*
X134296847Y-103300000D02*
X134296847Y-103442857D01*
X134296847Y-103442857D02*
X134344466Y-103538095D01*
X134677800Y-103109524D02*
X134630180Y-103204762D01*
X134630180Y-103204762D02*
X134630180Y-103395238D01*
X134630180Y-103395238D02*
X134677800Y-103490476D01*
X134677800Y-103490476D02*
X134725419Y-103538095D01*
X134725419Y-103538095D02*
X134820657Y-103585714D01*
X134820657Y-103585714D02*
X135106371Y-103585714D01*
X135106371Y-103585714D02*
X135201609Y-103538095D01*
X135201609Y-103538095D02*
X135249228Y-103490476D01*
X135249228Y-103490476D02*
X135296847Y-103395238D01*
X135296847Y-103395238D02*
X135296847Y-103204762D01*
X135296847Y-103204762D02*
X135249228Y-103109524D01*
X134630180Y-102633333D02*
X135296847Y-102633333D01*
X135630180Y-102633333D02*
X135582561Y-102680952D01*
X135582561Y-102680952D02*
X135534942Y-102633333D01*
X135534942Y-102633333D02*
X135582561Y-102585714D01*
X135582561Y-102585714D02*
X135630180Y-102633333D01*
X135630180Y-102633333D02*
X135534942Y-102633333D01*
X135296847Y-102300000D02*
X135296847Y-101919048D01*
X135630180Y-102157143D02*
X134773038Y-102157143D01*
X134773038Y-102157143D02*
X134677800Y-102109524D01*
X134677800Y-102109524D02*
X134630180Y-102014286D01*
X134630180Y-102014286D02*
X134630180Y-101919048D01*
X134630180Y-101585714D02*
X135630180Y-101585714D01*
X134630180Y-101157143D02*
X135153990Y-101157143D01*
X135153990Y-101157143D02*
X135249228Y-101204762D01*
X135249228Y-101204762D02*
X135296847Y-101300000D01*
X135296847Y-101300000D02*
X135296847Y-101442857D01*
X135296847Y-101442857D02*
X135249228Y-101538095D01*
X135249228Y-101538095D02*
X135201609Y-101585714D01*
X135296847Y-100252381D02*
X134630180Y-100252381D01*
X135296847Y-100680952D02*
X134773038Y-100680952D01*
X134773038Y-100680952D02*
X134677800Y-100633333D01*
X134677800Y-100633333D02*
X134630180Y-100538095D01*
X134630180Y-100538095D02*
X134630180Y-100395238D01*
X134630180Y-100395238D02*
X134677800Y-100300000D01*
X134677800Y-100300000D02*
X134725419Y-100252381D01*
X134630180Y-99776190D02*
X135630180Y-99776190D01*
X135249228Y-99776190D02*
X135296847Y-99680952D01*
X135296847Y-99680952D02*
X135296847Y-99490476D01*
X135296847Y-99490476D02*
X135249228Y-99395238D01*
X135249228Y-99395238D02*
X135201609Y-99347619D01*
X135201609Y-99347619D02*
X135106371Y-99300000D01*
X135106371Y-99300000D02*
X134820657Y-99300000D01*
X134820657Y-99300000D02*
X134725419Y-99347619D01*
X134725419Y-99347619D02*
X134677800Y-99395238D01*
X134677800Y-99395238D02*
X134630180Y-99490476D01*
X134630180Y-99490476D02*
X134630180Y-99680952D01*
X134630180Y-99680952D02*
X134677800Y-99776190D01*
X134725419Y-98871428D02*
X134677800Y-98823809D01*
X134677800Y-98823809D02*
X134630180Y-98871428D01*
X134630180Y-98871428D02*
X134677800Y-98919047D01*
X134677800Y-98919047D02*
X134725419Y-98871428D01*
X134725419Y-98871428D02*
X134630180Y-98871428D01*
X134677800Y-97966667D02*
X134630180Y-98061905D01*
X134630180Y-98061905D02*
X134630180Y-98252381D01*
X134630180Y-98252381D02*
X134677800Y-98347619D01*
X134677800Y-98347619D02*
X134725419Y-98395238D01*
X134725419Y-98395238D02*
X134820657Y-98442857D01*
X134820657Y-98442857D02*
X135106371Y-98442857D01*
X135106371Y-98442857D02*
X135201609Y-98395238D01*
X135201609Y-98395238D02*
X135249228Y-98347619D01*
X135249228Y-98347619D02*
X135296847Y-98252381D01*
X135296847Y-98252381D02*
X135296847Y-98061905D01*
X135296847Y-98061905D02*
X135249228Y-97966667D01*
X134630180Y-97395238D02*
X134677800Y-97490476D01*
X134677800Y-97490476D02*
X134725419Y-97538095D01*
X134725419Y-97538095D02*
X134820657Y-97585714D01*
X134820657Y-97585714D02*
X135106371Y-97585714D01*
X135106371Y-97585714D02*
X135201609Y-97538095D01*
X135201609Y-97538095D02*
X135249228Y-97490476D01*
X135249228Y-97490476D02*
X135296847Y-97395238D01*
X135296847Y-97395238D02*
X135296847Y-97252381D01*
X135296847Y-97252381D02*
X135249228Y-97157143D01*
X135249228Y-97157143D02*
X135201609Y-97109524D01*
X135201609Y-97109524D02*
X135106371Y-97061905D01*
X135106371Y-97061905D02*
X134820657Y-97061905D01*
X134820657Y-97061905D02*
X134725419Y-97109524D01*
X134725419Y-97109524D02*
X134677800Y-97157143D01*
X134677800Y-97157143D02*
X134630180Y-97252381D01*
X134630180Y-97252381D02*
X134630180Y-97395238D01*
X134630180Y-96633333D02*
X135296847Y-96633333D01*
X135201609Y-96633333D02*
X135249228Y-96585714D01*
X135249228Y-96585714D02*
X135296847Y-96490476D01*
X135296847Y-96490476D02*
X135296847Y-96347619D01*
X135296847Y-96347619D02*
X135249228Y-96252381D01*
X135249228Y-96252381D02*
X135153990Y-96204762D01*
X135153990Y-96204762D02*
X134630180Y-96204762D01*
X135153990Y-96204762D02*
X135249228Y-96157143D01*
X135249228Y-96157143D02*
X135296847Y-96061905D01*
X135296847Y-96061905D02*
X135296847Y-95919048D01*
X135296847Y-95919048D02*
X135249228Y-95823809D01*
X135249228Y-95823809D02*
X135153990Y-95776190D01*
X135153990Y-95776190D02*
X134630180Y-95776190D01*
X135677800Y-94585715D02*
X134392085Y-95442857D01*
X134677800Y-93823810D02*
X134630180Y-93919048D01*
X134630180Y-93919048D02*
X134630180Y-94109524D01*
X134630180Y-94109524D02*
X134677800Y-94204762D01*
X134677800Y-94204762D02*
X134725419Y-94252381D01*
X134725419Y-94252381D02*
X134820657Y-94300000D01*
X134820657Y-94300000D02*
X135106371Y-94300000D01*
X135106371Y-94300000D02*
X135201609Y-94252381D01*
X135201609Y-94252381D02*
X135249228Y-94204762D01*
X135249228Y-94204762D02*
X135296847Y-94109524D01*
X135296847Y-94109524D02*
X135296847Y-93919048D01*
X135296847Y-93919048D02*
X135249228Y-93823810D01*
X134677800Y-93014286D02*
X134630180Y-93109524D01*
X134630180Y-93109524D02*
X134630180Y-93300000D01*
X134630180Y-93300000D02*
X134677800Y-93395238D01*
X134677800Y-93395238D02*
X134773038Y-93442857D01*
X134773038Y-93442857D02*
X135153990Y-93442857D01*
X135153990Y-93442857D02*
X135249228Y-93395238D01*
X135249228Y-93395238D02*
X135296847Y-93300000D01*
X135296847Y-93300000D02*
X135296847Y-93109524D01*
X135296847Y-93109524D02*
X135249228Y-93014286D01*
X135249228Y-93014286D02*
X135153990Y-92966667D01*
X135153990Y-92966667D02*
X135058752Y-92966667D01*
X135058752Y-92966667D02*
X134963514Y-93442857D01*
X135296847Y-92538095D02*
X134296847Y-92538095D01*
X135249228Y-92538095D02*
X135296847Y-92442857D01*
X135296847Y-92442857D02*
X135296847Y-92252381D01*
X135296847Y-92252381D02*
X135249228Y-92157143D01*
X135249228Y-92157143D02*
X135201609Y-92109524D01*
X135201609Y-92109524D02*
X135106371Y-92061905D01*
X135106371Y-92061905D02*
X134820657Y-92061905D01*
X134820657Y-92061905D02*
X134725419Y-92109524D01*
X134725419Y-92109524D02*
X134677800Y-92157143D01*
X134677800Y-92157143D02*
X134630180Y-92252381D01*
X134630180Y-92252381D02*
X134630180Y-92442857D01*
X134630180Y-92442857D02*
X134677800Y-92538095D01*
X134630180Y-91204762D02*
X135153990Y-91204762D01*
X135153990Y-91204762D02*
X135249228Y-91252381D01*
X135249228Y-91252381D02*
X135296847Y-91347619D01*
X135296847Y-91347619D02*
X135296847Y-91538095D01*
X135296847Y-91538095D02*
X135249228Y-91633333D01*
X134677800Y-91204762D02*
X134630180Y-91300000D01*
X134630180Y-91300000D02*
X134630180Y-91538095D01*
X134630180Y-91538095D02*
X134677800Y-91633333D01*
X134677800Y-91633333D02*
X134773038Y-91680952D01*
X134773038Y-91680952D02*
X134868276Y-91680952D01*
X134868276Y-91680952D02*
X134963514Y-91633333D01*
X134963514Y-91633333D02*
X135011133Y-91538095D01*
X135011133Y-91538095D02*
X135011133Y-91300000D01*
X135011133Y-91300000D02*
X135058752Y-91204762D01*
X135296847Y-90823809D02*
X134630180Y-90633333D01*
X134630180Y-90633333D02*
X135106371Y-90442857D01*
X135106371Y-90442857D02*
X134630180Y-90252381D01*
X134630180Y-90252381D02*
X135296847Y-90061905D01*
X134630180Y-89680952D02*
X135296847Y-89680952D01*
X135630180Y-89680952D02*
X135582561Y-89728571D01*
X135582561Y-89728571D02*
X135534942Y-89680952D01*
X135534942Y-89680952D02*
X135582561Y-89633333D01*
X135582561Y-89633333D02*
X135630180Y-89680952D01*
X135630180Y-89680952D02*
X135534942Y-89680952D01*
X134677800Y-88823810D02*
X134630180Y-88919048D01*
X134630180Y-88919048D02*
X134630180Y-89109524D01*
X134630180Y-89109524D02*
X134677800Y-89204762D01*
X134677800Y-89204762D02*
X134773038Y-89252381D01*
X134773038Y-89252381D02*
X135153990Y-89252381D01*
X135153990Y-89252381D02*
X135249228Y-89204762D01*
X135249228Y-89204762D02*
X135296847Y-89109524D01*
X135296847Y-89109524D02*
X135296847Y-88919048D01*
X135296847Y-88919048D02*
X135249228Y-88823810D01*
X135249228Y-88823810D02*
X135153990Y-88776191D01*
X135153990Y-88776191D02*
X135058752Y-88776191D01*
X135058752Y-88776191D02*
X134963514Y-89252381D01*
X134630180Y-88204762D02*
X134677800Y-88300000D01*
X134677800Y-88300000D02*
X134773038Y-88347619D01*
X134773038Y-88347619D02*
X135630180Y-88347619D01*
X135677800Y-87109524D02*
X134392085Y-87966666D01*
X134630180Y-86347619D02*
X135630180Y-86347619D01*
X134677800Y-86347619D02*
X134630180Y-86442857D01*
X134630180Y-86442857D02*
X134630180Y-86633333D01*
X134630180Y-86633333D02*
X134677800Y-86728571D01*
X134677800Y-86728571D02*
X134725419Y-86776190D01*
X134725419Y-86776190D02*
X134820657Y-86823809D01*
X134820657Y-86823809D02*
X135106371Y-86823809D01*
X135106371Y-86823809D02*
X135201609Y-86776190D01*
X135201609Y-86776190D02*
X135249228Y-86728571D01*
X135249228Y-86728571D02*
X135296847Y-86633333D01*
X135296847Y-86633333D02*
X135296847Y-86442857D01*
X135296847Y-86442857D02*
X135249228Y-86347619D01*
X134677800Y-85442857D02*
X134630180Y-85538095D01*
X134630180Y-85538095D02*
X134630180Y-85728571D01*
X134630180Y-85728571D02*
X134677800Y-85823809D01*
X134677800Y-85823809D02*
X134725419Y-85871428D01*
X134725419Y-85871428D02*
X134820657Y-85919047D01*
X134820657Y-85919047D02*
X135106371Y-85919047D01*
X135106371Y-85919047D02*
X135201609Y-85871428D01*
X135201609Y-85871428D02*
X135249228Y-85823809D01*
X135249228Y-85823809D02*
X135296847Y-85728571D01*
X135296847Y-85728571D02*
X135296847Y-85538095D01*
X135296847Y-85538095D02*
X135249228Y-85442857D01*
X135011133Y-85014285D02*
X135011133Y-84252381D01*
X134677800Y-83823809D02*
X134630180Y-83728571D01*
X134630180Y-83728571D02*
X134630180Y-83538095D01*
X134630180Y-83538095D02*
X134677800Y-83442857D01*
X134677800Y-83442857D02*
X134773038Y-83395238D01*
X134773038Y-83395238D02*
X134820657Y-83395238D01*
X134820657Y-83395238D02*
X134915895Y-83442857D01*
X134915895Y-83442857D02*
X134963514Y-83538095D01*
X134963514Y-83538095D02*
X134963514Y-83680952D01*
X134963514Y-83680952D02*
X135011133Y-83776190D01*
X135011133Y-83776190D02*
X135106371Y-83823809D01*
X135106371Y-83823809D02*
X135153990Y-83823809D01*
X135153990Y-83823809D02*
X135249228Y-83776190D01*
X135249228Y-83776190D02*
X135296847Y-83680952D01*
X135296847Y-83680952D02*
X135296847Y-83538095D01*
X135296847Y-83538095D02*
X135249228Y-83442857D01*
X134677800Y-82585714D02*
X134630180Y-82680952D01*
X134630180Y-82680952D02*
X134630180Y-82871428D01*
X134630180Y-82871428D02*
X134677800Y-82966666D01*
X134677800Y-82966666D02*
X134773038Y-83014285D01*
X134773038Y-83014285D02*
X135153990Y-83014285D01*
X135153990Y-83014285D02*
X135249228Y-82966666D01*
X135249228Y-82966666D02*
X135296847Y-82871428D01*
X135296847Y-82871428D02*
X135296847Y-82680952D01*
X135296847Y-82680952D02*
X135249228Y-82585714D01*
X135249228Y-82585714D02*
X135153990Y-82538095D01*
X135153990Y-82538095D02*
X135058752Y-82538095D01*
X135058752Y-82538095D02*
X134963514Y-83014285D01*
X134630180Y-82109523D02*
X135296847Y-82109523D01*
X135106371Y-82109523D02*
X135201609Y-82061904D01*
X135201609Y-82061904D02*
X135249228Y-82014285D01*
X135249228Y-82014285D02*
X135296847Y-81919047D01*
X135296847Y-81919047D02*
X135296847Y-81823809D01*
X134630180Y-81490475D02*
X135296847Y-81490475D01*
X135630180Y-81490475D02*
X135582561Y-81538094D01*
X135582561Y-81538094D02*
X135534942Y-81490475D01*
X135534942Y-81490475D02*
X135582561Y-81442856D01*
X135582561Y-81442856D02*
X135630180Y-81490475D01*
X135630180Y-81490475D02*
X135534942Y-81490475D01*
X134630180Y-80585714D02*
X135153990Y-80585714D01*
X135153990Y-80585714D02*
X135249228Y-80633333D01*
X135249228Y-80633333D02*
X135296847Y-80728571D01*
X135296847Y-80728571D02*
X135296847Y-80919047D01*
X135296847Y-80919047D02*
X135249228Y-81014285D01*
X134677800Y-80585714D02*
X134630180Y-80680952D01*
X134630180Y-80680952D02*
X134630180Y-80919047D01*
X134630180Y-80919047D02*
X134677800Y-81014285D01*
X134677800Y-81014285D02*
X134773038Y-81061904D01*
X134773038Y-81061904D02*
X134868276Y-81061904D01*
X134868276Y-81061904D02*
X134963514Y-81014285D01*
X134963514Y-81014285D02*
X135011133Y-80919047D01*
X135011133Y-80919047D02*
X135011133Y-80680952D01*
X135011133Y-80680952D02*
X135058752Y-80585714D01*
X134630180Y-79966666D02*
X134677800Y-80061904D01*
X134677800Y-80061904D02*
X134773038Y-80109523D01*
X134773038Y-80109523D02*
X135630180Y-80109523D01*
D11*
%TO.C,U2*%
X160127580Y-95448496D02*
X160127580Y-95258020D01*
X160127580Y-95258020D02*
X160175200Y-95162782D01*
X160175200Y-95162782D02*
X160222819Y-95115163D01*
X160222819Y-95115163D02*
X160365676Y-95019925D01*
X160365676Y-95019925D02*
X160556152Y-94972306D01*
X160556152Y-94972306D02*
X160937104Y-94972306D01*
X160937104Y-94972306D02*
X161032342Y-95019925D01*
X161032342Y-95019925D02*
X161079961Y-95067544D01*
X161079961Y-95067544D02*
X161127580Y-95162782D01*
X161127580Y-95162782D02*
X161127580Y-95353258D01*
X161127580Y-95353258D02*
X161079961Y-95448496D01*
X161079961Y-95448496D02*
X161032342Y-95496115D01*
X161032342Y-95496115D02*
X160937104Y-95543734D01*
X160937104Y-95543734D02*
X160699009Y-95543734D01*
X160699009Y-95543734D02*
X160603771Y-95496115D01*
X160603771Y-95496115D02*
X160556152Y-95448496D01*
X160556152Y-95448496D02*
X160508533Y-95353258D01*
X160508533Y-95353258D02*
X160508533Y-95162782D01*
X160508533Y-95162782D02*
X160556152Y-95067544D01*
X160556152Y-95067544D02*
X160603771Y-95019925D01*
X160603771Y-95019925D02*
X160699009Y-94972306D01*
X160127580Y-86972306D02*
X160127580Y-87543734D01*
X160127580Y-87258020D02*
X161127580Y-87258020D01*
X161127580Y-87258020D02*
X160984723Y-87353258D01*
X160984723Y-87353258D02*
X160889485Y-87448496D01*
X160889485Y-87448496D02*
X160841866Y-87543734D01*
X161500000Y-85800000D02*
X166500000Y-85800000D01*
X166500000Y-85800000D02*
X166500000Y-84800000D01*
X166500000Y-84800000D02*
X161500000Y-84800000D01*
X161500000Y-84800000D02*
X161500000Y-85800000D01*
X166500000Y-97800000D02*
X161500000Y-97800000D01*
X161500000Y-97800000D02*
X161500000Y-98800000D01*
X161500000Y-98800000D02*
X166500000Y-98800000D01*
X166500000Y-98800000D02*
X166500000Y-97800000D01*
%TD*%
%LPC*%
D12*
%TO.C,P1*%
X136600000Y-88910000D03*
X136600000Y-94690000D03*
D13*
X137130000Y-87480000D03*
D14*
X132950000Y-87480000D03*
D13*
X137130000Y-96120000D03*
D14*
X132950000Y-96120000D03*
%TD*%
D15*
%TO.C,U2*%
X164000000Y-87300000D03*
X164000000Y-89300000D03*
X164000000Y-91300000D03*
X164000000Y-93300000D03*
X164000000Y-95300000D03*
X164000000Y-85300000D03*
X164000000Y-98300000D03*
%TD*%
%LPD*%
M02*
