%TF.GenerationSoftware,KiCad,Pcbnew,7.0.5-0*%
%TF.CreationDate,2023-07-07T09:12:39-05:00*%
%TF.ProjectId,DCSDv2_CP2102N,44435344-7632-45f4-9350-323130324e2e,rev?*%
%TF.SameCoordinates,Original*%
%TF.FileFunction,Copper,L1,Top*%
%TF.FilePolarity,Positive*%
%FSLAX46Y46*%
G04 Gerber Fmt 4.6, Leading zero omitted, Abs format (unit mm)*
G04 Created by KiCad (PCBNEW 7.0.5-0) date 2023-07-07 09:12:39*
%MOMM*%
%LPD*%
G01*
G04 APERTURE LIST*
G04 Aperture macros list*
%AMRoundRect*
0 Rectangle with rounded corners*
0 $1 Rounding radius*
0 $2 $3 $4 $5 $6 $7 $8 $9 X,Y pos of 4 corners*
0 Add a 4 corners polygon primitive as box body*
4,1,4,$2,$3,$4,$5,$6,$7,$8,$9,$2,$3,0*
0 Add four circle primitives for the rounded corners*
1,1,$1+$1,$2,$3*
1,1,$1+$1,$4,$5*
1,1,$1+$1,$6,$7*
1,1,$1+$1,$8,$9*
0 Add four rect primitives between the rounded corners*
20,1,$1+$1,$2,$3,$4,$5,0*
20,1,$1+$1,$4,$5,$6,$7,0*
20,1,$1+$1,$6,$7,$8,$9,0*
20,1,$1+$1,$8,$9,$2,$3,0*%
%AMFreePoly0*
4,1,19,0.500000,-0.750000,0.000000,-0.750000,0.000000,-0.744911,-0.071157,-0.744911,-0.207708,-0.704816,-0.327430,-0.627875,-0.420627,-0.520320,-0.479746,-0.390866,-0.500000,-0.250000,-0.500000,0.250000,-0.479746,0.390866,-0.420627,0.520320,-0.327430,0.627875,-0.207708,0.704816,-0.071157,0.744911,0.000000,0.744911,0.000000,0.750000,0.500000,0.750000,0.500000,-0.750000,0.500000,-0.750000,
$1*%
%AMFreePoly1*
4,1,19,0.000000,0.744911,0.071157,0.744911,0.207708,0.704816,0.327430,0.627875,0.420627,0.520320,0.479746,0.390866,0.500000,0.250000,0.500000,-0.250000,0.479746,-0.390866,0.420627,-0.520320,0.327430,-0.627875,0.207708,-0.704816,0.071157,-0.744911,0.000000,-0.744911,0.000000,-0.750000,-0.500000,-0.750000,-0.500000,0.750000,0.000000,0.750000,0.000000,0.744911,0.000000,0.744911,
$1*%
G04 Aperture macros list end*
%TA.AperFunction,SMDPad,CuDef*%
%ADD10RoundRect,0.135000X0.185000X-0.135000X0.185000X0.135000X-0.185000X0.135000X-0.185000X-0.135000X0*%
%TD*%
%TA.AperFunction,SMDPad,CuDef*%
%ADD11FreePoly0,0.000000*%
%TD*%
%TA.AperFunction,SMDPad,CuDef*%
%ADD12FreePoly1,0.000000*%
%TD*%
%TA.AperFunction,SMDPad,CuDef*%
%ADD13RoundRect,0.218750X0.218750X0.256250X-0.218750X0.256250X-0.218750X-0.256250X0.218750X-0.256250X0*%
%TD*%
%TA.AperFunction,SMDPad,CuDef*%
%ADD14RoundRect,0.062500X-0.062500X0.337500X-0.062500X-0.337500X0.062500X-0.337500X0.062500X0.337500X0*%
%TD*%
%TA.AperFunction,SMDPad,CuDef*%
%ADD15RoundRect,0.062500X-0.337500X0.062500X-0.337500X-0.062500X0.337500X-0.062500X0.337500X0.062500X0*%
%TD*%
%TA.AperFunction,SMDPad,CuDef*%
%ADD16R,3.350000X3.350000*%
%TD*%
%TA.AperFunction,SMDPad,CuDef*%
%ADD17RoundRect,0.140000X0.170000X-0.140000X0.170000X0.140000X-0.170000X0.140000X-0.170000X-0.140000X0*%
%TD*%
%TA.AperFunction,SMDPad,CuDef*%
%ADD18RoundRect,0.135000X0.135000X0.185000X-0.135000X0.185000X-0.135000X-0.185000X0.135000X-0.185000X0*%
%TD*%
%TA.AperFunction,SMDPad,CuDef*%
%ADD19R,1.450000X0.600000*%
%TD*%
%TA.AperFunction,SMDPad,CuDef*%
%ADD20R,1.450000X0.300000*%
%TD*%
%TA.AperFunction,ComponentPad*%
%ADD21O,2.100000X1.000000*%
%TD*%
%TA.AperFunction,ComponentPad*%
%ADD22O,1.600000X1.000000*%
%TD*%
%TA.AperFunction,SMDPad,CuDef*%
%ADD23RoundRect,0.135000X-0.135000X-0.185000X0.135000X-0.185000X0.135000X0.185000X-0.135000X0.185000X0*%
%TD*%
%TA.AperFunction,SMDPad,CuDef*%
%ADD24R,5.000000X1.000000*%
%TD*%
%TA.AperFunction,ViaPad*%
%ADD25C,0.800000*%
%TD*%
%TA.AperFunction,Conductor*%
%ADD26C,0.250000*%
%TD*%
%TA.AperFunction,Conductor*%
%ADD27C,0.500000*%
%TD*%
%TA.AperFunction,Conductor*%
%ADD28C,0.343400*%
%TD*%
%TA.AperFunction,Conductor*%
%ADD29C,0.200000*%
%TD*%
G04 APERTURE END LIST*
%TA.AperFunction,EtchedComponent*%
%TO.C,JP2*%
G36*
X157900000Y-95500000D02*
G01*
X157400000Y-95500000D01*
X157400000Y-94900000D01*
X157900000Y-94900000D01*
X157900000Y-95500000D01*
G37*
%TD.AperFunction*%
%TA.AperFunction,EtchedComponent*%
%TO.C,JP1*%
G36*
X157900000Y-88700000D02*
G01*
X157400000Y-88700000D01*
X157400000Y-88100000D01*
X157900000Y-88100000D01*
X157900000Y-88700000D01*
G37*
%TD.AperFunction*%
%TD*%
D10*
%TO.P,R3,1*%
%TO.N,Net-(U1-VBUS)*%
X144200000Y-90710000D03*
%TO.P,R3,2*%
%TO.N,+5V*%
X144200000Y-89690000D03*
%TD*%
D11*
%TO.P,JP2,1,A*%
%TO.N,/CP2102N_RESET*%
X157000000Y-95200000D03*
D12*
%TO.P,JP2,2,B*%
%TO.N,/DC_RESET*%
X158300000Y-95200000D03*
%TD*%
D13*
%TO.P,D2,1,K*%
%TO.N,/RX_LED*%
X147387500Y-96610000D03*
%TO.P,D2,2,A*%
%TO.N,Net-(D2-A)*%
X145812500Y-96610000D03*
%TD*%
%TO.P,D1,1,K*%
%TO.N,/TX_LED*%
X147387500Y-98400000D03*
%TO.P,D1,2,A*%
%TO.N,Net-(D1-A)*%
X145812500Y-98400000D03*
%TD*%
D14*
%TO.P,U1,1,~{DCD}*%
%TO.N,unconnected-(U1-~{DCD}-Pad1)*%
X149600000Y-89850000D03*
%TO.P,U1,2,~{RI}/CLK*%
%TO.N,/CP2102N_SCK*%
X149100000Y-89850000D03*
%TO.P,U1,3,GND*%
%TO.N,GND*%
X148600000Y-89850000D03*
%TO.P,U1,4,D+*%
%TO.N,/USB_P*%
X148100000Y-89850000D03*
%TO.P,U1,5,D-*%
%TO.N,/USB_N*%
X147600000Y-89850000D03*
%TO.P,U1,6,VDD*%
%TO.N,+3.3V*%
X147100000Y-89850000D03*
%TO.P,U1,7,VREGIN*%
%TO.N,+5V*%
X146600000Y-89850000D03*
D15*
%TO.P,U1,8,VBUS*%
%TO.N,Net-(U1-VBUS)*%
X145650000Y-90800000D03*
%TO.P,U1,9,~{RST}*%
%TO.N,unconnected-(U1-~{RST}-Pad9)*%
X145650000Y-91300000D03*
%TO.P,U1,10,NC*%
%TO.N,unconnected-(U1-NC-Pad10)*%
X145650000Y-91800000D03*
%TO.P,U1,11,~{SUSPEND}*%
%TO.N,unconnected-(U1-~{SUSPEND}-Pad11)*%
X145650000Y-92300000D03*
%TO.P,U1,12,SUSPEND*%
%TO.N,unconnected-(U1-SUSPEND-Pad12)*%
X145650000Y-92800000D03*
%TO.P,U1,13,CHREN*%
%TO.N,unconnected-(U1-CHREN-Pad13)*%
X145650000Y-93300000D03*
%TO.P,U1,14,CHR1*%
%TO.N,unconnected-(U1-CHR1-Pad14)*%
X145650000Y-93800000D03*
D14*
%TO.P,U1,15,CHR0*%
%TO.N,unconnected-(U1-CHR0-Pad15)*%
X146600000Y-94750000D03*
%TO.P,U1,16,~{WAKEUP}/GPIO.3*%
%TO.N,unconnected-(U1-~{WAKEUP}{slash}GPIO.3-Pad16)*%
X147100000Y-94750000D03*
%TO.P,U1,17,RS485/GPIO.2*%
%TO.N,unconnected-(U1-RS485{slash}GPIO.2-Pad17)*%
X147600000Y-94750000D03*
%TO.P,U1,18,~{RXT}/GPIO.1*%
%TO.N,/RX_LED*%
X148100000Y-94750000D03*
%TO.P,U1,19,~{TXT}/GPIO.0*%
%TO.N,/TX_LED*%
X148600000Y-94750000D03*
%TO.P,U1,20,GPIO.6*%
%TO.N,/CP2102N_RESET*%
X149100000Y-94750000D03*
%TO.P,U1,21,GPIO.5*%
%TO.N,unconnected-(U1-GPIO.5-Pad21)*%
X149600000Y-94750000D03*
D15*
%TO.P,U1,22,GPIO.4*%
%TO.N,unconnected-(U1-GPIO.4-Pad22)*%
X150550000Y-93800000D03*
%TO.P,U1,23,~{CTS}*%
%TO.N,/DC_CTS*%
X150550000Y-93300000D03*
%TO.P,U1,24,~{RTS}*%
%TO.N,/DC_RTS*%
X150550000Y-92800000D03*
%TO.P,U1,25,RXD*%
%TO.N,/DC_RX*%
X150550000Y-92300000D03*
%TO.P,U1,26,TXD*%
%TO.N,/DC_TX*%
X150550000Y-91800000D03*
%TO.P,U1,27,~{DSR}*%
%TO.N,unconnected-(U1-~{DSR}-Pad27)*%
X150550000Y-91300000D03*
%TO.P,U1,28,~{DTR}*%
%TO.N,unconnected-(U1-~{DTR}-Pad28)*%
X150550000Y-90800000D03*
D16*
%TO.P,U1,29,GND*%
%TO.N,GND*%
X148100000Y-92300000D03*
%TD*%
D17*
%TO.P,C2,1*%
%TO.N,+5V*%
X143800000Y-88400000D03*
%TO.P,C2,2*%
%TO.N,GND*%
X143800000Y-87440000D03*
%TD*%
D18*
%TO.P,R6,1*%
%TO.N,Net-(D2-A)*%
X144570000Y-96580000D03*
%TO.P,R6,2*%
%TO.N,+3.3V*%
X143550000Y-96580000D03*
%TD*%
D19*
%TO.P,P1,A1,GND*%
%TO.N,GND*%
X138045000Y-88550000D03*
%TO.P,P1,A4,VBUS*%
%TO.N,+5V*%
X138045000Y-89350000D03*
D20*
%TO.P,P1,A5,CC*%
%TO.N,Net-(P1-CC)*%
X138045000Y-90550000D03*
%TO.P,P1,A6,D+*%
%TO.N,/USB_P*%
X138045000Y-91550000D03*
%TO.P,P1,A7,D-*%
%TO.N,/USB_N*%
X138045000Y-92050000D03*
%TO.P,P1,A8*%
%TO.N,N/C*%
X138045000Y-93050000D03*
D19*
%TO.P,P1,A9,VBUS*%
%TO.N,+5V*%
X138045000Y-94250000D03*
%TO.P,P1,A12,GND*%
%TO.N,GND*%
X138045000Y-95050000D03*
%TO.P,P1,B1,GND*%
X138045000Y-95050000D03*
%TO.P,P1,B4,VBUS*%
%TO.N,+5V*%
X138045000Y-94250000D03*
D20*
%TO.P,P1,B5,VCONN*%
%TO.N,Net-(P1-VCONN)*%
X138045000Y-93550000D03*
%TO.P,P1,B6,D+*%
%TO.N,/USB_P*%
X138045000Y-92550000D03*
%TO.P,P1,B7,D-*%
%TO.N,/USB_N*%
X138045000Y-91050000D03*
%TO.P,P1,B8*%
%TO.N,N/C*%
X138045000Y-90050000D03*
D19*
%TO.P,P1,B9,VBUS*%
%TO.N,+5V*%
X138045000Y-89350000D03*
%TO.P,P1,B12,GND*%
%TO.N,GND*%
X138045000Y-88550000D03*
D21*
%TO.P,P1,S1,SHIELD*%
%TO.N,unconnected-(P1-SHIELD-PadS1)*%
X137130000Y-87480000D03*
D22*
X132950000Y-87480000D03*
D21*
X137130000Y-96120000D03*
D22*
X132950000Y-96120000D03*
%TD*%
D17*
%TO.P,C1,1*%
%TO.N,+5V*%
X144800000Y-88400000D03*
%TO.P,C1,2*%
%TO.N,GND*%
X144800000Y-87440000D03*
%TD*%
D11*
%TO.P,JP1,1,A*%
%TO.N,/CP2102N_SCK*%
X157000000Y-88400000D03*
D12*
%TO.P,JP1,2,B*%
%TO.N,/DC_SCK*%
X158300000Y-88400000D03*
%TD*%
D18*
%TO.P,R5,1*%
%TO.N,Net-(D1-A)*%
X144570000Y-98380000D03*
%TO.P,R5,2*%
%TO.N,+3.3V*%
X143550000Y-98380000D03*
%TD*%
D10*
%TO.P,R4,1*%
%TO.N,GND*%
X144200000Y-92710000D03*
%TO.P,R4,2*%
%TO.N,Net-(U1-VBUS)*%
X144200000Y-91690000D03*
%TD*%
D17*
%TO.P,C4,1*%
%TO.N,+3.3V*%
X146800000Y-88200000D03*
%TO.P,C4,2*%
%TO.N,GND*%
X146800000Y-87240000D03*
%TD*%
%TO.P,C3,1*%
%TO.N,+3.3V*%
X145800000Y-88200000D03*
%TO.P,C3,2*%
%TO.N,GND*%
X145800000Y-87240000D03*
%TD*%
D23*
%TO.P,R1,1*%
%TO.N,Net-(P1-CC)*%
X140290000Y-90600000D03*
%TO.P,R1,2*%
%TO.N,GND*%
X141310000Y-90600000D03*
%TD*%
%TO.P,R2,1*%
%TO.N,Net-(P1-VCONN)*%
X140290000Y-93600000D03*
%TO.P,R2,2*%
%TO.N,GND*%
X141310000Y-93600000D03*
%TD*%
D24*
%TO.P,U2,2,SCK*%
%TO.N,/DC_SCK*%
X164000000Y-88300000D03*
%TO.P,U2,4,RX*%
%TO.N,/DC_RX*%
X164000000Y-90300000D03*
%TO.P,U2,6,RTS*%
%TO.N,/DC_RTS*%
X164000000Y-92300000D03*
%TO.P,U2,8,GND*%
%TO.N,GND*%
X164000000Y-94300000D03*
%TO.P,U2,10,3.3V*%
%TO.N,unconnected-(U2-3.3V-Pad10)*%
X164000000Y-96300000D03*
%TO.P,U2,SHIELD*%
%TO.N,N/C*%
X164000000Y-85300000D03*
X164000000Y-98300000D03*
%TD*%
D25*
%TO.N,GND*%
X146725500Y-86400000D03*
X139200000Y-88400000D03*
X145800000Y-86400000D03*
X144324500Y-93600000D03*
X160600000Y-89400000D03*
X147200000Y-91200000D03*
X160600000Y-94200000D03*
X140807386Y-94412114D03*
X143800000Y-86600000D03*
X144800000Y-86600000D03*
X140726110Y-89745057D03*
X149200000Y-91200000D03*
X148782999Y-88797632D03*
X139200000Y-95200000D03*
X149200000Y-93200000D03*
X147200000Y-93200000D03*
X148200000Y-92200000D03*
%TO.N,+3.3V*%
X145600000Y-89000000D03*
X143600000Y-97400000D03*
%TO.N,/DC_RESET*%
X161000000Y-95200000D03*
%TO.N,/DC_CTS*%
X161046991Y-93306018D03*
%TO.N,/DC_TX*%
X159400000Y-91337701D03*
%TD*%
D26*
%TO.N,+5V*%
X141320038Y-94924766D02*
X141853845Y-94390959D01*
X140294733Y-94924766D02*
X140063524Y-94693557D01*
X142600000Y-92589583D02*
X142600000Y-92421370D01*
X141717613Y-88400000D02*
X144000000Y-88400000D01*
X138992682Y-94250000D02*
X138045000Y-94250000D01*
X144120000Y-89770000D02*
X143400000Y-90490000D01*
X139424110Y-89350000D02*
X138045000Y-89350000D01*
X144473137Y-89850000D02*
X146600000Y-89850000D01*
X143400009Y-90490009D02*
G75*
G03*
X142600000Y-92421370I1931391J-1931391D01*
G01*
X144279989Y-89770011D02*
G75*
G03*
X144473137Y-89850000I193111J193111D01*
G01*
X140807386Y-95137099D02*
G75*
G03*
X141320038Y-94924766I14J724999D01*
G01*
X141853848Y-94390962D02*
G75*
G03*
X142600000Y-92589583I-1801348J1801362D01*
G01*
X144279999Y-89770001D02*
G75*
G03*
X144120001Y-89770001I-79999J-79996D01*
G01*
X140294737Y-94924762D02*
G75*
G03*
X140807386Y-95137114I512663J512662D01*
G01*
X139424110Y-89349993D02*
G75*
G03*
X140570862Y-88875000I-10J1621793D01*
G01*
X141717613Y-88399995D02*
G75*
G03*
X140570862Y-88875000I-13J-1621705D01*
G01*
X140063533Y-94693548D02*
G75*
G03*
X138992682Y-94250000I-1070833J-1070852D01*
G01*
D27*
%TO.N,GND*%
X138943933Y-95050000D02*
X138045000Y-95050000D01*
D26*
X144800000Y-86600000D02*
X144800000Y-87440000D01*
X148400000Y-92000000D02*
X148200000Y-92200000D01*
X148200000Y-92200000D02*
X148100000Y-92300000D01*
X144200000Y-93387465D02*
X144200000Y-92710000D01*
D27*
X160600000Y-94200000D02*
X160650000Y-94250000D01*
D26*
X141200575Y-94018924D02*
X140807386Y-94412114D01*
X143800000Y-86600000D02*
X143800000Y-87440000D01*
D27*
X138943933Y-88550000D02*
X138045000Y-88550000D01*
D26*
X141310000Y-90464473D02*
X141310000Y-90600000D01*
X148600000Y-91517157D02*
X148600000Y-89850000D01*
X144324500Y-93600000D02*
X144262250Y-93537750D01*
D27*
X139200000Y-88400000D02*
X139125000Y-88475000D01*
D26*
X145800000Y-86400000D02*
X145800000Y-87240000D01*
X141214168Y-90233115D02*
X140726110Y-89745057D01*
X146800000Y-87240000D02*
X146800000Y-86474500D01*
X148782999Y-88797632D02*
X148691499Y-88889131D01*
D27*
X139200000Y-95200000D02*
X139125000Y-95125000D01*
X160770710Y-94300000D02*
X164000000Y-94300000D01*
D26*
X147000000Y-86474500D02*
X146925500Y-86400000D01*
X148600000Y-89850000D02*
X148600000Y-89110030D01*
X141310000Y-93754750D02*
X141310000Y-93600000D01*
D27*
X160649997Y-94250003D02*
G75*
G03*
X160770710Y-94300000I120703J120703D01*
G01*
D26*
X141310015Y-90464473D02*
G75*
G03*
X141214167Y-90233116I-327215J-27D01*
G01*
X141200551Y-94018900D02*
G75*
G03*
X141310000Y-93754750I-264151J264200D01*
G01*
X144200015Y-93387465D02*
G75*
G03*
X144262250Y-93537750I212485J-35D01*
G01*
D27*
X138943933Y-88550014D02*
G75*
G03*
X139125000Y-88475000I-33J256114D01*
G01*
D26*
X148400033Y-92000033D02*
G75*
G03*
X148600000Y-91517157I-482933J482833D01*
G01*
X148691484Y-88889116D02*
G75*
G03*
X148600000Y-89110030I220916J-220884D01*
G01*
D27*
X139124990Y-95125010D02*
G75*
G03*
X138943933Y-95050000I-181090J-181090D01*
G01*
D26*
%TO.N,+3.3V*%
X146978105Y-89383335D02*
X146847385Y-89252615D01*
X145600000Y-89000000D02*
X146237518Y-89000000D01*
X145800000Y-88658578D02*
X145800000Y-88200000D01*
X143600000Y-98294644D02*
X143600000Y-97400000D01*
X147100000Y-89677615D02*
X147100000Y-89850000D01*
X145700000Y-88900000D02*
X145600000Y-89000000D01*
X143600000Y-96665355D02*
X143600000Y-97400000D01*
X143575000Y-98355000D02*
X143550000Y-98380000D01*
X143575000Y-96605000D02*
X143550000Y-96580000D01*
X147099981Y-89677615D02*
G75*
G03*
X146978104Y-89383336I-416181J15D01*
G01*
X146847380Y-89252620D02*
G75*
G03*
X146237518Y-89000000I-609880J-609880D01*
G01*
X145700006Y-88900006D02*
G75*
G03*
X145800000Y-88658578I-241406J241406D01*
G01*
X143574987Y-98354987D02*
G75*
G03*
X143600000Y-98294644I-60387J60387D01*
G01*
X143600018Y-96665355D02*
G75*
G03*
X143575000Y-96605000I-85418J-45D01*
G01*
%TO.N,/TX_LED*%
X147993750Y-97793750D02*
X147387500Y-98400000D01*
X148600000Y-96330133D02*
X148600000Y-94750000D01*
X147993740Y-97793740D02*
G75*
G03*
X148600000Y-96330133I-1463640J1463640D01*
G01*
%TO.N,Net-(D1-A)*%
X145778357Y-98380000D02*
X144570000Y-98380000D01*
X145802500Y-98390000D02*
X145812500Y-98400000D01*
X145802512Y-98389988D02*
G75*
G03*
X145778357Y-98380000I-24112J-24112D01*
G01*
%TO.N,/RX_LED*%
X148100000Y-95393686D02*
X148100000Y-94750000D01*
X147743750Y-96253750D02*
X147387500Y-96610000D01*
X147743754Y-96253754D02*
G75*
G03*
X148100000Y-95393686I-860054J860054D01*
G01*
%TO.N,Net-(D2-A)*%
X145797500Y-96595000D02*
X145812500Y-96610000D01*
X145761286Y-96580000D02*
X144570000Y-96580000D01*
X145797504Y-96594996D02*
G75*
G03*
X145761286Y-96580000I-36204J-36204D01*
G01*
%TO.N,/DC_RESET*%
X161000000Y-95200000D02*
X158300000Y-95200000D01*
%TO.N,/CP2102N_RESET*%
X149347487Y-95697487D02*
X149975000Y-96325000D01*
X156000000Y-96200000D02*
X157000000Y-95200000D01*
X149100000Y-95100000D02*
X149100000Y-94750000D01*
X152087436Y-97200000D02*
X153585786Y-97200000D01*
X149100008Y-95100000D02*
G75*
G03*
X149347487Y-95697487I844992J0D01*
G01*
X149974989Y-96325011D02*
G75*
G03*
X152087436Y-97200000I2112411J2112411D01*
G01*
X153585786Y-97199994D02*
G75*
G03*
X156000000Y-96200000I14J3414194D01*
G01*
%TO.N,Net-(P1-CC)*%
X140204644Y-90550000D02*
X138045000Y-90550000D01*
X140265000Y-90575000D02*
X140290000Y-90600000D01*
X140264987Y-90575013D02*
G75*
G03*
X140204644Y-90550000I-60387J-60387D01*
G01*
D28*
%TO.N,/USB_P*%
X148085200Y-89224733D02*
X148085200Y-85616724D01*
X134064800Y-88739341D02*
X134064800Y-88050000D01*
D29*
X136906000Y-92386000D02*
X136906000Y-91714000D01*
X137070000Y-91550000D02*
X138045000Y-91550000D01*
D28*
X136108782Y-84158592D02*
X135371126Y-84896249D01*
X139956539Y-82564800D02*
X145033275Y-82564800D01*
D29*
X138045000Y-92550000D02*
X137070000Y-92550000D01*
D28*
X136967964Y-91550000D02*
X138045000Y-91550000D01*
X134883688Y-90716312D02*
X135264126Y-91096750D01*
D29*
X136906000Y-91714000D02*
X137070000Y-91550000D01*
X137070000Y-92550000D02*
X136906000Y-92386000D01*
D28*
X148100000Y-89260464D02*
X148100000Y-89850000D01*
X136932233Y-91535200D02*
X136322637Y-91535200D01*
X148085189Y-85616724D02*
G75*
G03*
X147191311Y-83458689I-3051889J24D01*
G01*
X136950089Y-91542610D02*
G75*
G03*
X136932233Y-91535200I-17889J-17890D01*
G01*
X148085187Y-89224733D02*
G75*
G03*
X148092601Y-89242598I25313J33D01*
G01*
X148100015Y-89260464D02*
G75*
G03*
X148092600Y-89242599I-25315J-36D01*
G01*
X134064783Y-88739341D02*
G75*
G03*
X134883688Y-90716312I2795917J41D01*
G01*
X135371122Y-84896245D02*
G75*
G03*
X134064800Y-88050000I3153778J-3153755D01*
G01*
X139956539Y-82564842D02*
G75*
G03*
X136108782Y-84158592I-39J-5441558D01*
G01*
X136950110Y-91542589D02*
G75*
G03*
X136967964Y-91550000I17890J17889D01*
G01*
X147191319Y-83458681D02*
G75*
G03*
X145033275Y-82564800I-2158019J-2158019D01*
G01*
X135264099Y-91096777D02*
G75*
G03*
X136322637Y-91535200I1058501J1058577D01*
G01*
%TO.N,/USB_N*%
X147600000Y-89260464D02*
X147600000Y-89850000D01*
X147614800Y-89224733D02*
X147614800Y-85616727D01*
D29*
X138045000Y-92050000D02*
X139020000Y-92050000D01*
D28*
X135216312Y-90383688D02*
X135527863Y-90695239D01*
X134535200Y-88050000D02*
X134535200Y-88739338D01*
D29*
X139192000Y-91878000D02*
X139192000Y-91222000D01*
D28*
X135703747Y-85228875D02*
X136303631Y-84628992D01*
X136967964Y-91050000D02*
X138045000Y-91050000D01*
D29*
X139192000Y-91222000D02*
X139020000Y-91050000D01*
D28*
X140151387Y-83035200D02*
X145033272Y-83035200D01*
D29*
X139020000Y-91050000D02*
X138045000Y-91050000D01*
D28*
X136932233Y-91064800D02*
X136420061Y-91064800D01*
D29*
X139020000Y-92050000D02*
X139192000Y-91878000D01*
D28*
X135703742Y-85228870D02*
G75*
G03*
X134535200Y-88050000I2821158J-2821130D01*
G01*
X147614788Y-85616727D02*
G75*
G03*
X146858688Y-83791312I-2581488J27D01*
G01*
X136932233Y-91064813D02*
G75*
G03*
X136950098Y-91057399I-33J25313D01*
G01*
X146858696Y-83791304D02*
G75*
G03*
X145033272Y-83035200I-1825396J-1825396D01*
G01*
X136967964Y-91049985D02*
G75*
G03*
X136950099Y-91057400I36J-25315D01*
G01*
X134535185Y-88739338D02*
G75*
G03*
X135216313Y-90383687I2325515J38D01*
G01*
X135527874Y-90695228D02*
G75*
G03*
X136420061Y-91064800I892226J892228D01*
G01*
X147607411Y-89242610D02*
G75*
G03*
X147600000Y-89260464I17889J-17890D01*
G01*
X140151387Y-83035177D02*
G75*
G03*
X136303632Y-84628993I13J-5441523D01*
G01*
X147607390Y-89242589D02*
G75*
G03*
X147614800Y-89224733I-17890J17889D01*
G01*
D26*
%TO.N,Net-(P1-VCONN)*%
X138070000Y-93575000D02*
X138095000Y-93600000D01*
X140265000Y-93575000D02*
X140290000Y-93600000D01*
X140204644Y-93550000D02*
X138080355Y-93550000D01*
X140264987Y-93575013D02*
G75*
G03*
X140204644Y-93550000I-60387J-60387D01*
G01*
X138080355Y-93549893D02*
G75*
G03*
X138070001Y-93574999I45J-14707D01*
G01*
%TO.N,Net-(U1-VBUS)*%
X144353639Y-90800000D02*
X145650000Y-90800000D01*
X144200000Y-90773639D02*
X144200000Y-91690000D01*
X144245068Y-90754932D02*
G75*
G03*
X144200000Y-90773639I-18668J-18668D01*
G01*
X144244988Y-90755012D02*
G75*
G03*
X144353639Y-90800000I108612J108612D01*
G01*
%TO.N,/CP2102N_SCK*%
X149600995Y-88900995D02*
X149258394Y-89243597D01*
X150810507Y-88400000D02*
X157000000Y-88400000D01*
X149100000Y-89625996D02*
X149100000Y-89850000D01*
X150810507Y-88400002D02*
G75*
G03*
X149600995Y-88900995I-7J-1710498D01*
G01*
X149258395Y-89243598D02*
G75*
G03*
X149100000Y-89625996I382405J-382402D01*
G01*
%TO.N,/DC_CTS*%
X150553009Y-93303009D02*
X150550000Y-93300000D01*
X161046991Y-93306018D02*
X150560273Y-93306018D01*
X150553013Y-93303005D02*
G75*
G03*
X150560273Y-93306018I7287J7305D01*
G01*
%TO.N,/DC_RTS*%
X160174150Y-92800000D02*
X150550000Y-92800000D01*
X161381257Y-92300000D02*
X164000000Y-92300000D01*
X160174150Y-92800022D02*
G75*
G03*
X160777704Y-92550000I-50J853622D01*
G01*
X161381257Y-92299955D02*
G75*
G03*
X160777705Y-92550001I43J-853545D01*
G01*
%TO.N,/DC_RX*%
X158585786Y-92300000D02*
X150550000Y-92300000D01*
X163000000Y-90300000D02*
X164000000Y-90300000D01*
X160999999Y-91299999D02*
X161292893Y-91007106D01*
X163000000Y-90299996D02*
G75*
G03*
X161292893Y-91007106I0J-2414204D01*
G01*
X158585786Y-92299992D02*
G75*
G03*
X160999998Y-91299998I14J3414192D01*
G01*
%TO.N,/DC_TX*%
X158610806Y-91800000D02*
X150550000Y-91800000D01*
X159400000Y-91337701D02*
X159168850Y-91568850D01*
X158610806Y-91800001D02*
G75*
G03*
X159168849Y-91568849I-6J789201D01*
G01*
%TO.N,/DC_SCK*%
X158470710Y-88300000D02*
X164000000Y-88300000D01*
X158350000Y-88350000D02*
X158300000Y-88400000D01*
X158470710Y-88300005D02*
G75*
G03*
X158350000Y-88350000I-10J-170695D01*
G01*
%TD*%
%TA.AperFunction,Conductor*%
%TO.N,GND*%
G36*
X146926403Y-86751776D02*
G01*
X146930555Y-86804414D01*
X146937365Y-86849760D01*
X146946746Y-86889658D01*
X146956803Y-86920434D01*
X146956803Y-86920435D01*
X146956804Y-86920440D01*
X146958601Y-86925941D01*
X146958607Y-86925958D01*
X146966885Y-86946015D01*
X146972859Y-86960490D01*
X146989413Y-86995113D01*
X146989415Y-86995117D01*
X147008170Y-87031649D01*
X147008171Y-87031649D01*
X147008181Y-87031668D01*
X147029073Y-87071999D01*
X147040489Y-87094881D01*
X147048315Y-87110566D01*
X147048942Y-87119498D01*
X147046279Y-87123899D01*
X146808433Y-87371230D01*
X146800229Y-87374818D01*
X146791890Y-87371553D01*
X146791567Y-87371230D01*
X146553720Y-87123899D01*
X146550455Y-87115560D01*
X146551684Y-87110566D01*
X146570926Y-87071999D01*
X146591818Y-87031668D01*
X146610586Y-86995113D01*
X146627140Y-86960490D01*
X146627140Y-86960489D01*
X146641393Y-86925953D01*
X146653253Y-86889658D01*
X146662634Y-86849760D01*
X146669444Y-86804414D01*
X146673596Y-86751776D01*
X146675000Y-86690000D01*
X146925000Y-86690000D01*
X146926403Y-86751776D01*
G37*
%TD.AperFunction*%
%TD*%
%TA.AperFunction,Conductor*%
%TO.N,Net-(U1-VBUS)*%
G36*
X144208109Y-90583446D02*
G01*
X144208432Y-90583769D01*
X144221052Y-90596892D01*
X144443000Y-90827690D01*
X144420646Y-90872981D01*
X144400625Y-90912927D01*
X144382940Y-90949307D01*
X144379938Y-90956073D01*
X144379937Y-90956074D01*
X144367596Y-90983902D01*
X144367592Y-90983911D01*
X144354610Y-91018463D01*
X144354601Y-91018491D01*
X144343960Y-91054841D01*
X144343958Y-91054850D01*
X144335669Y-91094772D01*
X144329746Y-91140011D01*
X144329745Y-91140023D01*
X144326187Y-91192366D01*
X144326187Y-91192380D01*
X144325944Y-91204892D01*
X144325944Y-91204905D01*
X144325000Y-91253639D01*
X144075000Y-91253639D01*
X144073812Y-91192380D01*
X144070253Y-91140016D01*
X144064328Y-91094766D01*
X144056041Y-91054850D01*
X144045397Y-91018488D01*
X144045388Y-91018463D01*
X144032406Y-90983911D01*
X144032402Y-90983902D01*
X144017074Y-90949340D01*
X144017073Y-90949339D01*
X144017059Y-90949307D01*
X143999374Y-90912927D01*
X143979353Y-90872981D01*
X143960634Y-90835054D01*
X143960047Y-90826121D01*
X143962692Y-90821770D01*
X144191568Y-90583768D01*
X144199770Y-90580181D01*
X144208109Y-90583446D01*
G37*
%TD.AperFunction*%
%TD*%
%TA.AperFunction,Conductor*%
%TO.N,/DC_RESET*%
G36*
X158416321Y-94978598D02*
G01*
X158448779Y-94994488D01*
X158484170Y-95011785D01*
X158516562Y-95026877D01*
X158516588Y-95026889D01*
X158547631Y-95039871D01*
X158565451Y-95046093D01*
X158578792Y-95050752D01*
X158578795Y-95050753D01*
X158578804Y-95050756D01*
X158611631Y-95059581D01*
X158611633Y-95059581D01*
X158611635Y-95059582D01*
X158623633Y-95061847D01*
X158647639Y-95066381D01*
X158688352Y-95071193D01*
X158735297Y-95074054D01*
X158778502Y-95074801D01*
X158786715Y-95078370D01*
X158790000Y-95086499D01*
X158790000Y-95313500D01*
X158786573Y-95321773D01*
X158778502Y-95325198D01*
X158735311Y-95325944D01*
X158735282Y-95325945D01*
X158688350Y-95328806D01*
X158688345Y-95328806D01*
X158647647Y-95333617D01*
X158647631Y-95333619D01*
X158611635Y-95340416D01*
X158611630Y-95340418D01*
X158578795Y-95349245D01*
X158578792Y-95349246D01*
X158547626Y-95360129D01*
X158516595Y-95373106D01*
X158516562Y-95373121D01*
X158484170Y-95388213D01*
X158450760Y-95404542D01*
X158448783Y-95405509D01*
X158448779Y-95405511D01*
X158448778Y-95405510D01*
X158416324Y-95421399D01*
X158407387Y-95421959D01*
X158403070Y-95419324D01*
X158183769Y-95208433D01*
X158180181Y-95200229D01*
X158183446Y-95191890D01*
X158183769Y-95191567D01*
X158403072Y-94980672D01*
X158411409Y-94977409D01*
X158416321Y-94978598D01*
G37*
%TD.AperFunction*%
%TD*%
%TA.AperFunction,Conductor*%
%TO.N,GND*%
G36*
X144208110Y-92583446D02*
G01*
X144208433Y-92583769D01*
X144437293Y-92821755D01*
X144440558Y-92830094D01*
X144439340Y-92835065D01*
X144421212Y-92871608D01*
X144401519Y-92910293D01*
X144401498Y-92910336D01*
X144383974Y-92945465D01*
X144383949Y-92945519D01*
X144368610Y-92978898D01*
X144355473Y-93012334D01*
X144353749Y-93017920D01*
X144344629Y-93047463D01*
X144336111Y-93086059D01*
X144329969Y-93129855D01*
X144326250Y-93180588D01*
X144325000Y-93240000D01*
X144075000Y-93240000D01*
X144073749Y-93180588D01*
X144070030Y-93129855D01*
X144063888Y-93086059D01*
X144055370Y-93047463D01*
X144055369Y-93047461D01*
X144055364Y-93047441D01*
X144044528Y-93012343D01*
X144044527Y-93012342D01*
X144044523Y-93012327D01*
X144031395Y-92978913D01*
X144016032Y-92945481D01*
X143998480Y-92910293D01*
X143978787Y-92871608D01*
X143960657Y-92835063D01*
X143960051Y-92826130D01*
X143962703Y-92821758D01*
X144191567Y-92583768D01*
X144199771Y-92580181D01*
X144208110Y-92583446D01*
G37*
%TD.AperFunction*%
%TD*%
%TA.AperFunction,Conductor*%
%TO.N,+3.3V*%
G36*
X143673174Y-97005487D02*
G01*
X143761591Y-97051740D01*
X143761983Y-97051966D01*
X143844557Y-97104036D01*
X143845201Y-97104507D01*
X143858083Y-97115355D01*
X143912752Y-97161393D01*
X143914671Y-97163451D01*
X143937875Y-97195287D01*
X143954221Y-97217716D01*
X143956325Y-97226419D01*
X143953199Y-97232716D01*
X143792330Y-97399999D01*
X143792330Y-97400000D01*
X143600000Y-97600000D01*
X143606919Y-97207195D01*
X143608537Y-97115355D01*
X143610566Y-97000140D01*
X143641845Y-96990856D01*
X143673174Y-97005487D01*
G37*
%TD.AperFunction*%
%TA.AperFunction,Conductor*%
G36*
X143635889Y-96960041D02*
G01*
X143640638Y-96962259D01*
X143640642Y-96962260D01*
X143645302Y-96964436D01*
X143642776Y-96990580D01*
X143641845Y-96990856D01*
X143607155Y-96974655D01*
X143619139Y-96971099D01*
X143619292Y-96969518D01*
X143623498Y-96961613D01*
X143632062Y-96958996D01*
X143635889Y-96960041D01*
G37*
%TD.AperFunction*%
%TA.AperFunction,Conductor*%
G36*
X143513177Y-96756639D02*
G01*
X143536710Y-96790128D01*
X143536520Y-96797350D01*
X143532876Y-96805530D01*
X143524515Y-96808737D01*
X143516335Y-96805093D01*
X143515251Y-96803768D01*
X143511098Y-96797859D01*
X143512229Y-96755067D01*
X143513177Y-96756639D01*
G37*
%TD.AperFunction*%
%TA.AperFunction,Conductor*%
G36*
X143512229Y-96755067D02*
G01*
X143482202Y-96705256D01*
X143467233Y-96663219D01*
X143475853Y-96635189D01*
X143515644Y-96625831D01*
X143512229Y-96755067D01*
G37*
%TD.AperFunction*%
%TD*%
%TA.AperFunction,Conductor*%
%TO.N,+3.3V*%
G36*
X143534536Y-96454133D02*
G01*
X143534908Y-96454387D01*
X143803874Y-96645877D01*
X143808626Y-96653467D01*
X143808347Y-96658591D01*
X143795952Y-96702429D01*
X143782375Y-96747535D01*
X143769909Y-96788227D01*
X143758729Y-96826341D01*
X143748925Y-96863997D01*
X143740637Y-96903151D01*
X143740634Y-96903167D01*
X143733977Y-96945863D01*
X143729072Y-96994102D01*
X143729071Y-96994115D01*
X143729071Y-96994118D01*
X143726925Y-97033605D01*
X143726038Y-97049943D01*
X143725000Y-97115355D01*
X143486418Y-97115355D01*
X143478145Y-97111928D01*
X143474721Y-97103941D01*
X143473643Y-97059715D01*
X143469544Y-97012029D01*
X143462662Y-96970829D01*
X143452954Y-96934646D01*
X143440823Y-96903167D01*
X143440385Y-96902030D01*
X143440380Y-96902019D01*
X143440377Y-96902011D01*
X143424890Y-96871455D01*
X143406451Y-96841510D01*
X143385016Y-96810706D01*
X143360545Y-96777576D01*
X143337886Y-96747206D01*
X143335687Y-96738527D01*
X143337474Y-96733807D01*
X143518340Y-96457513D01*
X143525737Y-96452469D01*
X143534536Y-96454133D01*
G37*
%TD.AperFunction*%
%TD*%
%TA.AperFunction,Conductor*%
%TO.N,GND*%
G36*
X143808110Y-86408446D02*
G01*
X143808433Y-86408769D01*
X144154173Y-86768296D01*
X144157438Y-86776635D01*
X144156118Y-86781809D01*
X144123665Y-86844139D01*
X144123518Y-86844403D01*
X144088465Y-86904000D01*
X144088369Y-86904158D01*
X144055117Y-86956811D01*
X144024279Y-87005610D01*
X144024252Y-87005655D01*
X143996474Y-87053649D01*
X143972373Y-87103934D01*
X143961791Y-87133674D01*
X143961791Y-87133675D01*
X143952564Y-87159610D01*
X143937658Y-87223777D01*
X143928266Y-87299538D01*
X143925000Y-87390000D01*
X143675000Y-87390000D01*
X143671733Y-87299538D01*
X143662341Y-87223777D01*
X143647435Y-87159610D01*
X143627625Y-87103935D01*
X143603523Y-87053647D01*
X143575738Y-87005640D01*
X143544883Y-86956812D01*
X143544883Y-86956811D01*
X143544881Y-86956809D01*
X143511599Y-86904109D01*
X143511533Y-86904000D01*
X143476480Y-86844403D01*
X143476333Y-86844139D01*
X143443881Y-86781809D01*
X143443100Y-86772888D01*
X143445824Y-86768297D01*
X143791567Y-86408768D01*
X143799771Y-86405181D01*
X143808110Y-86408446D01*
G37*
%TD.AperFunction*%
%TD*%
%TA.AperFunction,Conductor*%
%TO.N,GND*%
G36*
X148724964Y-91524677D02*
G01*
X148720761Y-91619608D01*
X148719310Y-91631482D01*
X148719310Y-91631483D01*
X148719309Y-91631487D01*
X148711027Y-91699305D01*
X148710953Y-91699764D01*
X148697114Y-91767628D01*
X148697018Y-91768027D01*
X148680411Y-91827732D01*
X148680334Y-91827987D01*
X148662294Y-91883029D01*
X148644250Y-91936618D01*
X148644232Y-91936671D01*
X148627578Y-91992183D01*
X148627578Y-91992185D01*
X148613719Y-92052952D01*
X148604060Y-92122305D01*
X148604057Y-92122340D01*
X148600401Y-92195326D01*
X148596565Y-92203418D01*
X148591916Y-92205995D01*
X148336328Y-92278675D01*
X148336326Y-92278677D01*
X148072153Y-92353801D01*
X148034613Y-91835793D01*
X148097974Y-91811109D01*
X148160918Y-91792471D01*
X148221992Y-91777057D01*
X148279741Y-91762044D01*
X148332711Y-91744611D01*
X148379448Y-91721935D01*
X148418496Y-91691194D01*
X148448403Y-91649566D01*
X148467714Y-91594229D01*
X148474975Y-91522362D01*
X148724964Y-91524677D01*
G37*
%TD.AperFunction*%
%TD*%
%TA.AperFunction,Conductor*%
%TO.N,GND*%
G36*
X144328410Y-92897437D02*
G01*
X144338406Y-92964482D01*
X144353748Y-93017921D01*
X144353749Y-93017921D01*
X144354632Y-93020995D01*
X144376732Y-93069366D01*
X144376732Y-93069367D01*
X144390542Y-93090680D01*
X144404354Y-93111995D01*
X144437142Y-93151274D01*
X144472685Y-93187502D01*
X144474739Y-93189595D01*
X144474747Y-93189603D01*
X144516797Y-93229361D01*
X144562893Y-93272901D01*
X144563009Y-93273014D01*
X144606970Y-93316905D01*
X144610403Y-93325176D01*
X144609232Y-93330287D01*
X144391701Y-93779232D01*
X144385010Y-93785183D01*
X144376070Y-93784659D01*
X144375663Y-93784452D01*
X143935640Y-93549581D01*
X143929955Y-93542662D01*
X143929611Y-93537318D01*
X143942785Y-93458996D01*
X143942847Y-93458686D01*
X143960017Y-93384939D01*
X143960091Y-93384658D01*
X143978921Y-93319963D01*
X143978972Y-93319796D01*
X143998523Y-93260437D01*
X144017788Y-93202905D01*
X144035758Y-93143663D01*
X144051449Y-93079106D01*
X144053096Y-93069366D01*
X144063876Y-93005625D01*
X144072055Y-92919613D01*
X144075000Y-92817465D01*
X144325000Y-92817465D01*
X144328410Y-92897437D01*
G37*
%TD.AperFunction*%
%TD*%
%TA.AperFunction,Conductor*%
%TO.N,+3.3V*%
G36*
X146868039Y-88094685D02*
G01*
X146913794Y-88147489D01*
X146925000Y-88199000D01*
X146925000Y-88729999D01*
X147000694Y-88729999D01*
X147049202Y-88722316D01*
X147118495Y-88731270D01*
X147171947Y-88776267D01*
X147192587Y-88843018D01*
X147192600Y-88844789D01*
X147192600Y-89120563D01*
X147172915Y-89187602D01*
X147120111Y-89233357D01*
X147050953Y-89243301D01*
X146987397Y-89214276D01*
X146986841Y-89213791D01*
X146975000Y-89203406D01*
X146955375Y-89205990D01*
X146955367Y-89205992D01*
X146902995Y-89230414D01*
X146833918Y-89240906D01*
X146798187Y-89230414D01*
X146744759Y-89205500D01*
X146699188Y-89199501D01*
X146699185Y-89199500D01*
X146699179Y-89199500D01*
X146699172Y-89199500D01*
X146500819Y-89199500D01*
X146455243Y-89205500D01*
X146455233Y-89205503D01*
X146363086Y-89248472D01*
X146294009Y-89258964D01*
X146270715Y-89253472D01*
X146184863Y-89224240D01*
X146184856Y-89224238D01*
X146184854Y-89224238D01*
X146150222Y-89219646D01*
X146115593Y-89215054D01*
X146070086Y-89213115D01*
X146070081Y-89213115D01*
X145973326Y-89237104D01*
X145973321Y-89237105D01*
X145910103Y-89266819D01*
X145910099Y-89266821D01*
X145910091Y-89266825D01*
X145910082Y-89266830D01*
X145910080Y-89266832D01*
X145849352Y-89306807D01*
X145849335Y-89306820D01*
X145837290Y-89317490D01*
X145812698Y-89334464D01*
X145754431Y-89365046D01*
X145726480Y-89375647D01*
X145696032Y-89383152D01*
X145662579Y-89391397D01*
X145632905Y-89395000D01*
X145567095Y-89395000D01*
X145537420Y-89391397D01*
X145494325Y-89380775D01*
X145433944Y-89345619D01*
X145402156Y-89283399D01*
X145400000Y-89260378D01*
X145400000Y-88843618D01*
X145419685Y-88776579D01*
X145472489Y-88730824D01*
X145541647Y-88720880D01*
X145543399Y-88721145D01*
X145599304Y-88729999D01*
X145674999Y-88729998D01*
X145675000Y-88729998D01*
X145675000Y-88325000D01*
X145925000Y-88325000D01*
X145925000Y-88729999D01*
X146000689Y-88729999D01*
X146092017Y-88715534D01*
X146202093Y-88659448D01*
X146212316Y-88649225D01*
X146273638Y-88615739D01*
X146343330Y-88620721D01*
X146387684Y-88649225D01*
X146397906Y-88659448D01*
X146507984Y-88715536D01*
X146599303Y-88729999D01*
X146674999Y-88729998D01*
X146675000Y-88729998D01*
X146675000Y-88325000D01*
X145925000Y-88325000D01*
X145675000Y-88325000D01*
X145675000Y-88199000D01*
X145694685Y-88131961D01*
X145747489Y-88086206D01*
X145799000Y-88075000D01*
X146801000Y-88075000D01*
X146868039Y-88094685D01*
G37*
%TD.AperFunction*%
%TD*%
%TA.AperFunction,Conductor*%
%TO.N,/DC_SCK*%
G36*
X163788161Y-87855871D02*
G01*
X164241230Y-88291567D01*
X164244818Y-88299771D01*
X164241553Y-88308110D01*
X164241230Y-88308433D01*
X163788161Y-88744128D01*
X163779822Y-88747393D01*
X163774571Y-88746032D01*
X163692542Y-88702547D01*
X163692200Y-88702350D01*
X163616630Y-88655509D01*
X163616401Y-88655359D01*
X163550381Y-88610024D01*
X163489806Y-88567261D01*
X163489774Y-88567239D01*
X163483622Y-88563178D01*
X163430581Y-88528166D01*
X163368617Y-88493833D01*
X163368616Y-88493832D01*
X163299732Y-88465296D01*
X163299726Y-88465295D01*
X163219766Y-88443610D01*
X163219759Y-88443608D01*
X163124581Y-88429827D01*
X163021207Y-88425472D01*
X163013086Y-88421700D01*
X163010000Y-88413782D01*
X163010000Y-88186217D01*
X163013427Y-88177944D01*
X163021205Y-88174527D01*
X163124574Y-88170172D01*
X163124581Y-88170171D01*
X163124582Y-88170171D01*
X163219759Y-88156390D01*
X163219760Y-88156389D01*
X163219764Y-88156389D01*
X163299726Y-88134704D01*
X163299730Y-88134702D01*
X163299732Y-88134702D01*
X163326640Y-88123554D01*
X163368613Y-88106168D01*
X163430581Y-88071833D01*
X163489786Y-88032752D01*
X163550380Y-87989976D01*
X163616401Y-87944639D01*
X163616630Y-87944489D01*
X163692200Y-87897648D01*
X163692530Y-87897457D01*
X163774572Y-87853966D01*
X163783486Y-87853120D01*
X163788161Y-87855871D01*
G37*
%TD.AperFunction*%
%TD*%
%TA.AperFunction,Conductor*%
%TO.N,/DC_CTS*%
G36*
X160878694Y-92951844D02*
G01*
X161060204Y-93126393D01*
X161088342Y-93153453D01*
X161238221Y-93297584D01*
X161241809Y-93305788D01*
X161238544Y-93314127D01*
X161238221Y-93314450D01*
X160880379Y-93658570D01*
X160872040Y-93661835D01*
X160867792Y-93660946D01*
X160844077Y-93651123D01*
X160843616Y-93650908D01*
X160802850Y-93629683D01*
X160802586Y-93629536D01*
X160742989Y-93594483D01*
X160742863Y-93594406D01*
X160690180Y-93561135D01*
X160690178Y-93561133D01*
X160690178Y-93561134D01*
X160641379Y-93530297D01*
X160641368Y-93530290D01*
X160641350Y-93530279D01*
X160593343Y-93502494D01*
X160593340Y-93502492D01*
X160543055Y-93478391D01*
X160487386Y-93458584D01*
X160487384Y-93458583D01*
X160487380Y-93458582D01*
X160423213Y-93443676D01*
X160423209Y-93443675D01*
X160423207Y-93443675D01*
X160347460Y-93434284D01*
X160347450Y-93434283D01*
X160268269Y-93431425D01*
X160260125Y-93427702D01*
X160256991Y-93419733D01*
X160256991Y-93192302D01*
X160260418Y-93184029D01*
X160268267Y-93180610D01*
X160347452Y-93177751D01*
X160423213Y-93168359D01*
X160487380Y-93153453D01*
X160543055Y-93133643D01*
X160593343Y-93109541D01*
X160641350Y-93081756D01*
X160690178Y-93050901D01*
X160742905Y-93017601D01*
X160742964Y-93017565D01*
X160802599Y-92982489D01*
X160802850Y-92982351D01*
X160865181Y-92949898D01*
X160874102Y-92949118D01*
X160878694Y-92951844D01*
G37*
%TD.AperFunction*%
%TD*%
%TA.AperFunction,Conductor*%
%TO.N,+5V*%
G36*
X138183164Y-93983728D02*
G01*
X138225756Y-94005192D01*
X138269361Y-94028474D01*
X138284151Y-94036456D01*
X138308582Y-94049642D01*
X138308620Y-94049661D01*
X138308637Y-94049671D01*
X138321136Y-94056067D01*
X138345616Y-94068597D01*
X138345628Y-94068602D01*
X138345639Y-94068608D01*
X138382421Y-94085111D01*
X138421041Y-94099005D01*
X138463553Y-94110116D01*
X138512013Y-94118268D01*
X138568477Y-94123288D01*
X138623602Y-94124706D01*
X138631783Y-94128344D01*
X138635000Y-94136402D01*
X138635000Y-94363597D01*
X138631573Y-94371870D01*
X138623601Y-94375293D01*
X138584571Y-94376297D01*
X138568477Y-94376711D01*
X138568473Y-94376711D01*
X138512013Y-94381730D01*
X138463557Y-94389882D01*
X138463550Y-94389883D01*
X138421030Y-94400997D01*
X138382433Y-94414883D01*
X138382425Y-94414886D01*
X138382421Y-94414888D01*
X138362333Y-94423900D01*
X138345616Y-94431401D01*
X138308627Y-94450332D01*
X138308628Y-94450333D01*
X138308586Y-94450354D01*
X138277740Y-94467002D01*
X138269361Y-94471525D01*
X138242648Y-94485787D01*
X138225795Y-94494786D01*
X138225672Y-94494849D01*
X138203932Y-94505805D01*
X138183167Y-94516270D01*
X138174237Y-94516933D01*
X138169792Y-94514255D01*
X138021729Y-94371870D01*
X137903768Y-94258432D01*
X137900181Y-94250229D01*
X137903446Y-94241890D01*
X137903769Y-94241567D01*
X138169793Y-93985743D01*
X138178131Y-93982479D01*
X138183164Y-93983728D01*
G37*
%TD.AperFunction*%
%TD*%
%TA.AperFunction,Conductor*%
%TO.N,Net-(D2-A)*%
G36*
X145654611Y-96210459D02*
G01*
X145776854Y-96345131D01*
X145874585Y-96452800D01*
X146022568Y-96615829D01*
X146025591Y-96624258D01*
X146021769Y-96632356D01*
X146021424Y-96632657D01*
X145601969Y-96984502D01*
X145593428Y-96987193D01*
X145588351Y-96985522D01*
X145570575Y-96974662D01*
X145521478Y-96944669D01*
X145521254Y-96944525D01*
X145498778Y-96929162D01*
X145458045Y-96901317D01*
X145457920Y-96901230D01*
X145402038Y-96860610D01*
X145350125Y-96823245D01*
X145350118Y-96823240D01*
X145350108Y-96823233D01*
X145298865Y-96789839D01*
X145298864Y-96789838D01*
X145244858Y-96761035D01*
X145184735Y-96737498D01*
X145115126Y-96719883D01*
X145115097Y-96719877D01*
X145032597Y-96708829D01*
X145032570Y-96708827D01*
X145014808Y-96708138D01*
X145014795Y-96708138D01*
X144933786Y-96705000D01*
X144933786Y-96455000D01*
X145037729Y-96451267D01*
X145124655Y-96440614D01*
X145198243Y-96423856D01*
X145262172Y-96401810D01*
X145320121Y-96375294D01*
X145320135Y-96375286D01*
X145320142Y-96375283D01*
X145338879Y-96365123D01*
X145375770Y-96345122D01*
X145432798Y-96312113D01*
X145494819Y-96277118D01*
X145494986Y-96277030D01*
X145504312Y-96272258D01*
X145565590Y-96240905D01*
X145565849Y-96240782D01*
X145641237Y-96207613D01*
X145650189Y-96207419D01*
X145654611Y-96210459D01*
G37*
%TD.AperFunction*%
%TD*%
%TA.AperFunction,Conductor*%
%TO.N,/DC_RESET*%
G36*
X160831703Y-94845826D02*
G01*
X161191230Y-95191567D01*
X161194818Y-95199771D01*
X161191553Y-95208110D01*
X161191230Y-95208433D01*
X160831703Y-95554173D01*
X160823364Y-95557438D01*
X160818190Y-95556118D01*
X160755859Y-95523665D01*
X160755595Y-95523518D01*
X160695998Y-95488465D01*
X160695872Y-95488388D01*
X160643189Y-95455117D01*
X160643187Y-95455115D01*
X160643187Y-95455116D01*
X160594388Y-95424279D01*
X160594377Y-95424272D01*
X160594359Y-95424261D01*
X160546352Y-95396476D01*
X160546349Y-95396474D01*
X160496064Y-95372373D01*
X160440395Y-95352566D01*
X160440393Y-95352565D01*
X160440389Y-95352564D01*
X160376222Y-95337658D01*
X160376218Y-95337657D01*
X160376216Y-95337657D01*
X160300469Y-95328266D01*
X160300459Y-95328265D01*
X160221278Y-95325407D01*
X160213134Y-95321684D01*
X160210000Y-95313715D01*
X160210000Y-95086284D01*
X160213427Y-95078011D01*
X160221276Y-95074592D01*
X160300461Y-95071733D01*
X160376222Y-95062341D01*
X160440389Y-95047435D01*
X160496064Y-95027625D01*
X160546352Y-95003523D01*
X160594359Y-94975738D01*
X160643187Y-94944883D01*
X160695914Y-94911583D01*
X160695973Y-94911547D01*
X160755608Y-94876471D01*
X160755859Y-94876333D01*
X160818190Y-94843880D01*
X160827111Y-94843100D01*
X160831703Y-94845826D01*
G37*
%TD.AperFunction*%
%TD*%
%TA.AperFunction,Conductor*%
%TO.N,GND*%
G36*
X148771817Y-90070144D02*
G01*
X148774500Y-90077599D01*
X148774500Y-90213400D01*
X148789759Y-90290116D01*
X148789760Y-90290117D01*
X148847887Y-90377111D01*
X148847888Y-90377112D01*
X148909667Y-90418391D01*
X148914642Y-90425836D01*
X148914687Y-90430165D01*
X148904030Y-90490159D01*
X148910063Y-90659203D01*
X148973150Y-90818709D01*
X148973153Y-90818714D01*
X149106980Y-90959679D01*
X149110191Y-90968039D01*
X149108564Y-90973693D01*
X148719310Y-91631483D01*
X148719309Y-91631485D01*
X148719310Y-91631485D01*
X148719309Y-91631486D01*
X148336330Y-92278675D01*
X148336329Y-92278676D01*
X148336328Y-92278676D01*
X147861534Y-93081022D01*
X147854372Y-93086397D01*
X147845507Y-93085133D01*
X147840999Y-93080295D01*
X147440365Y-92278676D01*
X146882396Y-91162248D01*
X146881764Y-91153316D01*
X146885238Y-91148144D01*
X147135235Y-90933483D01*
X147136693Y-90932416D01*
X147442969Y-90742880D01*
X147443410Y-90742634D01*
X147609621Y-90659201D01*
X147774693Y-90576339D01*
X147774825Y-90576277D01*
X148049552Y-90451545D01*
X148054382Y-90450499D01*
X148188400Y-90450499D01*
X148265117Y-90435240D01*
X148352112Y-90377112D01*
X148410240Y-90290117D01*
X148410376Y-90289431D01*
X148415350Y-90281986D01*
X148416179Y-90281480D01*
X148661935Y-90145814D01*
X148755346Y-90068581D01*
X148763904Y-90065951D01*
X148771817Y-90070144D01*
G37*
%TD.AperFunction*%
%TA.AperFunction,Conductor*%
G36*
X148831692Y-89292376D02*
G01*
X148835051Y-89300674D01*
X148834478Y-89304196D01*
X148810462Y-89378107D01*
X148809064Y-89380991D01*
X148789759Y-89409884D01*
X148774500Y-89486599D01*
X148774500Y-89555812D01*
X148771073Y-89564085D01*
X148762800Y-89567512D01*
X148754562Y-89564120D01*
X148726141Y-89535936D01*
X148726140Y-89535936D01*
X148647866Y-89458312D01*
X148799069Y-89259221D01*
X148831692Y-89292376D01*
G37*
%TD.AperFunction*%
%TD*%
%TA.AperFunction,Conductor*%
%TO.N,/DC_SCK*%
G36*
X158363039Y-88152837D02*
G01*
X158398397Y-88155140D01*
X158409028Y-88155834D01*
X158450557Y-88159062D01*
X158450556Y-88159064D01*
X158450614Y-88159066D01*
X158475074Y-88161138D01*
X158489498Y-88162361D01*
X158489499Y-88162361D01*
X158499071Y-88163162D01*
X158527886Y-88165577D01*
X158556037Y-88167684D01*
X158567667Y-88168555D01*
X158575494Y-88169023D01*
X158610886Y-88171143D01*
X158659468Y-88173182D01*
X158715415Y-88174519D01*
X158769097Y-88174914D01*
X158777344Y-88178402D01*
X158780710Y-88186614D01*
X158780710Y-88413614D01*
X158777283Y-88421887D01*
X158769329Y-88425310D01*
X158757355Y-88425636D01*
X158735663Y-88426228D01*
X158735656Y-88426228D01*
X158735643Y-88426229D01*
X158696602Y-88429982D01*
X158662619Y-88436363D01*
X158632790Y-88445471D01*
X158606198Y-88457406D01*
X158606193Y-88457408D01*
X158581914Y-88472273D01*
X158581908Y-88472277D01*
X158559008Y-88490182D01*
X158536586Y-88511215D01*
X158513704Y-88535497D01*
X158494786Y-88557043D01*
X158486752Y-88560998D01*
X158481907Y-88560286D01*
X158196711Y-88453961D01*
X158190156Y-88447860D01*
X158189835Y-88438911D01*
X158190003Y-88438486D01*
X158307334Y-88157801D01*
X158313686Y-88151491D01*
X158318707Y-88150629D01*
X158363039Y-88152837D01*
G37*
%TD.AperFunction*%
%TD*%
%TA.AperFunction,Conductor*%
%TO.N,/RX_LED*%
G36*
X147887625Y-95848912D02*
G01*
X148070206Y-95931701D01*
X148094686Y-95942801D01*
X148100805Y-95949339D01*
X148100536Y-95958231D01*
X148056779Y-96056134D01*
X148016976Y-96148480D01*
X147984044Y-96228548D01*
X147956248Y-96300033D01*
X147931919Y-96366447D01*
X147909226Y-96431744D01*
X147886532Y-96499325D01*
X147862052Y-96573019D01*
X147834023Y-96656599D01*
X147803424Y-96745832D01*
X147797499Y-96752546D01*
X147792586Y-96753735D01*
X147244985Y-96764441D01*
X147236646Y-96761176D01*
X147233058Y-96752972D01*
X147233058Y-96752546D01*
X147243757Y-96205232D01*
X147247345Y-96197030D01*
X147252060Y-96194267D01*
X147329033Y-96170963D01*
X147329356Y-96170877D01*
X147408487Y-96152505D01*
X147408627Y-96152475D01*
X147482379Y-96137901D01*
X147551087Y-96123587D01*
X147615059Y-96105994D01*
X147674687Y-96081565D01*
X147730363Y-96046744D01*
X147782479Y-95997975D01*
X147831427Y-95931701D01*
X147872451Y-95854100D01*
X147879348Y-95848388D01*
X147887625Y-95848912D01*
G37*
%TD.AperFunction*%
%TD*%
%TA.AperFunction,Conductor*%
%TO.N,/TX_LED*%
G36*
X148172796Y-97392382D02*
G01*
X148363302Y-97515577D01*
X148368389Y-97522947D01*
X148366774Y-97531755D01*
X148366728Y-97531825D01*
X148314827Y-97610843D01*
X148284369Y-97657214D01*
X148207436Y-97771361D01*
X148159888Y-97841195D01*
X148140546Y-97869603D01*
X148081930Y-97957006D01*
X148081903Y-97957048D01*
X148029741Y-98038747D01*
X147982078Y-98120095D01*
X147937192Y-98206077D01*
X147937186Y-98206088D01*
X147893230Y-98301885D01*
X147893223Y-98301899D01*
X147848373Y-98412645D01*
X147848368Y-98412659D01*
X147803511Y-98536032D01*
X147797463Y-98542636D01*
X147792744Y-98543732D01*
X147244985Y-98554441D01*
X147236646Y-98551176D01*
X147233058Y-98542972D01*
X147233058Y-98542555D01*
X147243762Y-97994988D01*
X147247350Y-97986786D01*
X147251759Y-97984119D01*
X147370000Y-97944710D01*
X147482188Y-97909034D01*
X147582851Y-97875822D01*
X147674352Y-97841190D01*
X147759053Y-97801258D01*
X147839317Y-97752144D01*
X147917508Y-97689964D01*
X147995988Y-97610839D01*
X148077121Y-97510885D01*
X148156818Y-97395555D01*
X148164340Y-97390698D01*
X148172796Y-97392382D01*
G37*
%TD.AperFunction*%
%TD*%
%TA.AperFunction,Conductor*%
%TO.N,GND*%
G36*
X143926403Y-86951776D02*
G01*
X143930555Y-87004414D01*
X143937365Y-87049760D01*
X143946746Y-87089658D01*
X143958606Y-87125953D01*
X143961791Y-87133672D01*
X143961791Y-87133674D01*
X143969533Y-87152431D01*
X143972859Y-87160490D01*
X143989413Y-87195113D01*
X143989415Y-87195117D01*
X144008170Y-87231649D01*
X144008171Y-87231649D01*
X144008181Y-87231668D01*
X144029073Y-87271999D01*
X144040489Y-87294881D01*
X144048315Y-87310566D01*
X144048942Y-87319498D01*
X144046279Y-87323899D01*
X143808433Y-87571230D01*
X143800229Y-87574818D01*
X143791890Y-87571553D01*
X143791567Y-87571230D01*
X143553720Y-87323899D01*
X143550455Y-87315560D01*
X143551684Y-87310566D01*
X143570926Y-87271999D01*
X143591818Y-87231668D01*
X143610586Y-87195113D01*
X143627140Y-87160490D01*
X143627139Y-87160490D01*
X143627144Y-87160475D01*
X143627152Y-87160460D01*
X143638206Y-87133675D01*
X143638206Y-87133674D01*
X143641393Y-87125953D01*
X143653253Y-87089658D01*
X143662634Y-87049760D01*
X143669444Y-87004414D01*
X143673596Y-86951776D01*
X143675000Y-86890000D01*
X143925000Y-86890000D01*
X143926403Y-86951776D01*
G37*
%TD.AperFunction*%
%TD*%
%TA.AperFunction,Conductor*%
%TO.N,/DC_RX*%
G36*
X163788161Y-89855871D02*
G01*
X164241230Y-90291567D01*
X164244818Y-90299771D01*
X164241553Y-90308110D01*
X164241230Y-90308433D01*
X163788161Y-90744128D01*
X163779822Y-90747393D01*
X163774571Y-90746032D01*
X163692542Y-90702547D01*
X163692200Y-90702350D01*
X163616630Y-90655509D01*
X163616401Y-90655359D01*
X163550381Y-90610024D01*
X163489806Y-90567261D01*
X163489774Y-90567239D01*
X163483622Y-90563178D01*
X163430581Y-90528166D01*
X163368617Y-90493833D01*
X163368616Y-90493832D01*
X163299732Y-90465296D01*
X163299726Y-90465295D01*
X163219766Y-90443610D01*
X163219759Y-90443608D01*
X163124581Y-90429827D01*
X163021207Y-90425472D01*
X163013086Y-90421700D01*
X163010000Y-90413782D01*
X163010000Y-90186217D01*
X163013427Y-90177944D01*
X163021205Y-90174527D01*
X163124574Y-90170172D01*
X163124581Y-90170171D01*
X163124582Y-90170171D01*
X163219759Y-90156390D01*
X163219760Y-90156389D01*
X163219764Y-90156389D01*
X163299726Y-90134704D01*
X163299730Y-90134702D01*
X163299732Y-90134702D01*
X163326640Y-90123554D01*
X163368613Y-90106168D01*
X163430581Y-90071833D01*
X163489786Y-90032752D01*
X163550380Y-89989976D01*
X163616401Y-89944639D01*
X163616630Y-89944489D01*
X163692200Y-89897648D01*
X163692530Y-89897457D01*
X163774572Y-89853966D01*
X163783486Y-89853120D01*
X163788161Y-89855871D01*
G37*
%TD.AperFunction*%
%TD*%
%TA.AperFunction,Conductor*%
%TO.N,/CP2102N_SCK*%
G36*
X156896926Y-88180672D02*
G01*
X156958484Y-88239869D01*
X157116230Y-88391567D01*
X157119818Y-88399771D01*
X157116553Y-88408110D01*
X157116230Y-88408433D01*
X156896929Y-88619324D01*
X156888590Y-88622589D01*
X156883675Y-88621399D01*
X156851220Y-88605510D01*
X156851220Y-88605511D01*
X156851216Y-88605509D01*
X156846164Y-88603039D01*
X156815828Y-88588213D01*
X156783436Y-88573121D01*
X156783403Y-88573106D01*
X156752372Y-88560129D01*
X156721206Y-88549246D01*
X156721203Y-88549245D01*
X156688368Y-88540418D01*
X156688363Y-88540416D01*
X156652367Y-88533619D01*
X156652361Y-88533618D01*
X156652360Y-88533618D01*
X156647515Y-88533045D01*
X156611651Y-88528806D01*
X156564716Y-88525945D01*
X156564687Y-88525944D01*
X156521498Y-88525198D01*
X156513285Y-88521629D01*
X156510000Y-88513500D01*
X156510000Y-88286499D01*
X156513427Y-88278226D01*
X156521497Y-88274801D01*
X156564702Y-88274054D01*
X156611647Y-88271193D01*
X156652360Y-88266381D01*
X156688368Y-88259581D01*
X156721195Y-88250756D01*
X156752368Y-88239871D01*
X156783411Y-88226889D01*
X156815852Y-88211774D01*
X156851216Y-88194490D01*
X156883676Y-88178598D01*
X156892612Y-88178039D01*
X156896926Y-88180672D01*
G37*
%TD.AperFunction*%
%TD*%
%TA.AperFunction,Conductor*%
%TO.N,GND*%
G36*
X144926403Y-86951776D02*
G01*
X144930555Y-87004414D01*
X144937365Y-87049760D01*
X144946746Y-87089658D01*
X144958606Y-87125953D01*
X144961791Y-87133672D01*
X144961791Y-87133674D01*
X144969533Y-87152431D01*
X144972859Y-87160490D01*
X144989413Y-87195113D01*
X144989415Y-87195117D01*
X145008170Y-87231649D01*
X145008171Y-87231649D01*
X145008181Y-87231668D01*
X145029073Y-87271999D01*
X145040489Y-87294881D01*
X145048315Y-87310566D01*
X145048942Y-87319498D01*
X145046279Y-87323899D01*
X144808433Y-87571230D01*
X144800229Y-87574818D01*
X144791890Y-87571553D01*
X144791567Y-87571230D01*
X144553720Y-87323899D01*
X144550455Y-87315560D01*
X144551684Y-87310566D01*
X144570926Y-87271999D01*
X144591818Y-87231668D01*
X144610586Y-87195113D01*
X144627140Y-87160490D01*
X144627139Y-87160490D01*
X144627144Y-87160475D01*
X144627152Y-87160460D01*
X144638206Y-87133675D01*
X144638206Y-87133674D01*
X144641393Y-87125953D01*
X144653253Y-87089658D01*
X144662634Y-87049760D01*
X144669444Y-87004414D01*
X144673596Y-86951776D01*
X144675000Y-86890000D01*
X144925000Y-86890000D01*
X144926403Y-86951776D01*
G37*
%TD.AperFunction*%
%TD*%
%TA.AperFunction,Conductor*%
%TO.N,GND*%
G36*
X138911978Y-88133183D02*
G01*
X139374496Y-88321319D01*
X139380869Y-88327611D01*
X139380926Y-88336565D01*
X139380745Y-88336986D01*
X139174751Y-88791636D01*
X139168215Y-88797757D01*
X139163379Y-88798485D01*
X139094183Y-88794249D01*
X139094154Y-88794248D01*
X139094143Y-88794247D01*
X139094084Y-88794244D01*
X139024624Y-88791566D01*
X139024589Y-88791564D01*
X138960062Y-88790564D01*
X138960048Y-88790564D01*
X138960044Y-88790564D01*
X138897846Y-88790879D01*
X138835316Y-88792146D01*
X138835310Y-88792146D01*
X138835269Y-88792147D01*
X138835268Y-88792146D01*
X138769779Y-88794000D01*
X138769775Y-88794001D01*
X138735197Y-88795009D01*
X138698573Y-88796077D01*
X138633259Y-88797665D01*
X138633258Y-88797665D01*
X138618946Y-88798014D01*
X138549912Y-88799101D01*
X138549886Y-88799101D01*
X138542690Y-88799214D01*
X138528272Y-88799442D01*
X138432666Y-88799953D01*
X138424374Y-88796570D01*
X138424231Y-88796426D01*
X138423933Y-88796120D01*
X138423933Y-88303876D01*
X138424397Y-88303402D01*
X138432601Y-88299876D01*
X138495935Y-88298972D01*
X138559716Y-88295592D01*
X138559724Y-88295591D01*
X138559726Y-88295591D01*
X138559726Y-88295590D01*
X138616364Y-88289412D01*
X138616365Y-88289411D01*
X138616372Y-88289411D01*
X138616372Y-88289410D01*
X138666968Y-88279985D01*
X138712619Y-88266865D01*
X138754404Y-88249603D01*
X138793413Y-88227755D01*
X138830735Y-88200871D01*
X138867460Y-88168507D01*
X138899182Y-88135868D01*
X138907406Y-88132323D01*
X138911978Y-88133183D01*
G37*
%TD.AperFunction*%
%TD*%
%TA.AperFunction,Conductor*%
%TO.N,Net-(P1-VCONN)*%
G36*
X138117322Y-93417664D02*
G01*
X138124365Y-93420368D01*
X138140412Y-93424080D01*
X138140415Y-93424080D01*
X138140418Y-93424081D01*
X138149858Y-93425282D01*
X138158585Y-93426393D01*
X138178943Y-93427565D01*
X138201547Y-93427851D01*
X138226456Y-93427510D01*
X138247129Y-93426969D01*
X138253742Y-93426797D01*
X138258458Y-93426665D01*
X138283433Y-93425970D01*
X138315621Y-93425285D01*
X138338560Y-93425096D01*
X138346860Y-93428455D01*
X138350355Y-93436700D01*
X138350355Y-93663202D01*
X138346928Y-93671475D01*
X138338655Y-93674902D01*
X138338559Y-93674902D01*
X138315580Y-93674713D01*
X138283433Y-93674029D01*
X138275748Y-93673815D01*
X138253742Y-93673201D01*
X138253742Y-93673202D01*
X138226463Y-93672489D01*
X138209019Y-93672250D01*
X138201547Y-93672148D01*
X138201545Y-93672148D01*
X138201544Y-93672148D01*
X138191859Y-93672270D01*
X138178943Y-93672434D01*
X138158585Y-93673606D01*
X138158580Y-93673606D01*
X138158573Y-93673607D01*
X138158569Y-93673607D01*
X138140418Y-93675917D01*
X138124366Y-93679630D01*
X138124360Y-93679632D01*
X138117325Y-93682334D01*
X138108373Y-93682100D01*
X138105021Y-93679844D01*
X138104798Y-93679630D01*
X137978768Y-93558432D01*
X137975181Y-93550229D01*
X137978446Y-93541890D01*
X137978769Y-93541567D01*
X138105022Y-93420154D01*
X138113361Y-93416890D01*
X138117322Y-93417664D01*
G37*
%TD.AperFunction*%
%TD*%
%TA.AperFunction,Conductor*%
%TO.N,/DC_TX*%
G36*
X159535114Y-91203066D02*
G01*
X159543281Y-91206740D01*
X159546458Y-91215112D01*
X159546338Y-91216466D01*
X159471705Y-91723262D01*
X159467110Y-91730947D01*
X159462393Y-91733036D01*
X159386819Y-91747937D01*
X159315433Y-91764838D01*
X159252936Y-91782093D01*
X159204259Y-91797085D01*
X159195796Y-91799692D01*
X159177390Y-91805659D01*
X159140559Y-91817602D01*
X159083887Y-91835752D01*
X159083775Y-91835787D01*
X159022097Y-91854185D01*
X159021932Y-91854232D01*
X158951851Y-91872831D01*
X158951685Y-91872872D01*
X158914115Y-91881481D01*
X158869678Y-91891663D01*
X158869489Y-91891703D01*
X158783592Y-91908420D01*
X158774817Y-91906636D01*
X158769872Y-91899170D01*
X158769840Y-91898997D01*
X158765159Y-91872854D01*
X158729770Y-91675219D01*
X158731685Y-91666474D01*
X158738298Y-91661847D01*
X158801312Y-91645208D01*
X158857115Y-91617385D01*
X158898282Y-91581935D01*
X158927819Y-91539665D01*
X158948732Y-91491379D01*
X158964026Y-91437881D01*
X158976706Y-91379976D01*
X158976714Y-91379941D01*
X158989751Y-91318595D01*
X158989806Y-91318359D01*
X159006195Y-91254371D01*
X159006316Y-91253968D01*
X159026314Y-91196007D01*
X159032252Y-91189305D01*
X159037723Y-91188129D01*
X159535114Y-91203066D01*
G37*
%TD.AperFunction*%
%TD*%
%TA.AperFunction,Conductor*%
%TO.N,GND*%
G36*
X138182712Y-94782673D02*
G01*
X138202524Y-94790297D01*
X138233234Y-94797467D01*
X138268010Y-94801992D01*
X138305197Y-94804243D01*
X138306966Y-94804351D01*
X138307520Y-94804359D01*
X138350222Y-94805027D01*
X138397890Y-94804500D01*
X138450086Y-94803253D01*
X138506926Y-94801766D01*
X138568181Y-94800527D01*
X138568526Y-94800521D01*
X138572975Y-94800486D01*
X138627715Y-94800057D01*
X138633336Y-94802334D01*
X138635000Y-94802374D01*
X138635000Y-95300000D01*
X138568525Y-95299478D01*
X138506926Y-95298233D01*
X138450086Y-95296746D01*
X138423933Y-95296121D01*
X138397890Y-95295499D01*
X138397876Y-95295498D01*
X138397841Y-95295498D01*
X138350235Y-95294972D01*
X138350229Y-95294972D01*
X138350222Y-95294972D01*
X138343022Y-95295084D01*
X138306966Y-95295647D01*
X138275983Y-95297524D01*
X138268010Y-95298007D01*
X138268006Y-95298007D01*
X138267998Y-95298008D01*
X138233236Y-95302531D01*
X138202526Y-95309701D01*
X138202518Y-95309704D01*
X138182712Y-95317326D01*
X138173760Y-95317099D01*
X138170400Y-95314840D01*
X138165981Y-95310590D01*
X137903768Y-95058432D01*
X137900181Y-95050229D01*
X137903446Y-95041890D01*
X137903769Y-95041567D01*
X138170402Y-94785158D01*
X138178739Y-94781894D01*
X138182712Y-94782673D01*
G37*
%TD.AperFunction*%
%TD*%
%TA.AperFunction,Conductor*%
%TO.N,GND*%
G36*
X138182712Y-94782673D02*
G01*
X138202524Y-94790297D01*
X138233234Y-94797467D01*
X138268010Y-94801992D01*
X138305197Y-94804243D01*
X138306966Y-94804351D01*
X138307520Y-94804359D01*
X138350222Y-94805027D01*
X138397890Y-94804500D01*
X138450086Y-94803253D01*
X138506926Y-94801766D01*
X138568181Y-94800527D01*
X138568526Y-94800521D01*
X138572975Y-94800486D01*
X138627715Y-94800057D01*
X138633336Y-94802334D01*
X138635000Y-94802374D01*
X138635000Y-95300000D01*
X138568525Y-95299478D01*
X138506926Y-95298233D01*
X138450086Y-95296746D01*
X138423933Y-95296121D01*
X138397890Y-95295499D01*
X138397876Y-95295498D01*
X138397841Y-95295498D01*
X138350235Y-95294972D01*
X138350229Y-95294972D01*
X138350222Y-95294972D01*
X138343022Y-95295084D01*
X138306966Y-95295647D01*
X138275983Y-95297524D01*
X138268010Y-95298007D01*
X138268006Y-95298007D01*
X138267998Y-95298008D01*
X138233236Y-95302531D01*
X138202526Y-95309701D01*
X138202518Y-95309704D01*
X138182712Y-95317326D01*
X138173760Y-95317099D01*
X138170400Y-95314840D01*
X138165981Y-95310590D01*
X137903768Y-95058432D01*
X137900181Y-95050229D01*
X137903446Y-95041890D01*
X137903769Y-95041567D01*
X138170402Y-94785158D01*
X138178739Y-94781894D01*
X138182712Y-94782673D01*
G37*
%TD.AperFunction*%
%TD*%
%TA.AperFunction,Conductor*%
%TO.N,Net-(U1-VBUS)*%
G36*
X144325944Y-91204879D02*
G01*
X144325944Y-91204892D01*
X144325944Y-91204907D01*
X144325944Y-91204915D01*
X144326249Y-91219386D01*
X144326250Y-91219420D01*
X144329967Y-91270128D01*
X144336111Y-91313941D01*
X144344629Y-91352534D01*
X144344631Y-91352545D01*
X144355470Y-91387655D01*
X144355473Y-91387663D01*
X144355476Y-91387672D01*
X144368604Y-91421086D01*
X144383967Y-91454518D01*
X144401519Y-91489706D01*
X144414234Y-91514683D01*
X144421239Y-91528445D01*
X144439341Y-91564934D01*
X144439948Y-91573869D01*
X144437293Y-91578244D01*
X144208432Y-91816230D01*
X144200228Y-91819818D01*
X144191889Y-91816553D01*
X144191566Y-91816230D01*
X143962706Y-91578244D01*
X143959441Y-91569905D01*
X143960656Y-91564938D01*
X143978787Y-91528391D01*
X143998480Y-91489706D01*
X144016032Y-91454518D01*
X144031395Y-91421086D01*
X144044523Y-91387672D01*
X144055370Y-91352536D01*
X144063888Y-91313940D01*
X144070030Y-91270144D01*
X144073749Y-91219411D01*
X144075000Y-91160000D01*
X144325000Y-91160000D01*
X144325944Y-91204879D01*
G37*
%TD.AperFunction*%
%TD*%
%TA.AperFunction,Conductor*%
%TO.N,GND*%
G36*
X141336557Y-93477279D02*
G01*
X141337590Y-93478909D01*
X141417850Y-93632231D01*
X141497089Y-93783602D01*
X141497889Y-93792521D01*
X141495308Y-93796977D01*
X141464338Y-93830421D01*
X141435347Y-93867348D01*
X141435342Y-93867354D01*
X141435341Y-93867357D01*
X141427526Y-93879052D01*
X141411796Y-93902598D01*
X141391572Y-93937025D01*
X141372515Y-93971560D01*
X141352636Y-94006823D01*
X141352514Y-94007028D01*
X141329615Y-94044042D01*
X141329417Y-94044341D01*
X141301400Y-94083961D01*
X141301152Y-94084286D01*
X141265826Y-94127495D01*
X141265561Y-94127797D01*
X141228927Y-94166810D01*
X141220766Y-94170495D01*
X141212389Y-94167330D01*
X141212125Y-94167074D01*
X141191612Y-94146561D01*
X141043886Y-93998835D01*
X141072683Y-93965664D01*
X141091864Y-93933917D01*
X141102698Y-93903150D01*
X141106457Y-93872922D01*
X141104410Y-93842791D01*
X141101738Y-93830422D01*
X141097828Y-93812318D01*
X141097823Y-93812300D01*
X141091087Y-93790918D01*
X141087978Y-93781047D01*
X141076134Y-93748550D01*
X141063593Y-93714457D01*
X141063540Y-93714305D01*
X141054178Y-93686052D01*
X141054829Y-93677123D01*
X141058225Y-93673043D01*
X141320168Y-93475001D01*
X141328834Y-93472746D01*
X141336557Y-93477279D01*
G37*
%TD.AperFunction*%
%TD*%
%TA.AperFunction,Conductor*%
%TO.N,+5V*%
G36*
X138183164Y-93983728D02*
G01*
X138225756Y-94005192D01*
X138269361Y-94028474D01*
X138284151Y-94036456D01*
X138308582Y-94049642D01*
X138308620Y-94049661D01*
X138308637Y-94049671D01*
X138321136Y-94056067D01*
X138345616Y-94068597D01*
X138345628Y-94068602D01*
X138345639Y-94068608D01*
X138382421Y-94085111D01*
X138421041Y-94099005D01*
X138463553Y-94110116D01*
X138512013Y-94118268D01*
X138568477Y-94123288D01*
X138623602Y-94124706D01*
X138631783Y-94128344D01*
X138635000Y-94136402D01*
X138635000Y-94363597D01*
X138631573Y-94371870D01*
X138623601Y-94375293D01*
X138584571Y-94376297D01*
X138568477Y-94376711D01*
X138568473Y-94376711D01*
X138512013Y-94381730D01*
X138463557Y-94389882D01*
X138463550Y-94389883D01*
X138421030Y-94400997D01*
X138382433Y-94414883D01*
X138382425Y-94414886D01*
X138382421Y-94414888D01*
X138362333Y-94423900D01*
X138345616Y-94431401D01*
X138308627Y-94450332D01*
X138308628Y-94450333D01*
X138308586Y-94450354D01*
X138277740Y-94467002D01*
X138269361Y-94471525D01*
X138242648Y-94485787D01*
X138225795Y-94494786D01*
X138225672Y-94494849D01*
X138203932Y-94505805D01*
X138183167Y-94516270D01*
X138174237Y-94516933D01*
X138169792Y-94514255D01*
X138021729Y-94371870D01*
X137903768Y-94258432D01*
X137900181Y-94250229D01*
X137903446Y-94241890D01*
X137903769Y-94241567D01*
X138169793Y-93985743D01*
X138178131Y-93982479D01*
X138183164Y-93983728D01*
G37*
%TD.AperFunction*%
%TD*%
%TA.AperFunction,Conductor*%
%TO.N,GND*%
G36*
X148870525Y-88623705D02*
G01*
X148876576Y-88630306D01*
X148876767Y-88630872D01*
X149000262Y-89032603D01*
X148999417Y-89041518D01*
X148997352Y-89044314D01*
X148980022Y-89061645D01*
X148980014Y-89061654D01*
X148899876Y-89171953D01*
X148870844Y-89228931D01*
X148867897Y-89232617D01*
X148841166Y-89254834D01*
X148817900Y-89278358D01*
X148817899Y-89278359D01*
X148807036Y-89289346D01*
X148778379Y-89327727D01*
X148755518Y-89371985D01*
X148738783Y-89424120D01*
X148728500Y-89486135D01*
X148726141Y-89535936D01*
X148725528Y-89548884D01*
X148721713Y-89556985D01*
X148713841Y-89560030D01*
X148486419Y-89560030D01*
X148478146Y-89556603D01*
X148474722Y-89548615D01*
X148473200Y-89486135D01*
X148472423Y-89454238D01*
X148472217Y-89451613D01*
X148472200Y-89451161D01*
X148472200Y-89314804D01*
X148472275Y-89313748D01*
X148472274Y-89312841D01*
X148472206Y-89264798D01*
X148472220Y-89264764D01*
X148472214Y-89259934D01*
X148472215Y-89259934D01*
X148472200Y-89247495D01*
X148472200Y-89229620D01*
X148472199Y-89229615D01*
X148472198Y-89229601D01*
X148472177Y-89229129D01*
X148472152Y-89207693D01*
X148462711Y-89172597D01*
X148462595Y-89172066D01*
X148457560Y-89141888D01*
X148457400Y-89139962D01*
X148457400Y-88778721D01*
X148460827Y-88770448D01*
X148465090Y-88767731D01*
X148861580Y-88623317D01*
X148870525Y-88623705D01*
G37*
%TD.AperFunction*%
%TD*%
%TA.AperFunction,Conductor*%
%TO.N,Net-(D2-A)*%
G36*
X144695062Y-96340657D02*
G01*
X144731608Y-96358787D01*
X144770293Y-96378480D01*
X144805481Y-96396032D01*
X144838913Y-96411395D01*
X144872327Y-96424523D01*
X144907463Y-96435370D01*
X144946059Y-96443888D01*
X144989855Y-96450030D01*
X145040588Y-96453749D01*
X145100000Y-96455000D01*
X145100000Y-96705000D01*
X145040588Y-96706250D01*
X145014820Y-96708138D01*
X145014808Y-96708138D01*
X144989871Y-96709967D01*
X144989858Y-96709968D01*
X144989855Y-96709969D01*
X144969494Y-96712824D01*
X144946057Y-96716111D01*
X144930979Y-96719439D01*
X144907463Y-96724629D01*
X144907461Y-96724629D01*
X144907453Y-96724631D01*
X144872343Y-96735470D01*
X144872330Y-96735474D01*
X144872327Y-96735476D01*
X144838913Y-96748604D01*
X144838898Y-96748610D01*
X144805519Y-96763949D01*
X144805465Y-96763974D01*
X144770276Y-96781527D01*
X144731586Y-96801222D01*
X144695065Y-96819341D01*
X144686131Y-96819948D01*
X144681755Y-96817293D01*
X144665043Y-96801222D01*
X144443768Y-96588432D01*
X144440181Y-96580229D01*
X144443446Y-96571890D01*
X144443769Y-96571567D01*
X144681757Y-96342705D01*
X144690094Y-96339441D01*
X144695062Y-96340657D01*
G37*
%TD.AperFunction*%
%TD*%
%TA.AperFunction,Conductor*%
%TO.N,GND*%
G36*
X141409659Y-93616108D02*
G01*
X141415933Y-93622497D01*
X141416621Y-93624933D01*
X141417850Y-93632231D01*
X141417851Y-93632234D01*
X141417852Y-93632235D01*
X141417853Y-93632237D01*
X141430887Y-93709595D01*
X141422212Y-93790036D01*
X141394886Y-93859004D01*
X141354979Y-93919820D01*
X141308560Y-93975805D01*
X141261698Y-94030282D01*
X141220463Y-94086571D01*
X141191612Y-94146561D01*
X141191611Y-94146561D01*
X141190924Y-94147992D01*
X141190922Y-94147997D01*
X141179150Y-94217874D01*
X141189957Y-94291026D01*
X141187776Y-94299711D01*
X141183477Y-94303269D01*
X140683129Y-94545234D01*
X140674189Y-94545751D01*
X140667502Y-94539795D01*
X140666337Y-94534474D01*
X140675949Y-94042808D01*
X140679536Y-94034607D01*
X140684301Y-94031828D01*
X140751977Y-94011663D01*
X140752304Y-94011577D01*
X140770092Y-94007396D01*
X140830626Y-93993173D01*
X140908480Y-93976335D01*
X140982595Y-93958498D01*
X141049867Y-93937059D01*
X141049938Y-93937025D01*
X141107193Y-93909415D01*
X141151467Y-93872963D01*
X141179587Y-93825100D01*
X141188448Y-93763222D01*
X141174948Y-93684727D01*
X141409341Y-93615973D01*
X141409659Y-93616108D01*
G37*
%TD.AperFunction*%
%TD*%
%TA.AperFunction,Conductor*%
%TO.N,GND*%
G36*
X145808110Y-86208446D02*
G01*
X145808433Y-86208769D01*
X146154173Y-86568296D01*
X146157438Y-86576635D01*
X146156118Y-86581809D01*
X146123665Y-86644139D01*
X146123518Y-86644403D01*
X146088465Y-86704000D01*
X146088369Y-86704158D01*
X146055117Y-86756811D01*
X146024279Y-86805610D01*
X146024252Y-86805655D01*
X145996474Y-86853649D01*
X145972373Y-86903934D01*
X145961791Y-86933674D01*
X145961791Y-86933675D01*
X145952564Y-86959610D01*
X145937658Y-87023777D01*
X145928266Y-87099538D01*
X145925000Y-87190000D01*
X145675000Y-87190000D01*
X145671733Y-87099538D01*
X145662341Y-87023777D01*
X145647435Y-86959610D01*
X145627625Y-86903935D01*
X145603523Y-86853647D01*
X145575738Y-86805640D01*
X145544883Y-86756812D01*
X145544883Y-86756811D01*
X145544881Y-86756809D01*
X145511599Y-86704109D01*
X145511533Y-86704000D01*
X145476480Y-86644403D01*
X145476333Y-86644139D01*
X145443881Y-86581809D01*
X145443100Y-86572888D01*
X145445824Y-86568297D01*
X145791567Y-86208768D01*
X145799771Y-86205181D01*
X145808110Y-86208446D01*
G37*
%TD.AperFunction*%
%TD*%
%TA.AperFunction,Conductor*%
%TO.N,+5V*%
G36*
X138183164Y-89083728D02*
G01*
X138225756Y-89105192D01*
X138269361Y-89128474D01*
X138284151Y-89136456D01*
X138308582Y-89149642D01*
X138308620Y-89149661D01*
X138308637Y-89149671D01*
X138321136Y-89156067D01*
X138345616Y-89168597D01*
X138345628Y-89168602D01*
X138345639Y-89168608D01*
X138382421Y-89185111D01*
X138421041Y-89199005D01*
X138463553Y-89210116D01*
X138512013Y-89218268D01*
X138568477Y-89223288D01*
X138623602Y-89224706D01*
X138631783Y-89228344D01*
X138635000Y-89236402D01*
X138635000Y-89463597D01*
X138631573Y-89471870D01*
X138623601Y-89475293D01*
X138584571Y-89476297D01*
X138568477Y-89476711D01*
X138568473Y-89476711D01*
X138512013Y-89481730D01*
X138463557Y-89489882D01*
X138463550Y-89489883D01*
X138421030Y-89500997D01*
X138382433Y-89514883D01*
X138382425Y-89514886D01*
X138382421Y-89514888D01*
X138362333Y-89523900D01*
X138345616Y-89531401D01*
X138308627Y-89550332D01*
X138308628Y-89550333D01*
X138308586Y-89550354D01*
X138277740Y-89567002D01*
X138269361Y-89571525D01*
X138242648Y-89585787D01*
X138225795Y-89594786D01*
X138225672Y-89594849D01*
X138203932Y-89605805D01*
X138183167Y-89616270D01*
X138174237Y-89616933D01*
X138169792Y-89614255D01*
X138021729Y-89471870D01*
X137903768Y-89358432D01*
X137900181Y-89350229D01*
X137903446Y-89341890D01*
X137903769Y-89341567D01*
X138169793Y-89085743D01*
X138178131Y-89082479D01*
X138183164Y-89083728D01*
G37*
%TD.AperFunction*%
%TD*%
%TA.AperFunction,Conductor*%
%TO.N,GND*%
G36*
X140602948Y-89614898D02*
G01*
X141081170Y-89909863D01*
X141086413Y-89917123D01*
X141086362Y-89922726D01*
X141066367Y-90000730D01*
X141066367Y-90000734D01*
X141080736Y-90075782D01*
X141080736Y-90075783D01*
X141080737Y-90075784D01*
X141122297Y-90142758D01*
X141181739Y-90204875D01*
X141249751Y-90265355D01*
X141317023Y-90327420D01*
X141374244Y-90394290D01*
X141412104Y-90469184D01*
X141421292Y-90555325D01*
X141412939Y-90584507D01*
X141412939Y-90584508D01*
X141396271Y-90642744D01*
X141390700Y-90649754D01*
X141381803Y-90650772D01*
X141380071Y-90650124D01*
X141380039Y-90650109D01*
X141380038Y-90650109D01*
X141380037Y-90650109D01*
X141166002Y-90550101D01*
X141194466Y-90462327D01*
X141192208Y-90391205D01*
X141163615Y-90334243D01*
X141113078Y-90288953D01*
X141051351Y-90256221D01*
X141051350Y-90256220D01*
X141044983Y-90252845D01*
X140963731Y-90223431D01*
X140963729Y-90223430D01*
X140963728Y-90223430D01*
X140944804Y-90218130D01*
X140873715Y-90198223D01*
X140779276Y-90174719D01*
X140779278Y-90174707D01*
X140779187Y-90174696D01*
X140684993Y-90150476D01*
X140684739Y-90150405D01*
X140602949Y-90125383D01*
X140596041Y-90119686D01*
X140594674Y-90114424D01*
X140594645Y-90112940D01*
X140585108Y-89625084D01*
X140588373Y-89616746D01*
X140596577Y-89613158D01*
X140602948Y-89614898D01*
G37*
%TD.AperFunction*%
%TD*%
%TA.AperFunction,Conductor*%
%TO.N,GND*%
G36*
X141195395Y-90037886D02*
G01*
X141195552Y-90038046D01*
X141234452Y-90078466D01*
X141234618Y-90078645D01*
X141273071Y-90122095D01*
X141273232Y-90122285D01*
X141304954Y-90161363D01*
X141305090Y-90161537D01*
X141332059Y-90197450D01*
X141332146Y-90197570D01*
X141356276Y-90231451D01*
X141373706Y-90256221D01*
X141379453Y-90264387D01*
X141402744Y-90296336D01*
X141403604Y-90297516D01*
X141430580Y-90331874D01*
X141430623Y-90331926D01*
X141462395Y-90368710D01*
X141462404Y-90368720D01*
X141462408Y-90368724D01*
X141495232Y-90403123D01*
X141498464Y-90411474D01*
X141497225Y-90416445D01*
X141412940Y-90584504D01*
X141412937Y-90584512D01*
X141380040Y-90650109D01*
X141380038Y-90650110D01*
X141344987Y-90720002D01*
X141338215Y-90725861D01*
X141329284Y-90725215D01*
X141328039Y-90724492D01*
X141054273Y-90541967D01*
X141049290Y-90534526D01*
X141049431Y-90529323D01*
X141057157Y-90499227D01*
X141066918Y-90463595D01*
X141075538Y-90429947D01*
X141081903Y-90397761D01*
X141084904Y-90366518D01*
X141083426Y-90335698D01*
X141076360Y-90304779D01*
X141073184Y-90297505D01*
X141062590Y-90273238D01*
X141062589Y-90273237D01*
X141051350Y-90256220D01*
X141041011Y-90240565D01*
X141010506Y-90206230D01*
X141178850Y-90037885D01*
X141187122Y-90034459D01*
X141195395Y-90037886D01*
G37*
%TD.AperFunction*%
%TD*%
%TA.AperFunction,Conductor*%
%TO.N,Net-(P1-VCONN)*%
G36*
X140220301Y-93342699D02*
G01*
X140224121Y-93346124D01*
X140279537Y-93423961D01*
X140415608Y-93615085D01*
X140417615Y-93623812D01*
X140412863Y-93631402D01*
X140412485Y-93631660D01*
X140136196Y-93812523D01*
X140127397Y-93814187D01*
X140122792Y-93812112D01*
X140116057Y-93807087D01*
X140092423Y-93789454D01*
X140092401Y-93789437D01*
X140059314Y-93764998D01*
X140059302Y-93764989D01*
X140059293Y-93764983D01*
X140028489Y-93743548D01*
X139998544Y-93725109D01*
X139998538Y-93725106D01*
X139998530Y-93725101D01*
X139967997Y-93709626D01*
X139967968Y-93709613D01*
X139935373Y-93697052D01*
X139935344Y-93697042D01*
X139899177Y-93687338D01*
X139899166Y-93687336D01*
X139857975Y-93680455D01*
X139810287Y-93676356D01*
X139766059Y-93675278D01*
X139757872Y-93671650D01*
X139754644Y-93663581D01*
X139754644Y-93436516D01*
X139758071Y-93428243D01*
X139766157Y-93424817D01*
X139820055Y-93423961D01*
X139875880Y-93420928D01*
X139924136Y-93416022D01*
X139966838Y-93409363D01*
X140006002Y-93401073D01*
X140043646Y-93391273D01*
X140081785Y-93380086D01*
X140122436Y-93367632D01*
X140122439Y-93367644D01*
X140122483Y-93367617D01*
X140167616Y-93354033D01*
X140211409Y-93341652D01*
X140220301Y-93342699D01*
G37*
%TD.AperFunction*%
%TD*%
%TA.AperFunction,Conductor*%
%TO.N,+5V*%
G36*
X144868039Y-88294685D02*
G01*
X144913794Y-88347489D01*
X144925000Y-88399000D01*
X144925000Y-88943797D01*
X144941888Y-88974725D01*
X144943805Y-88992556D01*
X144943818Y-88992555D01*
X144963762Y-89156818D01*
X144994299Y-89237336D01*
X145019780Y-89304523D01*
X145109517Y-89434530D01*
X145227760Y-89539283D01*
X145227762Y-89539284D01*
X145367634Y-89612696D01*
X145521014Y-89650500D01*
X145521015Y-89650500D01*
X145678985Y-89650500D01*
X145832365Y-89612696D01*
X145972237Y-89539285D01*
X145972238Y-89539283D01*
X145972240Y-89539283D01*
X146018774Y-89498057D01*
X146082006Y-89468337D01*
X146151270Y-89477521D01*
X146204573Y-89522693D01*
X146224993Y-89589512D01*
X146225000Y-89590874D01*
X146225000Y-89725000D01*
X146600000Y-89725000D01*
X146600000Y-89975000D01*
X146225001Y-89975000D01*
X146225001Y-90076000D01*
X146205316Y-90143039D01*
X146152512Y-90188794D01*
X146101001Y-90200000D01*
X145200000Y-90200000D01*
X144828863Y-90200000D01*
X144761824Y-90180315D01*
X144716069Y-90127511D01*
X144706125Y-90058353D01*
X144717462Y-90021540D01*
X144759096Y-89936374D01*
X144770000Y-89861535D01*
X144770000Y-89815000D01*
X144199000Y-89815000D01*
X144131961Y-89795315D01*
X144086206Y-89742511D01*
X144075000Y-89691000D01*
X144075000Y-89170000D01*
X144325000Y-89170000D01*
X144325000Y-89565000D01*
X144769999Y-89565000D01*
X144769999Y-89518460D01*
X144759096Y-89443625D01*
X144702663Y-89328189D01*
X144611810Y-89237336D01*
X144496374Y-89180903D01*
X144421536Y-89170000D01*
X144325000Y-89170000D01*
X144075000Y-89170000D01*
X144075000Y-89169999D01*
X144060958Y-89169999D01*
X143993919Y-89150314D01*
X143990648Y-89146539D01*
X143949513Y-89172976D01*
X143932454Y-89176704D01*
X143903625Y-89180903D01*
X143788189Y-89237336D01*
X143697336Y-89328189D01*
X143636674Y-89452277D01*
X143634180Y-89451057D01*
X143603869Y-89496788D01*
X143539909Y-89524911D01*
X143470898Y-89513991D01*
X143418747Y-89467493D01*
X143400000Y-89401936D01*
X143400000Y-89043618D01*
X143419685Y-88976579D01*
X143472489Y-88930824D01*
X143541647Y-88920880D01*
X143543399Y-88921145D01*
X143599304Y-88929999D01*
X143674999Y-88929998D01*
X143675000Y-88929998D01*
X143675000Y-88525000D01*
X143925000Y-88525000D01*
X143925000Y-88929999D01*
X143929332Y-88934331D01*
X143981617Y-88949684D01*
X143984887Y-88953458D01*
X144026023Y-88927022D01*
X144041563Y-88923525D01*
X144092017Y-88915535D01*
X144202093Y-88859448D01*
X144212316Y-88849225D01*
X144273638Y-88815739D01*
X144343330Y-88820721D01*
X144387684Y-88849225D01*
X144397906Y-88859448D01*
X144507984Y-88915536D01*
X144599303Y-88929999D01*
X144674999Y-88929998D01*
X144675000Y-88929998D01*
X144675000Y-88525000D01*
X143925000Y-88525000D01*
X143675000Y-88525000D01*
X143675000Y-88399000D01*
X143694685Y-88331961D01*
X143747489Y-88286206D01*
X143799000Y-88275000D01*
X144801000Y-88275000D01*
X144868039Y-88294685D01*
G37*
%TD.AperFunction*%
%TD*%
%TA.AperFunction,Conductor*%
%TO.N,GND*%
G36*
X138182712Y-88282673D02*
G01*
X138202524Y-88290297D01*
X138233234Y-88297467D01*
X138268010Y-88301992D01*
X138305197Y-88304243D01*
X138306966Y-88304351D01*
X138307520Y-88304359D01*
X138350222Y-88305027D01*
X138397890Y-88304500D01*
X138450086Y-88303253D01*
X138506926Y-88301766D01*
X138568525Y-88300521D01*
X138635000Y-88300000D01*
X138635000Y-88797622D01*
X138633259Y-88797665D01*
X138627946Y-88799941D01*
X138627714Y-88799942D01*
X138568528Y-88799477D01*
X138549900Y-88799101D01*
X138549892Y-88799101D01*
X138549886Y-88799101D01*
X138549878Y-88799101D01*
X138506926Y-88798233D01*
X138450086Y-88796746D01*
X138423933Y-88796121D01*
X138397890Y-88795499D01*
X138397876Y-88795498D01*
X138397841Y-88795498D01*
X138350235Y-88794972D01*
X138350229Y-88794972D01*
X138350222Y-88794972D01*
X138343022Y-88795084D01*
X138306966Y-88795647D01*
X138275983Y-88797524D01*
X138268010Y-88798007D01*
X138268006Y-88798007D01*
X138267998Y-88798008D01*
X138233236Y-88802531D01*
X138202526Y-88809701D01*
X138202518Y-88809704D01*
X138182712Y-88817326D01*
X138173760Y-88817099D01*
X138170400Y-88814840D01*
X138157600Y-88802531D01*
X137903768Y-88558432D01*
X137900181Y-88550229D01*
X137903446Y-88541890D01*
X137903769Y-88541567D01*
X138170402Y-88285158D01*
X138178739Y-88281894D01*
X138182712Y-88282673D01*
G37*
%TD.AperFunction*%
%TD*%
%TA.AperFunction,Conductor*%
%TO.N,GND*%
G36*
X160864359Y-93899439D02*
G01*
X160903350Y-93930733D01*
X160903357Y-93930738D01*
X160903369Y-93930747D01*
X160928003Y-93948026D01*
X160946591Y-93961065D01*
X160989294Y-93985968D01*
X161032859Y-94005938D01*
X161078685Y-94021472D01*
X161104760Y-94027581D01*
X161128166Y-94033066D01*
X161128169Y-94033066D01*
X161128172Y-94033067D01*
X161145649Y-94035679D01*
X161182687Y-94041216D01*
X161182706Y-94041218D01*
X161182718Y-94041220D01*
X161243723Y-94046429D01*
X161312587Y-94049190D01*
X161379133Y-94049879D01*
X161387368Y-94053391D01*
X161390710Y-94061578D01*
X161390710Y-94538273D01*
X161387283Y-94546546D01*
X161379010Y-94549973D01*
X161378983Y-94549973D01*
X161291192Y-94549771D01*
X161291166Y-94549760D01*
X161291166Y-94549771D01*
X161204568Y-94549374D01*
X161204551Y-94549373D01*
X161128469Y-94549240D01*
X161128462Y-94549240D01*
X161128432Y-94549240D01*
X161073606Y-94549692D01*
X161060262Y-94549802D01*
X160997621Y-94551491D01*
X160997603Y-94551491D01*
X160997602Y-94551492D01*
X160937939Y-94554742D01*
X160937935Y-94554742D01*
X160937923Y-94554743D01*
X160937910Y-94554744D01*
X160878834Y-94559980D01*
X160878794Y-94559984D01*
X160817680Y-94567653D01*
X160817664Y-94567656D01*
X160752188Y-94578165D01*
X160752099Y-94578182D01*
X160687550Y-94590482D01*
X160678782Y-94588665D01*
X160675412Y-94585148D01*
X160664580Y-94567653D01*
X160412649Y-94160753D01*
X160411209Y-94151916D01*
X160416439Y-94144647D01*
X160416797Y-94144434D01*
X160851270Y-93898382D01*
X160860158Y-93897288D01*
X160864359Y-93899439D01*
G37*
%TD.AperFunction*%
%TD*%
%TA.AperFunction,Conductor*%
%TO.N,/DC_RTS*%
G36*
X163788161Y-91855871D02*
G01*
X164241230Y-92291567D01*
X164244818Y-92299771D01*
X164241553Y-92308110D01*
X164241230Y-92308433D01*
X163788161Y-92744128D01*
X163779822Y-92747393D01*
X163774571Y-92746032D01*
X163692542Y-92702547D01*
X163692200Y-92702350D01*
X163616630Y-92655509D01*
X163616401Y-92655359D01*
X163550381Y-92610024D01*
X163489806Y-92567261D01*
X163489774Y-92567239D01*
X163483622Y-92563178D01*
X163430581Y-92528166D01*
X163368617Y-92493833D01*
X163368616Y-92493832D01*
X163299732Y-92465296D01*
X163299726Y-92465295D01*
X163219766Y-92443610D01*
X163219759Y-92443608D01*
X163124581Y-92429827D01*
X163021207Y-92425472D01*
X163013086Y-92421700D01*
X163010000Y-92413782D01*
X163010000Y-92186217D01*
X163013427Y-92177944D01*
X163021205Y-92174527D01*
X163124574Y-92170172D01*
X163124581Y-92170171D01*
X163124582Y-92170171D01*
X163219759Y-92156390D01*
X163219760Y-92156389D01*
X163219764Y-92156389D01*
X163299726Y-92134704D01*
X163299730Y-92134702D01*
X163299732Y-92134702D01*
X163326640Y-92123554D01*
X163368613Y-92106168D01*
X163430581Y-92071833D01*
X163489786Y-92032752D01*
X163550380Y-91989976D01*
X163616401Y-91944639D01*
X163616630Y-91944489D01*
X163692200Y-91897648D01*
X163692530Y-91897457D01*
X163774572Y-91853966D01*
X163783486Y-91853120D01*
X163788161Y-91855871D01*
G37*
%TD.AperFunction*%
%TD*%
%TA.AperFunction,Conductor*%
%TO.N,+3.3V*%
G36*
X143726038Y-97910055D02*
G01*
X143729071Y-97965880D01*
X143733977Y-98014136D01*
X143736693Y-98031554D01*
X143736693Y-98031562D01*
X143740634Y-98056830D01*
X143740637Y-98056847D01*
X143748925Y-98096001D01*
X143754778Y-98118482D01*
X143758726Y-98133646D01*
X143769913Y-98171785D01*
X143773172Y-98182423D01*
X143782367Y-98212436D01*
X143782354Y-98212439D01*
X143782382Y-98212487D01*
X143786509Y-98226196D01*
X143795952Y-98257569D01*
X143808347Y-98301408D01*
X143807300Y-98310301D01*
X143803874Y-98314122D01*
X143534914Y-98505608D01*
X143526187Y-98507615D01*
X143518597Y-98502863D01*
X143518339Y-98502485D01*
X143395034Y-98314122D01*
X143337475Y-98226194D01*
X143335812Y-98217397D01*
X143337885Y-98212794D01*
X143360545Y-98182423D01*
X143385016Y-98149293D01*
X143406451Y-98118489D01*
X143424890Y-98088544D01*
X143440377Y-98057988D01*
X143440820Y-98056838D01*
X143452951Y-98025362D01*
X143452952Y-98025358D01*
X143452954Y-98025353D01*
X143458181Y-98005869D01*
X143462662Y-97989169D01*
X143469544Y-97947969D01*
X143473643Y-97900284D01*
X143475000Y-97844644D01*
X143725000Y-97844644D01*
X143726038Y-97910055D01*
G37*
%TD.AperFunction*%
%TD*%
%TA.AperFunction,Conductor*%
%TO.N,GND*%
G36*
X138182712Y-88282673D02*
G01*
X138202524Y-88290297D01*
X138233234Y-88297467D01*
X138268010Y-88301992D01*
X138305197Y-88304243D01*
X138306966Y-88304351D01*
X138307520Y-88304359D01*
X138350222Y-88305027D01*
X138397890Y-88304500D01*
X138450086Y-88303253D01*
X138506926Y-88301766D01*
X138568525Y-88300521D01*
X138635000Y-88300000D01*
X138635000Y-88797622D01*
X138633259Y-88797665D01*
X138627946Y-88799941D01*
X138627714Y-88799942D01*
X138568528Y-88799477D01*
X138549900Y-88799101D01*
X138549892Y-88799101D01*
X138549886Y-88799101D01*
X138549878Y-88799101D01*
X138506926Y-88798233D01*
X138450086Y-88796746D01*
X138423933Y-88796121D01*
X138397890Y-88795499D01*
X138397876Y-88795498D01*
X138397841Y-88795498D01*
X138350235Y-88794972D01*
X138350229Y-88794972D01*
X138350222Y-88794972D01*
X138343022Y-88795084D01*
X138306966Y-88795647D01*
X138275983Y-88797524D01*
X138268010Y-88798007D01*
X138268006Y-88798007D01*
X138267998Y-88798008D01*
X138233236Y-88802531D01*
X138202526Y-88809701D01*
X138202518Y-88809704D01*
X138182712Y-88817326D01*
X138173760Y-88817099D01*
X138170400Y-88814840D01*
X138157600Y-88802531D01*
X137903768Y-88558432D01*
X137900181Y-88550229D01*
X137903446Y-88541890D01*
X137903769Y-88541567D01*
X138170402Y-88285158D01*
X138178739Y-88281894D01*
X138182712Y-88282673D01*
G37*
%TD.AperFunction*%
%TD*%
%TA.AperFunction,Conductor*%
%TO.N,Net-(D1-A)*%
G36*
X144695062Y-98140657D02*
G01*
X144731608Y-98158787D01*
X144770293Y-98178480D01*
X144805481Y-98196032D01*
X144838913Y-98211395D01*
X144872327Y-98224523D01*
X144907463Y-98235370D01*
X144946059Y-98243888D01*
X144989855Y-98250030D01*
X145040588Y-98253749D01*
X145100000Y-98255000D01*
X145100000Y-98505000D01*
X145040588Y-98506250D01*
X145014336Y-98508174D01*
X145014328Y-98508174D01*
X145010342Y-98508466D01*
X144989872Y-98509967D01*
X144989860Y-98509968D01*
X144989855Y-98509969D01*
X144964548Y-98513517D01*
X144946057Y-98516111D01*
X144920328Y-98521789D01*
X144907463Y-98524629D01*
X144907461Y-98524629D01*
X144907453Y-98524631D01*
X144872343Y-98535470D01*
X144872330Y-98535474D01*
X144872327Y-98535476D01*
X144838913Y-98548604D01*
X144838898Y-98548610D01*
X144805519Y-98563949D01*
X144805465Y-98563974D01*
X144770276Y-98581527D01*
X144731586Y-98601222D01*
X144695065Y-98619341D01*
X144686131Y-98619948D01*
X144681755Y-98617293D01*
X144665043Y-98601222D01*
X144568285Y-98508174D01*
X144443769Y-98388432D01*
X144440181Y-98380228D01*
X144443446Y-98371889D01*
X144443735Y-98371599D01*
X144681757Y-98142705D01*
X144690094Y-98139441D01*
X144695062Y-98140657D01*
G37*
%TD.AperFunction*%
%TD*%
%TA.AperFunction,Conductor*%
%TO.N,Net-(P1-CC)*%
G36*
X140220301Y-90342699D02*
G01*
X140224121Y-90346124D01*
X140279537Y-90423961D01*
X140415608Y-90615085D01*
X140417615Y-90623812D01*
X140412863Y-90631402D01*
X140412485Y-90631660D01*
X140136196Y-90812523D01*
X140127397Y-90814187D01*
X140122792Y-90812112D01*
X140116057Y-90807087D01*
X140092423Y-90789454D01*
X140092401Y-90789437D01*
X140059314Y-90764998D01*
X140059302Y-90764989D01*
X140059293Y-90764983D01*
X140028489Y-90743548D01*
X139998544Y-90725109D01*
X139998538Y-90725106D01*
X139998530Y-90725101D01*
X139967997Y-90709626D01*
X139967968Y-90709613D01*
X139935373Y-90697052D01*
X139935344Y-90697042D01*
X139899177Y-90687338D01*
X139899166Y-90687336D01*
X139857975Y-90680455D01*
X139810287Y-90676356D01*
X139766059Y-90675278D01*
X139757872Y-90671650D01*
X139754644Y-90663581D01*
X139754644Y-90436516D01*
X139758071Y-90428243D01*
X139766157Y-90424817D01*
X139820055Y-90423961D01*
X139875880Y-90420928D01*
X139924136Y-90416022D01*
X139966838Y-90409363D01*
X140006002Y-90401073D01*
X140043646Y-90391273D01*
X140081785Y-90380086D01*
X140122436Y-90367632D01*
X140122439Y-90367644D01*
X140122483Y-90367617D01*
X140167616Y-90354033D01*
X140211409Y-90341652D01*
X140220301Y-90342699D01*
G37*
%TD.AperFunction*%
%TD*%
%TA.AperFunction,Conductor*%
%TO.N,+3.3V*%
G36*
X143605915Y-97207587D02*
G01*
X143606917Y-97207194D01*
X143606917Y-97207192D01*
X143792330Y-97399999D01*
X143792330Y-97400000D01*
X143954173Y-97568296D01*
X143957438Y-97576635D01*
X143956118Y-97581809D01*
X143923665Y-97644139D01*
X143923518Y-97644403D01*
X143888465Y-97704000D01*
X143888369Y-97704158D01*
X143855117Y-97756811D01*
X143824279Y-97805610D01*
X143824252Y-97805655D01*
X143796474Y-97853649D01*
X143772373Y-97903934D01*
X143752566Y-97959603D01*
X143752564Y-97959610D01*
X143737658Y-98023777D01*
X143736693Y-98031556D01*
X143736693Y-98031558D01*
X143728266Y-98099538D01*
X143725000Y-98190000D01*
X143475000Y-98190000D01*
X143471733Y-98099538D01*
X143462341Y-98023777D01*
X143447435Y-97959610D01*
X143427625Y-97903935D01*
X143403523Y-97853647D01*
X143375738Y-97805640D01*
X143344883Y-97756812D01*
X143344883Y-97756811D01*
X143344881Y-97756809D01*
X143311599Y-97704109D01*
X143311533Y-97704000D01*
X143276480Y-97644403D01*
X143276333Y-97644139D01*
X143243881Y-97581809D01*
X143243100Y-97572888D01*
X143245824Y-97568297D01*
X143591568Y-97208768D01*
X143599770Y-97205181D01*
X143605915Y-97207587D01*
G37*
%TD.AperFunction*%
%TD*%
%TA.AperFunction,Conductor*%
%TO.N,+5V*%
G36*
X138183164Y-89083728D02*
G01*
X138225756Y-89105192D01*
X138269361Y-89128474D01*
X138284151Y-89136456D01*
X138308582Y-89149642D01*
X138308620Y-89149661D01*
X138308637Y-89149671D01*
X138321136Y-89156067D01*
X138345616Y-89168597D01*
X138345628Y-89168602D01*
X138345639Y-89168608D01*
X138382421Y-89185111D01*
X138421041Y-89199005D01*
X138463553Y-89210116D01*
X138512013Y-89218268D01*
X138568477Y-89223288D01*
X138623602Y-89224706D01*
X138631783Y-89228344D01*
X138635000Y-89236402D01*
X138635000Y-89463597D01*
X138631573Y-89471870D01*
X138623601Y-89475293D01*
X138584571Y-89476297D01*
X138568477Y-89476711D01*
X138568473Y-89476711D01*
X138512013Y-89481730D01*
X138463557Y-89489882D01*
X138463550Y-89489883D01*
X138421030Y-89500997D01*
X138382433Y-89514883D01*
X138382425Y-89514886D01*
X138382421Y-89514888D01*
X138362333Y-89523900D01*
X138345616Y-89531401D01*
X138308627Y-89550332D01*
X138308628Y-89550333D01*
X138308586Y-89550354D01*
X138277740Y-89567002D01*
X138269361Y-89571525D01*
X138242648Y-89585787D01*
X138225795Y-89594786D01*
X138225672Y-89594849D01*
X138203932Y-89605805D01*
X138183167Y-89616270D01*
X138174237Y-89616933D01*
X138169792Y-89614255D01*
X138021729Y-89471870D01*
X137903768Y-89358432D01*
X137900181Y-89350229D01*
X137903446Y-89341890D01*
X137903769Y-89341567D01*
X138169793Y-89085743D01*
X138178131Y-89082479D01*
X138183164Y-89083728D01*
G37*
%TD.AperFunction*%
%TD*%
%TA.AperFunction,Conductor*%
%TO.N,Net-(U1-VBUS)*%
G36*
X144395677Y-90523768D02*
G01*
X144420962Y-90548715D01*
X144449490Y-90575917D01*
X144449493Y-90575920D01*
X144469176Y-90593124D01*
X144476631Y-90599641D01*
X144503692Y-90620013D01*
X144531899Y-90637077D01*
X144531907Y-90637080D01*
X144531906Y-90637080D01*
X144562483Y-90650893D01*
X144562489Y-90650896D01*
X144562494Y-90650897D01*
X144562495Y-90650898D01*
X144596723Y-90661537D01*
X144635827Y-90669058D01*
X144635824Y-90669058D01*
X144681030Y-90673523D01*
X144681032Y-90673523D01*
X144681051Y-90673525D01*
X144681062Y-90673525D01*
X144681072Y-90673526D01*
X144718983Y-90674588D01*
X144722267Y-90674681D01*
X144730441Y-90678338D01*
X144733639Y-90686376D01*
X144733639Y-90913435D01*
X144730212Y-90921708D01*
X144722075Y-90925134D01*
X144663924Y-90925810D01*
X144604440Y-90928113D01*
X144604355Y-90928118D01*
X144552897Y-90931728D01*
X144507149Y-90936470D01*
X144465140Y-90942134D01*
X144465103Y-90942140D01*
X144465074Y-90942144D01*
X144465029Y-90942151D01*
X144424545Y-90948550D01*
X144424546Y-90948551D01*
X144424498Y-90948559D01*
X144424486Y-90948561D01*
X144417996Y-90949656D01*
X144383123Y-90955545D01*
X144379938Y-90956073D01*
X144379937Y-90956074D01*
X144379936Y-90956075D01*
X144379937Y-90956075D01*
X144338876Y-90962900D01*
X144289516Y-90970445D01*
X144232873Y-90977991D01*
X144077813Y-90677198D01*
X144077070Y-90668276D01*
X144082853Y-90661439D01*
X144083241Y-90661248D01*
X144382512Y-90521495D01*
X144391456Y-90521100D01*
X144395677Y-90523768D01*
G37*
%TD.AperFunction*%
%TD*%
%TA.AperFunction,Conductor*%
%TO.N,Net-(D1-A)*%
G36*
X145645504Y-98004172D02*
G01*
X145874898Y-98245552D01*
X146022646Y-98401020D01*
X146025861Y-98409378D01*
X146022225Y-98417561D01*
X146021887Y-98417870D01*
X145610597Y-98779221D01*
X145602120Y-98782107D01*
X145597004Y-98780552D01*
X145528382Y-98740746D01*
X145528123Y-98740587D01*
X145463417Y-98698412D01*
X145463269Y-98698312D01*
X145406126Y-98658535D01*
X145353095Y-98621813D01*
X145331599Y-98608272D01*
X145300881Y-98588922D01*
X145245990Y-98560499D01*
X145245981Y-98560495D01*
X145185002Y-98537228D01*
X145184988Y-98537224D01*
X145184987Y-98537224D01*
X145114429Y-98519769D01*
X145114422Y-98519768D01*
X145030873Y-98508804D01*
X145014330Y-98508174D01*
X145014329Y-98508174D01*
X145014328Y-98508174D01*
X145014319Y-98508174D01*
X144930857Y-98505000D01*
X144930857Y-98255000D01*
X145034270Y-98251263D01*
X145120746Y-98240572D01*
X145193926Y-98223704D01*
X145257449Y-98201438D01*
X145314957Y-98174553D01*
X145370091Y-98143826D01*
X145426492Y-98110036D01*
X145426497Y-98110044D01*
X145426561Y-98109994D01*
X145487774Y-98073976D01*
X145487825Y-98073947D01*
X145557526Y-98036450D01*
X145557795Y-98036315D01*
X145632076Y-98001631D01*
X145641020Y-98001237D01*
X145645504Y-98004172D01*
G37*
%TD.AperFunction*%
%TD*%
%TA.AperFunction,Conductor*%
%TO.N,GND*%
G36*
X163787952Y-93855670D02*
G01*
X164241230Y-94291567D01*
X164244818Y-94299771D01*
X164241553Y-94308110D01*
X164241230Y-94308433D01*
X163787952Y-94744329D01*
X163779613Y-94747594D01*
X163774706Y-94746408D01*
X163701448Y-94710614D01*
X163701448Y-94710615D01*
X163701436Y-94710609D01*
X163629792Y-94675802D01*
X163629761Y-94675787D01*
X163629739Y-94675777D01*
X163629739Y-94675776D01*
X163629733Y-94675774D01*
X163564075Y-94645491D01*
X163564028Y-94645470D01*
X163534198Y-94633172D01*
X163501104Y-94619528D01*
X163501093Y-94619524D01*
X163501077Y-94619518D01*
X163437908Y-94597856D01*
X163437894Y-94597852D01*
X163371354Y-94580354D01*
X163371343Y-94580352D01*
X163351947Y-94576781D01*
X163298364Y-94566919D01*
X163298359Y-94566918D01*
X163298357Y-94566918D01*
X163215858Y-94557450D01*
X163191874Y-94556036D01*
X163120752Y-94551844D01*
X163120766Y-94551844D01*
X163021505Y-94550191D01*
X163013290Y-94546627D01*
X163010000Y-94538493D01*
X163010000Y-94061506D01*
X163013427Y-94053233D01*
X163021504Y-94049808D01*
X163120766Y-94048154D01*
X163215858Y-94042549D01*
X163298357Y-94033081D01*
X163371343Y-94019647D01*
X163437898Y-94002145D01*
X163437900Y-94002144D01*
X163437908Y-94002142D01*
X163477324Y-93988625D01*
X163501104Y-93980471D01*
X163564041Y-93954523D01*
X163588008Y-93943468D01*
X163629739Y-93924222D01*
X163629761Y-93924211D01*
X163629792Y-93924197D01*
X163701436Y-93889390D01*
X163774706Y-93853590D01*
X163783643Y-93853038D01*
X163787952Y-93855670D01*
G37*
%TD.AperFunction*%
%TD*%
%TA.AperFunction,Conductor*%
%TO.N,/CP2102N_RESET*%
G36*
X157084562Y-95115114D02*
G01*
X157088150Y-95123318D01*
X157088150Y-95123776D01*
X157082203Y-95427968D01*
X157078615Y-95436172D01*
X157074298Y-95438807D01*
X157040113Y-95450521D01*
X157040110Y-95450523D01*
X157018064Y-95458093D01*
X157002859Y-95463314D01*
X156969280Y-95475548D01*
X156969249Y-95475560D01*
X156938119Y-95488331D01*
X156908393Y-95502670D01*
X156878928Y-95519650D01*
X156848677Y-95540291D01*
X156848657Y-95540305D01*
X156816488Y-95565672D01*
X156816459Y-95565696D01*
X156781253Y-95596859D01*
X156750176Y-95626880D01*
X156741845Y-95630163D01*
X156733774Y-95626738D01*
X156573260Y-95466224D01*
X156569833Y-95457951D01*
X156573117Y-95449823D01*
X156603140Y-95418744D01*
X156634313Y-95383526D01*
X156659698Y-95351334D01*
X156680351Y-95321065D01*
X156697324Y-95291613D01*
X156711669Y-95261874D01*
X156711675Y-95261857D01*
X156711679Y-95261851D01*
X156718201Y-95245951D01*
X156724441Y-95230744D01*
X156736692Y-95197117D01*
X156749476Y-95159889D01*
X156761192Y-95125698D01*
X156767114Y-95118986D01*
X156772025Y-95117797D01*
X157076225Y-95111849D01*
X157084562Y-95115114D01*
G37*
%TD.AperFunction*%
%TD*%
%TA.AperFunction,Conductor*%
%TO.N,GND*%
G36*
X145926403Y-86751776D02*
G01*
X145930555Y-86804414D01*
X145937365Y-86849760D01*
X145946746Y-86889658D01*
X145958606Y-86925953D01*
X145961791Y-86933672D01*
X145961791Y-86933674D01*
X145969533Y-86952431D01*
X145972859Y-86960490D01*
X145989413Y-86995113D01*
X145989415Y-86995117D01*
X146008170Y-87031649D01*
X146008171Y-87031649D01*
X146008181Y-87031668D01*
X146029073Y-87071999D01*
X146040489Y-87094881D01*
X146048315Y-87110566D01*
X146048942Y-87119498D01*
X146046279Y-87123899D01*
X145808433Y-87371230D01*
X145800229Y-87374818D01*
X145791890Y-87371553D01*
X145791567Y-87371230D01*
X145553720Y-87123899D01*
X145550455Y-87115560D01*
X145551684Y-87110566D01*
X145570926Y-87071999D01*
X145591818Y-87031668D01*
X145610586Y-86995113D01*
X145627140Y-86960490D01*
X145627139Y-86960490D01*
X145627144Y-86960475D01*
X145627152Y-86960460D01*
X145638206Y-86933675D01*
X145638206Y-86933674D01*
X145641393Y-86925953D01*
X145653253Y-86889658D01*
X145662634Y-86849760D01*
X145669444Y-86804414D01*
X145673596Y-86751776D01*
X145675000Y-86690000D01*
X145925000Y-86690000D01*
X145926403Y-86751776D01*
G37*
%TD.AperFunction*%
%TD*%
%TA.AperFunction,Conductor*%
%TO.N,GND*%
G36*
X144808110Y-86408446D02*
G01*
X144808433Y-86408769D01*
X145154173Y-86768296D01*
X145157438Y-86776635D01*
X145156118Y-86781809D01*
X145123665Y-86844139D01*
X145123518Y-86844403D01*
X145088465Y-86904000D01*
X145088369Y-86904158D01*
X145055117Y-86956811D01*
X145024279Y-87005610D01*
X145024252Y-87005655D01*
X144996474Y-87053649D01*
X144972373Y-87103934D01*
X144961791Y-87133674D01*
X144961791Y-87133675D01*
X144952564Y-87159610D01*
X144937658Y-87223777D01*
X144928266Y-87299538D01*
X144925000Y-87390000D01*
X144675000Y-87390000D01*
X144671733Y-87299538D01*
X144662341Y-87223777D01*
X144647435Y-87159610D01*
X144627625Y-87103935D01*
X144603523Y-87053647D01*
X144575738Y-87005640D01*
X144544883Y-86956812D01*
X144544883Y-86956811D01*
X144544881Y-86956809D01*
X144511599Y-86904109D01*
X144511533Y-86904000D01*
X144476480Y-86844403D01*
X144476333Y-86844139D01*
X144443881Y-86781809D01*
X144443100Y-86772888D01*
X144445824Y-86768297D01*
X144791567Y-86408768D01*
X144799771Y-86405181D01*
X144808110Y-86408446D01*
G37*
%TD.AperFunction*%
%TD*%
%TA.AperFunction,Conductor*%
%TO.N,GND*%
G36*
X138528301Y-94800557D02*
G01*
X138618946Y-94801985D01*
X138698544Y-94803921D01*
X138698545Y-94803921D01*
X138769775Y-94805998D01*
X138785495Y-94806442D01*
X138835268Y-94807852D01*
X138835269Y-94807852D01*
X138835309Y-94807852D01*
X138835316Y-94807853D01*
X138897846Y-94809120D01*
X138960044Y-94809435D01*
X139021926Y-94808475D01*
X139024589Y-94808434D01*
X139024624Y-94808433D01*
X139094084Y-94805754D01*
X139094109Y-94805752D01*
X139094154Y-94805751D01*
X139163380Y-94801514D01*
X139171846Y-94804429D01*
X139174751Y-94808363D01*
X139380745Y-95263013D01*
X139381038Y-95271963D01*
X139374917Y-95278499D01*
X139374496Y-95278680D01*
X138911980Y-95466815D01*
X138903026Y-95466758D01*
X138899182Y-95464131D01*
X138867477Y-95431508D01*
X138867466Y-95431499D01*
X138867460Y-95431492D01*
X138830735Y-95399128D01*
X138793413Y-95372244D01*
X138754404Y-95350396D01*
X138712619Y-95333134D01*
X138676920Y-95322874D01*
X138666962Y-95320012D01*
X138616373Y-95310588D01*
X138616372Y-95310587D01*
X138559729Y-95304408D01*
X138559726Y-95304407D01*
X138495945Y-95301027D01*
X138432603Y-95300123D01*
X138424398Y-95296597D01*
X138423933Y-95296120D01*
X138423933Y-94803874D01*
X138424228Y-94803574D01*
X138432459Y-94800047D01*
X138432605Y-94800046D01*
X138528301Y-94800557D01*
G37*
%TD.AperFunction*%
%TD*%
%TA.AperFunction,Conductor*%
%TO.N,GND*%
G36*
X146697923Y-86210268D02*
G01*
X146698293Y-86210521D01*
X147104748Y-86499647D01*
X147109503Y-86507235D01*
X147109164Y-86512572D01*
X147087029Y-86585674D01*
X147086922Y-86585993D01*
X147061600Y-86655034D01*
X147061504Y-86655277D01*
X147036102Y-86716012D01*
X147011438Y-86771828D01*
X146988372Y-86826043D01*
X146967696Y-86882147D01*
X146967695Y-86882148D01*
X146956803Y-86920435D01*
X146956803Y-86920439D01*
X146950223Y-86943574D01*
X146936745Y-87013807D01*
X146928070Y-87096296D01*
X146925000Y-87194500D01*
X146675000Y-87194500D01*
X146671664Y-87109471D01*
X146661938Y-87038220D01*
X146646236Y-86978027D01*
X146624978Y-86926177D01*
X146621699Y-86920435D01*
X146598583Y-86879956D01*
X146598581Y-86879953D01*
X146567461Y-86836638D01*
X146567449Y-86836624D01*
X146567436Y-86836606D01*
X146532059Y-86793543D01*
X146532036Y-86793515D01*
X146507139Y-86764606D01*
X146492716Y-86747857D01*
X146450010Y-86697058D01*
X146449873Y-86696889D01*
X146409245Y-86644726D01*
X146406865Y-86636094D01*
X146408682Y-86631136D01*
X146681728Y-86213655D01*
X146689124Y-86208608D01*
X146697923Y-86210268D01*
G37*
%TD.AperFunction*%
%TD*%
%TA.AperFunction,Conductor*%
%TO.N,Net-(P1-CC)*%
G36*
X138117330Y-90417677D02*
G01*
X138120322Y-90418829D01*
X138123471Y-90420043D01*
X138138491Y-90423566D01*
X138155500Y-90425804D01*
X138174554Y-90426987D01*
X138178315Y-90427051D01*
X138195673Y-90427350D01*
X138195710Y-90427350D01*
X138195735Y-90427350D01*
X138218989Y-90427126D01*
X138244569Y-90426544D01*
X138254362Y-90426295D01*
X138272289Y-90425842D01*
X138272355Y-90425867D01*
X138272355Y-90425841D01*
X138274289Y-90425803D01*
X138302485Y-90425249D01*
X138323211Y-90425090D01*
X138331510Y-90428454D01*
X138335000Y-90436701D01*
X138335000Y-90663209D01*
X138331573Y-90671482D01*
X138323300Y-90674909D01*
X138323210Y-90674909D01*
X138302477Y-90674749D01*
X138272355Y-90674158D01*
X138272355Y-90674157D01*
X138244569Y-90673454D01*
X138244569Y-90673455D01*
X138218989Y-90672872D01*
X138195735Y-90672649D01*
X138195673Y-90672649D01*
X138174562Y-90673011D01*
X138155495Y-90674195D01*
X138138497Y-90676432D01*
X138138494Y-90676432D01*
X138138491Y-90676433D01*
X138133341Y-90677641D01*
X138123472Y-90679955D01*
X138123466Y-90679957D01*
X138122688Y-90680257D01*
X138114692Y-90680402D01*
X138107113Y-90677801D01*
X138107110Y-90677800D01*
X138107109Y-90677800D01*
X138107107Y-90677800D01*
X138106154Y-90677641D01*
X138106220Y-90677240D01*
X138099499Y-90674533D01*
X137978769Y-90558432D01*
X137975181Y-90550228D01*
X137978446Y-90541889D01*
X137978736Y-90541598D01*
X138105015Y-90420161D01*
X138113353Y-90416897D01*
X138117330Y-90417677D01*
G37*
%TD.AperFunction*%
%TD*%
M02*
