%TF.GenerationSoftware,KiCad,Pcbnew,7.0.5-0*%
%TF.CreationDate,2023-07-20T10:36:23-05:00*%
%TF.ProjectId,DCSDv2_CP2102N,44435344-7632-45f4-9350-323130324e2e,rev?*%
%TF.SameCoordinates,Original*%
%TF.FileFunction,Soldermask,Bot*%
%TF.FilePolarity,Negative*%
%FSLAX46Y46*%
G04 Gerber Fmt 4.6, Leading zero omitted, Abs format (unit mm)*
G04 Created by KiCad (PCBNEW 7.0.5-0) date 2023-07-20 10:36:23*
%MOMM*%
%LPD*%
G01*
G04 APERTURE LIST*
G04 Aperture macros list*
%AMRoundRect*
0 Rectangle with rounded corners*
0 $1 Rounding radius*
0 $2 $3 $4 $5 $6 $7 $8 $9 X,Y pos of 4 corners*
0 Add a 4 corners polygon primitive as box body*
4,1,4,$2,$3,$4,$5,$6,$7,$8,$9,$2,$3,0*
0 Add four circle primitives for the rounded corners*
1,1,$1+$1,$2,$3*
1,1,$1+$1,$4,$5*
1,1,$1+$1,$6,$7*
1,1,$1+$1,$8,$9*
0 Add four rect primitives between the rounded corners*
20,1,$1+$1,$2,$3,$4,$5,0*
20,1,$1+$1,$4,$5,$6,$7,0*
20,1,$1+$1,$6,$7,$8,$9,0*
20,1,$1+$1,$8,$9,$2,$3,0*%
%AMFreePoly0*
4,1,19,0.500000,-0.750000,0.000000,-0.750000,0.000000,-0.744911,-0.071157,-0.744911,-0.207708,-0.704816,-0.327430,-0.627875,-0.420627,-0.520320,-0.479746,-0.390866,-0.500000,-0.250000,-0.500000,0.250000,-0.479746,0.390866,-0.420627,0.520320,-0.327430,0.627875,-0.207708,0.704816,-0.071157,0.744911,0.000000,0.744911,0.000000,0.750000,0.500000,0.750000,0.500000,-0.750000,0.500000,-0.750000,
$1*%
%AMFreePoly1*
4,1,19,0.000000,0.744911,0.071157,0.744911,0.207708,0.704816,0.327430,0.627875,0.420627,0.520320,0.479746,0.390866,0.500000,0.250000,0.500000,-0.250000,0.479746,-0.390866,0.420627,-0.520320,0.327430,-0.627875,0.207708,-0.704816,0.071157,-0.744911,0.000000,-0.744911,0.000000,-0.750000,-0.500000,-0.750000,-0.500000,0.750000,0.000000,0.750000,0.000000,0.744911,0.000000,0.744911,
$1*%
G04 Aperture macros list end*
%ADD10R,5.000000X1.000000*%
%ADD11RoundRect,0.135000X0.185000X-0.135000X0.185000X0.135000X-0.185000X0.135000X-0.185000X-0.135000X0*%
%ADD12FreePoly0,180.000000*%
%ADD13FreePoly1,180.000000*%
%ADD14RoundRect,0.218750X-0.218750X-0.256250X0.218750X-0.256250X0.218750X0.256250X-0.218750X0.256250X0*%
%ADD15RoundRect,0.062500X-0.062500X0.337500X-0.062500X-0.337500X0.062500X-0.337500X0.062500X0.337500X0*%
%ADD16RoundRect,0.062500X-0.337500X0.062500X-0.337500X-0.062500X0.337500X-0.062500X0.337500X0.062500X0*%
%ADD17R,3.350000X3.350000*%
%ADD18RoundRect,0.140000X0.170000X-0.140000X0.170000X0.140000X-0.170000X0.140000X-0.170000X-0.140000X0*%
%ADD19RoundRect,0.135000X-0.135000X-0.185000X0.135000X-0.185000X0.135000X0.185000X-0.135000X0.185000X0*%
%ADD20C,0.650000*%
%ADD21R,1.450000X0.600000*%
%ADD22R,1.450000X0.300000*%
%ADD23O,1.600000X1.000000*%
%ADD24O,2.100000X1.000000*%
%ADD25RoundRect,0.135000X0.135000X0.185000X-0.135000X0.185000X-0.135000X-0.185000X0.135000X-0.185000X0*%
G04 APERTURE END LIST*
D10*
%TO.C,U2*%
X135473810Y-96300000D03*
X135473810Y-94300000D03*
X135473810Y-92300000D03*
X135473810Y-90300000D03*
X135473810Y-88300000D03*
X135473810Y-98300000D03*
X135473810Y-85300000D03*
%TD*%
D11*
%TO.C,R3*%
X155273810Y-90710000D03*
X155273810Y-89690000D03*
%TD*%
D12*
%TO.C,JP2*%
X142963810Y-88275000D03*
D13*
X141663810Y-88275000D03*
%TD*%
D14*
%TO.C,D2*%
X152086310Y-96610000D03*
X153661310Y-96610000D03*
%TD*%
%TO.C,D1*%
X152086310Y-98400000D03*
X153661310Y-98400000D03*
%TD*%
D15*
%TO.C,U1*%
X149873810Y-89850000D03*
X150373810Y-89850000D03*
X150873810Y-89850000D03*
X151373810Y-89850000D03*
X151873810Y-89850000D03*
X152373810Y-89850000D03*
X152873810Y-89850000D03*
D16*
X153823810Y-90800000D03*
X153823810Y-91300000D03*
X153823810Y-91800000D03*
X153823810Y-92300000D03*
X153823810Y-92800000D03*
X153823810Y-93300000D03*
X153823810Y-93800000D03*
D15*
X152873810Y-94750000D03*
X152373810Y-94750000D03*
X151873810Y-94750000D03*
X151373810Y-94750000D03*
X150873810Y-94750000D03*
X150373810Y-94750000D03*
X149873810Y-94750000D03*
D16*
X148923810Y-93800000D03*
X148923810Y-93300000D03*
X148923810Y-92800000D03*
X148923810Y-92300000D03*
X148923810Y-91800000D03*
X148923810Y-91300000D03*
X148923810Y-90800000D03*
D17*
X151373810Y-92300000D03*
%TD*%
D18*
%TO.C,C2*%
X155673810Y-88400000D03*
X155673810Y-87440000D03*
%TD*%
D19*
%TO.C,R6*%
X154903810Y-96580000D03*
X155923810Y-96580000D03*
%TD*%
D20*
%TO.C,P1*%
X162873810Y-88910000D03*
X162873810Y-94690000D03*
D21*
X161428810Y-88550000D03*
X161428810Y-89350000D03*
D22*
X161428810Y-90550000D03*
X161428810Y-91550000D03*
X161428810Y-92050000D03*
X161428810Y-93050000D03*
D21*
X161428810Y-94250000D03*
X161428810Y-95050000D03*
X161428810Y-95050000D03*
X161428810Y-94250000D03*
D22*
X161428810Y-93550000D03*
X161428810Y-92550000D03*
X161428810Y-91050000D03*
X161428810Y-90050000D03*
D21*
X161428810Y-89350000D03*
X161428810Y-88550000D03*
D23*
X166523810Y-87480000D03*
D24*
X162343810Y-87480000D03*
D23*
X166523810Y-96120000D03*
D24*
X162343810Y-96120000D03*
%TD*%
D18*
%TO.C,C1*%
X154673810Y-88400000D03*
X154673810Y-87440000D03*
%TD*%
D12*
%TO.C,JP1*%
X142950000Y-95150000D03*
D13*
X141650000Y-95150000D03*
%TD*%
D19*
%TO.C,R5*%
X154903810Y-98380000D03*
X155923810Y-98380000D03*
%TD*%
D11*
%TO.C,R4*%
X155273810Y-92710000D03*
X155273810Y-91690000D03*
%TD*%
D18*
%TO.C,C4*%
X152673810Y-88200000D03*
X152673810Y-87240000D03*
%TD*%
%TO.C,C3*%
X153673810Y-88200000D03*
X153673810Y-87240000D03*
%TD*%
D25*
%TO.C,R1*%
X159183810Y-90600000D03*
X158163810Y-90600000D03*
%TD*%
%TO.C,R2*%
X159183810Y-92500000D03*
X158163810Y-92500000D03*
%TD*%
M02*
